G04 EAGLE Gerber RS-274X export*
G75*
%MOMM*%
%FSLAX34Y34*%
%LPD*%
%INTop Copper*%
%IPPOS*%
%AMOC8*
5,1,8,0,0,1.08239X$1,22.5*%
G01*
%ADD10P,1.429621X8X202.500000*%
%ADD11P,1.429621X8X22.500000*%
%ADD12P,1.429621X8X112.500000*%
%ADD13C,1.108000*%
%ADD14C,0.812800*%
%ADD15C,1.006400*%
%ADD16C,0.254000*%


D10*
X312700Y2300800D03*
X287300Y2300800D03*
D11*
X374200Y2300800D03*
X475800Y2300800D03*
D12*
X175000Y2380000D03*
X175000Y2481600D03*
X300000Y2380000D03*
X300000Y2481600D03*
X425000Y2380000D03*
X425000Y2481600D03*
D10*
X822700Y2300800D03*
X797300Y2300800D03*
D11*
X884200Y2300800D03*
X985800Y2300800D03*
D12*
X685000Y2380000D03*
X685000Y2481600D03*
X810000Y2380000D03*
X810000Y2481600D03*
X935000Y2380000D03*
X935000Y2481600D03*
D10*
X1342700Y2300800D03*
X1317300Y2300800D03*
D11*
X1404200Y2300800D03*
X1505800Y2300800D03*
D12*
X1205000Y2380000D03*
X1205000Y2481600D03*
X1330000Y2380000D03*
X1330000Y2481600D03*
X1455000Y2380000D03*
X1455000Y2481600D03*
D10*
X1832700Y2300800D03*
X1807300Y2300800D03*
D11*
X1868800Y2300800D03*
X1970400Y2300800D03*
D12*
X1695000Y2380000D03*
X1695000Y2481600D03*
X1820000Y2380000D03*
X1820000Y2481600D03*
X1944000Y2380000D03*
X1944000Y2481600D03*
D10*
X300000Y1561100D03*
X274600Y1561100D03*
D11*
X361500Y1561100D03*
X463100Y1561100D03*
D12*
X162300Y1640300D03*
X162300Y1741900D03*
X287300Y1640300D03*
X287300Y1741900D03*
X412300Y1640300D03*
X412300Y1741900D03*
D10*
X810000Y1561100D03*
X784600Y1561100D03*
D11*
X871500Y1561100D03*
X973100Y1561100D03*
D12*
X672300Y1640300D03*
X672300Y1741900D03*
X797300Y1640300D03*
X797300Y1741900D03*
X922300Y1640300D03*
X922300Y1741900D03*
D10*
X1330000Y1561100D03*
X1304600Y1561100D03*
D11*
X1391500Y1561100D03*
X1493100Y1561100D03*
D12*
X1192300Y1640300D03*
X1192300Y1741900D03*
X1317300Y1640300D03*
X1317300Y1741900D03*
X1442300Y1640300D03*
X1442300Y1741900D03*
D10*
X1820000Y1561100D03*
X1794600Y1561100D03*
D11*
X1856100Y1561100D03*
X1957700Y1561100D03*
D12*
X1682300Y1640300D03*
X1682300Y1741900D03*
X1807300Y1640300D03*
X1807300Y1741900D03*
X1932300Y1640300D03*
X1932300Y1741900D03*
D10*
X300000Y826900D03*
X274600Y826900D03*
D11*
X348800Y824100D03*
X450400Y824100D03*
D12*
X162300Y913300D03*
X162300Y1014900D03*
X287300Y913300D03*
X287300Y1014900D03*
X412300Y913300D03*
X412300Y1014900D03*
D10*
X810000Y825500D03*
X784600Y825500D03*
D11*
X871500Y824100D03*
X973100Y824100D03*
D12*
X672300Y913300D03*
X672300Y1014900D03*
X797300Y913300D03*
X797300Y1014900D03*
X922300Y913300D03*
X922300Y1014900D03*
D11*
X1391500Y824100D03*
X1493100Y824100D03*
D12*
X1192300Y913300D03*
X1192300Y1014900D03*
X1317300Y913300D03*
X1317300Y1014900D03*
X1442300Y913300D03*
X1442300Y1014900D03*
D10*
X1818900Y826900D03*
X1793500Y826900D03*
D11*
X1868800Y824100D03*
X1970400Y824100D03*
D12*
X1682300Y913300D03*
X1682300Y1014900D03*
X1807300Y913300D03*
X1807300Y1014900D03*
X1932300Y913300D03*
X1932300Y1014900D03*
D10*
X312700Y88600D03*
X287300Y88600D03*
D11*
X374200Y89200D03*
X475800Y89200D03*
D12*
X175000Y178400D03*
X175000Y280000D03*
X300000Y178400D03*
X300000Y280000D03*
X425000Y178400D03*
X425000Y280000D03*
D10*
X822700Y88600D03*
X797300Y88600D03*
D11*
X884200Y89200D03*
X985800Y89200D03*
D12*
X685000Y178400D03*
X685000Y280000D03*
X810000Y178400D03*
X810000Y280000D03*
X935000Y178400D03*
X935000Y280000D03*
D10*
X1342700Y88600D03*
X1317300Y88600D03*
D11*
X1404200Y89200D03*
X1505800Y89200D03*
D12*
X1205000Y178400D03*
X1205000Y280000D03*
X1330000Y178400D03*
X1330000Y280000D03*
X1455000Y178400D03*
X1455000Y280000D03*
D10*
X1832700Y88600D03*
X1807300Y88600D03*
D11*
X1881500Y89200D03*
X1983100Y89200D03*
D12*
X1695000Y178400D03*
X1695000Y280000D03*
X1820000Y178400D03*
X1820000Y280000D03*
X1945000Y178400D03*
X1945000Y280000D03*
D13*
X175000Y2777800D03*
X175000Y2523800D03*
X300000Y2777800D03*
X300000Y2523800D03*
X425000Y2777800D03*
X425000Y2523800D03*
X685000Y2777800D03*
X685000Y2523800D03*
X810000Y2777800D03*
X810000Y2523800D03*
X935000Y2777800D03*
X935000Y2523800D03*
X1205000Y2777800D03*
X1205000Y2523800D03*
X1330000Y2777800D03*
X1330000Y2523800D03*
X1455000Y2777800D03*
X1455000Y2523800D03*
X1695000Y2777800D03*
X1695000Y2523800D03*
X1820000Y2777800D03*
X1820000Y2523800D03*
X1945000Y2777800D03*
X1945000Y2523800D03*
X162300Y2038100D03*
X162300Y1784100D03*
X287300Y2038100D03*
X287300Y1784100D03*
X412300Y2038100D03*
X412300Y1784100D03*
X672300Y2038100D03*
X672300Y1784100D03*
X797300Y2038100D03*
X797300Y1784100D03*
X922300Y2038100D03*
X922300Y1784100D03*
X1192300Y2038100D03*
X1192300Y1784100D03*
X1317300Y2038100D03*
X1317300Y1784100D03*
X1442300Y2038100D03*
X1442300Y1784100D03*
X1682300Y2038100D03*
X1682300Y1784100D03*
X1807300Y2038100D03*
X1807300Y1784100D03*
X1932300Y2038100D03*
X1932300Y1784100D03*
X162300Y1311100D03*
X162300Y1057100D03*
X287300Y1311100D03*
X287300Y1057100D03*
X412300Y1311100D03*
X412300Y1057100D03*
X672300Y1311100D03*
X672300Y1057100D03*
X797300Y1311100D03*
X797300Y1057100D03*
X922300Y1311100D03*
X922300Y1057100D03*
X1192300Y1311100D03*
X1192300Y1057100D03*
X1317300Y1311100D03*
X1317300Y1057100D03*
X1442300Y1311100D03*
X1442300Y1057100D03*
X1682300Y1311100D03*
X1682300Y1057100D03*
X1807300Y1311100D03*
X1807300Y1057100D03*
X1932300Y1311100D03*
X1932300Y1057100D03*
X1695000Y576200D03*
X1695000Y322200D03*
X1820000Y576200D03*
X1820000Y322200D03*
X1945000Y576200D03*
X1945000Y322200D03*
X1205000Y576200D03*
X1205000Y322200D03*
X1330000Y576200D03*
X1330000Y322200D03*
X1455000Y576200D03*
X1455000Y322200D03*
X175000Y576200D03*
X175000Y322200D03*
X300000Y576200D03*
X300000Y322200D03*
X425000Y576200D03*
X425000Y322200D03*
X685000Y576200D03*
X685000Y322200D03*
X810000Y576200D03*
X810000Y322200D03*
X935000Y576200D03*
X935000Y322200D03*
D10*
X1333500Y825500D03*
X1308100Y825500D03*
D14*
X374200Y2300800D02*
X312700Y2300800D01*
X300000Y2380000D02*
X175000Y2380000D01*
X300000Y2380000D02*
X425000Y2380000D01*
X685000Y2380000D01*
X810000Y2380000D01*
X935000Y2380000D01*
X1205000Y2380000D01*
X1330000Y2380000D01*
X1455000Y2380000D01*
X1695000Y2380000D01*
X1820000Y2380000D01*
X1944000Y2380000D01*
X175000Y178400D02*
X174400Y177800D01*
X1931200Y914400D02*
X1932300Y913300D01*
X425000Y178400D02*
X300000Y178400D01*
X1695000Y178400D02*
X1945000Y178400D01*
X38100Y2374900D02*
X38100Y2870200D01*
X38100Y2896771D01*
X38100Y2374900D02*
X38100Y1638300D01*
X38100Y914400D01*
X169900Y2374900D02*
X170041Y2374902D01*
X170181Y2374908D01*
X170321Y2374917D01*
X170461Y2374931D01*
X170601Y2374948D01*
X170739Y2374970D01*
X170878Y2374995D01*
X171015Y2375023D01*
X171152Y2375056D01*
X171288Y2375092D01*
X171422Y2375133D01*
X171556Y2375176D01*
X171688Y2375224D01*
X171819Y2375275D01*
X171949Y2375330D01*
X172077Y2375388D01*
X172203Y2375450D01*
X172327Y2375515D01*
X172450Y2375583D01*
X172571Y2375655D01*
X172689Y2375730D01*
X172806Y2375809D01*
X172920Y2375891D01*
X173032Y2375975D01*
X173142Y2376063D01*
X173249Y2376154D01*
X173354Y2376248D01*
X173456Y2376344D01*
X173556Y2376444D01*
X173652Y2376546D01*
X173746Y2376651D01*
X173837Y2376758D01*
X173925Y2376868D01*
X174009Y2376980D01*
X174091Y2377094D01*
X174170Y2377211D01*
X174245Y2377329D01*
X174317Y2377450D01*
X174385Y2377573D01*
X174450Y2377697D01*
X174512Y2377823D01*
X174570Y2377951D01*
X174625Y2378081D01*
X174676Y2378212D01*
X174724Y2378344D01*
X174767Y2378478D01*
X174808Y2378612D01*
X174844Y2378748D01*
X174877Y2378885D01*
X174905Y2379022D01*
X174930Y2379161D01*
X174952Y2379299D01*
X174969Y2379439D01*
X174983Y2379579D01*
X174992Y2379719D01*
X174998Y2379859D01*
X175000Y2380000D01*
X162300Y1640300D02*
X162298Y1640213D01*
X162292Y1640126D01*
X162283Y1640039D01*
X162270Y1639953D01*
X162253Y1639867D01*
X162232Y1639782D01*
X162207Y1639699D01*
X162179Y1639616D01*
X162148Y1639535D01*
X162113Y1639455D01*
X162074Y1639377D01*
X162032Y1639300D01*
X161987Y1639225D01*
X161938Y1639153D01*
X161887Y1639082D01*
X161832Y1639014D01*
X161775Y1638949D01*
X161714Y1638886D01*
X161651Y1638825D01*
X161586Y1638768D01*
X161518Y1638713D01*
X161447Y1638662D01*
X161375Y1638613D01*
X161300Y1638568D01*
X161223Y1638526D01*
X161145Y1638487D01*
X161065Y1638452D01*
X160984Y1638421D01*
X160901Y1638393D01*
X160818Y1638368D01*
X160733Y1638347D01*
X160647Y1638330D01*
X160561Y1638317D01*
X160474Y1638308D01*
X160387Y1638302D01*
X160300Y1638300D01*
X169900Y2374900D02*
X170041Y2374902D01*
X170181Y2374908D01*
X170321Y2374917D01*
X170461Y2374931D01*
X170601Y2374948D01*
X170739Y2374970D01*
X170878Y2374995D01*
X171015Y2375023D01*
X171152Y2375056D01*
X171288Y2375092D01*
X171422Y2375133D01*
X171556Y2375176D01*
X171688Y2375224D01*
X171819Y2375275D01*
X171949Y2375330D01*
X172077Y2375388D01*
X172203Y2375450D01*
X172327Y2375515D01*
X172450Y2375583D01*
X172571Y2375655D01*
X172689Y2375730D01*
X172806Y2375809D01*
X172920Y2375891D01*
X173032Y2375975D01*
X173142Y2376063D01*
X173249Y2376154D01*
X173354Y2376248D01*
X173456Y2376344D01*
X173556Y2376444D01*
X173652Y2376546D01*
X173746Y2376651D01*
X173837Y2376758D01*
X173925Y2376868D01*
X174009Y2376980D01*
X174091Y2377094D01*
X174170Y2377211D01*
X174245Y2377329D01*
X174317Y2377450D01*
X174385Y2377573D01*
X174450Y2377697D01*
X174512Y2377823D01*
X174570Y2377951D01*
X174625Y2378081D01*
X174676Y2378212D01*
X174724Y2378344D01*
X174767Y2378478D01*
X174808Y2378612D01*
X174844Y2378748D01*
X174877Y2378885D01*
X174905Y2379022D01*
X174930Y2379161D01*
X174952Y2379299D01*
X174969Y2379439D01*
X174983Y2379579D01*
X174992Y2379719D01*
X174998Y2379859D01*
X175000Y2380000D01*
X175000Y178400D02*
X174998Y178353D01*
X174993Y178306D01*
X174983Y178260D01*
X174971Y178215D01*
X174954Y178170D01*
X174935Y178128D01*
X174912Y178087D01*
X174885Y178047D01*
X174856Y178010D01*
X174824Y177976D01*
X174790Y177944D01*
X174753Y177915D01*
X174713Y177888D01*
X174672Y177865D01*
X174630Y177846D01*
X174585Y177829D01*
X174540Y177817D01*
X174494Y177807D01*
X174447Y177802D01*
X174400Y177800D01*
X169900Y2374900D02*
X170041Y2374902D01*
X170181Y2374908D01*
X170321Y2374917D01*
X170461Y2374931D01*
X170601Y2374948D01*
X170739Y2374970D01*
X170878Y2374995D01*
X171015Y2375023D01*
X171152Y2375056D01*
X171288Y2375092D01*
X171422Y2375133D01*
X171556Y2375176D01*
X171688Y2375224D01*
X171819Y2375275D01*
X171949Y2375330D01*
X172077Y2375388D01*
X172203Y2375450D01*
X172327Y2375515D01*
X172450Y2375583D01*
X172571Y2375655D01*
X172689Y2375730D01*
X172806Y2375809D01*
X172920Y2375891D01*
X173032Y2375975D01*
X173142Y2376063D01*
X173249Y2376154D01*
X173354Y2376248D01*
X173456Y2376344D01*
X173556Y2376444D01*
X173652Y2376546D01*
X173746Y2376651D01*
X173837Y2376758D01*
X173925Y2376868D01*
X174009Y2376980D01*
X174091Y2377094D01*
X174170Y2377211D01*
X174245Y2377329D01*
X174317Y2377450D01*
X174385Y2377573D01*
X174450Y2377697D01*
X174512Y2377823D01*
X174570Y2377951D01*
X174625Y2378081D01*
X174676Y2378212D01*
X174724Y2378344D01*
X174767Y2378478D01*
X174808Y2378612D01*
X174844Y2378748D01*
X174877Y2378885D01*
X174905Y2379022D01*
X174930Y2379161D01*
X174952Y2379299D01*
X174969Y2379439D01*
X174983Y2379579D01*
X174992Y2379719D01*
X174998Y2379859D01*
X175000Y2380000D01*
X169900Y2374900D02*
X38100Y2374900D01*
X162300Y1640300D02*
X162298Y1640213D01*
X162292Y1640126D01*
X162283Y1640039D01*
X162270Y1639953D01*
X162253Y1639867D01*
X162232Y1639782D01*
X162207Y1639699D01*
X162179Y1639616D01*
X162148Y1639535D01*
X162113Y1639455D01*
X162074Y1639377D01*
X162032Y1639300D01*
X161987Y1639225D01*
X161938Y1639153D01*
X161887Y1639082D01*
X161832Y1639014D01*
X161775Y1638949D01*
X161714Y1638886D01*
X161651Y1638825D01*
X161586Y1638768D01*
X161518Y1638713D01*
X161447Y1638662D01*
X161375Y1638613D01*
X161300Y1638568D01*
X161223Y1638526D01*
X161145Y1638487D01*
X161065Y1638452D01*
X160984Y1638421D01*
X160901Y1638393D01*
X160818Y1638368D01*
X160733Y1638347D01*
X160647Y1638330D01*
X160561Y1638317D01*
X160474Y1638308D01*
X160387Y1638302D01*
X160300Y1638300D01*
X162300Y913300D02*
X287300Y913300D01*
X412300Y913300D01*
X672300Y913300D01*
X797300Y913300D01*
X922300Y913300D01*
X1192300Y913300D01*
X1317300Y913300D01*
X1442300Y913300D01*
X1682300Y913300D01*
X1807300Y913300D01*
X1932300Y913300D01*
X162300Y913300D02*
X162298Y913364D01*
X162293Y913428D01*
X162283Y913491D01*
X162270Y913554D01*
X162254Y913615D01*
X162234Y913676D01*
X162210Y913736D01*
X162183Y913794D01*
X162153Y913850D01*
X162119Y913904D01*
X162082Y913957D01*
X162043Y914007D01*
X162000Y914055D01*
X161955Y914100D01*
X161907Y914143D01*
X161857Y914182D01*
X161804Y914219D01*
X161750Y914253D01*
X161694Y914283D01*
X161636Y914310D01*
X161576Y914334D01*
X161515Y914354D01*
X161454Y914370D01*
X161391Y914383D01*
X161328Y914393D01*
X161264Y914398D01*
X161200Y914400D01*
X175000Y178400D02*
X300000Y178400D01*
X425000Y178400D02*
X685000Y178400D01*
X810000Y178400D01*
X1205000Y178400D02*
X1330000Y178400D01*
X1820000Y178400D02*
X1945000Y178400D01*
X162300Y1640300D02*
X162298Y1640213D01*
X162292Y1640126D01*
X162283Y1640039D01*
X162270Y1639953D01*
X162253Y1639867D01*
X162232Y1639782D01*
X162207Y1639699D01*
X162179Y1639616D01*
X162148Y1639535D01*
X162113Y1639455D01*
X162074Y1639377D01*
X162032Y1639300D01*
X161987Y1639225D01*
X161938Y1639153D01*
X161887Y1639082D01*
X161832Y1639014D01*
X161775Y1638949D01*
X161714Y1638886D01*
X161651Y1638825D01*
X161586Y1638768D01*
X161518Y1638713D01*
X161447Y1638662D01*
X161375Y1638613D01*
X161300Y1638568D01*
X161223Y1638526D01*
X161145Y1638487D01*
X161065Y1638452D01*
X160984Y1638421D01*
X160901Y1638393D01*
X160818Y1638368D01*
X160733Y1638347D01*
X160647Y1638330D01*
X160561Y1638317D01*
X160474Y1638308D01*
X160387Y1638302D01*
X160300Y1638300D01*
X38100Y1638300D01*
X285300Y1638300D02*
X285387Y1638302D01*
X285474Y1638308D01*
X285561Y1638317D01*
X285647Y1638330D01*
X285733Y1638347D01*
X285818Y1638368D01*
X285901Y1638393D01*
X285984Y1638421D01*
X286065Y1638452D01*
X286145Y1638487D01*
X286223Y1638526D01*
X286300Y1638568D01*
X286375Y1638613D01*
X286447Y1638662D01*
X286518Y1638713D01*
X286586Y1638768D01*
X286651Y1638825D01*
X286714Y1638886D01*
X286775Y1638949D01*
X286832Y1639014D01*
X286887Y1639082D01*
X286938Y1639153D01*
X286987Y1639225D01*
X287032Y1639300D01*
X287074Y1639377D01*
X287113Y1639455D01*
X287148Y1639535D01*
X287179Y1639616D01*
X287207Y1639699D01*
X287232Y1639782D01*
X287253Y1639867D01*
X287270Y1639953D01*
X287283Y1640039D01*
X287292Y1640126D01*
X287298Y1640213D01*
X287300Y1640300D01*
X285300Y1638300D02*
X160300Y1638300D01*
X410300Y1638300D02*
X410387Y1638302D01*
X410474Y1638308D01*
X410561Y1638317D01*
X410647Y1638330D01*
X410733Y1638347D01*
X410818Y1638368D01*
X410901Y1638393D01*
X410984Y1638421D01*
X411065Y1638452D01*
X411145Y1638487D01*
X411223Y1638526D01*
X411300Y1638568D01*
X411375Y1638613D01*
X411447Y1638662D01*
X411518Y1638713D01*
X411586Y1638768D01*
X411651Y1638825D01*
X411714Y1638886D01*
X411775Y1638949D01*
X411832Y1639014D01*
X411887Y1639082D01*
X411938Y1639153D01*
X411987Y1639225D01*
X412032Y1639300D01*
X412074Y1639377D01*
X412113Y1639455D01*
X412148Y1639535D01*
X412179Y1639616D01*
X412207Y1639699D01*
X412232Y1639782D01*
X412253Y1639867D01*
X412270Y1639953D01*
X412283Y1640039D01*
X412292Y1640126D01*
X412298Y1640213D01*
X412300Y1640300D01*
X410300Y1638300D02*
X285300Y1638300D01*
X412300Y1640300D02*
X672300Y1640300D01*
X797300Y1640300D01*
X922300Y1640300D01*
X1192300Y1640300D01*
X1317300Y1640300D01*
X1442300Y1640300D01*
X1682300Y1640300D01*
X1807300Y1640300D01*
X1932300Y1640300D01*
X935000Y178400D02*
X810000Y178400D01*
X935000Y178400D02*
X1205000Y178400D01*
X1330000Y178400D02*
X1455000Y178400D01*
X1695000Y178400D01*
X162300Y913300D02*
X162298Y913364D01*
X162293Y913428D01*
X162283Y913491D01*
X162270Y913554D01*
X162254Y913615D01*
X162234Y913676D01*
X162210Y913736D01*
X162183Y913794D01*
X162153Y913850D01*
X162119Y913904D01*
X162082Y913957D01*
X162043Y914007D01*
X162000Y914055D01*
X161955Y914100D01*
X161907Y914143D01*
X161857Y914182D01*
X161804Y914219D01*
X161750Y914253D01*
X161694Y914283D01*
X161636Y914310D01*
X161576Y914334D01*
X161515Y914354D01*
X161454Y914370D01*
X161391Y914383D01*
X161328Y914393D01*
X161264Y914398D01*
X161200Y914400D01*
X38100Y914400D01*
X38100Y203200D01*
X63500Y177800D01*
X174400Y177800D01*
D15*
X1943100Y2971800D03*
D14*
X38100Y2921800D02*
X38100Y2896771D01*
X38100Y2921800D02*
X88100Y2971800D01*
X1943100Y2971800D01*
X175000Y2523800D02*
X175000Y2481600D01*
X300000Y2481600D02*
X300000Y2523800D01*
X425000Y2523800D02*
X425000Y2481600D01*
X822700Y2300800D02*
X884200Y2300800D01*
X685000Y2481600D02*
X685000Y2523800D01*
X810000Y2523800D02*
X810000Y2481600D01*
X935000Y2481600D02*
X935000Y2523800D01*
X1342700Y2300800D02*
X1404200Y2300800D01*
X1342700Y2300800D02*
X1341200Y2300800D01*
X1205000Y2481600D02*
X1205000Y2523800D01*
X1330000Y2523800D02*
X1330000Y2481600D01*
X1455000Y2481600D02*
X1455000Y2523800D01*
X1864600Y2296600D02*
X1864727Y2296602D01*
X1864854Y2296608D01*
X1864980Y2296617D01*
X1865106Y2296631D01*
X1865232Y2296648D01*
X1865357Y2296669D01*
X1865482Y2296694D01*
X1865605Y2296722D01*
X1865728Y2296754D01*
X1865850Y2296790D01*
X1865970Y2296830D01*
X1866089Y2296873D01*
X1866207Y2296920D01*
X1866324Y2296970D01*
X1866439Y2297024D01*
X1866552Y2297081D01*
X1866663Y2297142D01*
X1866773Y2297206D01*
X1866880Y2297273D01*
X1866986Y2297343D01*
X1867089Y2297417D01*
X1867190Y2297494D01*
X1867289Y2297574D01*
X1867385Y2297656D01*
X1867479Y2297742D01*
X1867570Y2297830D01*
X1867658Y2297921D01*
X1867744Y2298015D01*
X1867826Y2298111D01*
X1867906Y2298210D01*
X1867983Y2298311D01*
X1868057Y2298414D01*
X1868127Y2298520D01*
X1868194Y2298627D01*
X1868258Y2298737D01*
X1868319Y2298848D01*
X1868376Y2298961D01*
X1868430Y2299076D01*
X1868480Y2299193D01*
X1868527Y2299311D01*
X1868570Y2299430D01*
X1868610Y2299550D01*
X1868646Y2299672D01*
X1868678Y2299795D01*
X1868706Y2299918D01*
X1868731Y2300043D01*
X1868752Y2300168D01*
X1868769Y2300294D01*
X1868783Y2300420D01*
X1868792Y2300546D01*
X1868798Y2300673D01*
X1868800Y2300800D01*
X1864600Y2296600D02*
X1832700Y2300800D01*
X1695000Y2481600D02*
X1695000Y2523800D01*
X1820000Y2523800D02*
X1820000Y2481600D01*
X1944000Y2481600D02*
X1944000Y2522800D01*
X1945000Y2523800D01*
X254000Y2343150D02*
X254000Y2311060D01*
X258250Y2300800D01*
X254000Y2343150D02*
X260350Y2349500D01*
X774700Y2349500D01*
X1282700Y2349500D01*
X1765300Y2349500D01*
X800800Y2298700D02*
X800697Y2298676D01*
X800594Y2298657D01*
X800490Y2298640D01*
X800385Y2298628D01*
X800280Y2298620D01*
X800174Y2298615D01*
X800069Y2298614D01*
X799964Y2298617D01*
X799858Y2298624D01*
X799754Y2298635D01*
X799649Y2298649D01*
X799545Y2298668D01*
X799442Y2298690D01*
X799340Y2298716D01*
X799239Y2298745D01*
X799139Y2298779D01*
X799040Y2298816D01*
X798943Y2298856D01*
X798847Y2298900D01*
X798753Y2298948D01*
X798661Y2298999D01*
X798570Y2299053D01*
X798482Y2299110D01*
X798396Y2299171D01*
X798312Y2299235D01*
X798230Y2299302D01*
X798151Y2299371D01*
X798075Y2299444D01*
X798001Y2299519D01*
X797930Y2299597D01*
X797862Y2299678D01*
X797797Y2299761D01*
X797735Y2299846D01*
X797676Y2299934D01*
X797621Y2300023D01*
X797568Y2300115D01*
X797519Y2300208D01*
X797474Y2300303D01*
X797432Y2300400D01*
X797394Y2300498D01*
X797359Y2300598D01*
X797328Y2300698D01*
X797300Y2300800D01*
X800800Y2298700D02*
X781050Y2298700D01*
X774700Y2305050D01*
X774700Y2349500D01*
X1309500Y2298700D02*
X1309576Y2298829D01*
X1309656Y2298955D01*
X1309739Y2299080D01*
X1309825Y2299202D01*
X1309914Y2299322D01*
X1310007Y2299439D01*
X1310102Y2299554D01*
X1310201Y2299667D01*
X1310302Y2299777D01*
X1310406Y2299884D01*
X1310513Y2299989D01*
X1310623Y2300090D01*
X1310735Y2300189D01*
X1310850Y2300285D01*
X1310967Y2300377D01*
X1311087Y2300467D01*
X1311209Y2300554D01*
X1311333Y2300637D01*
X1311460Y2300717D01*
X1311588Y2300793D01*
X1311718Y2300867D01*
X1311851Y2300936D01*
X1311985Y2301003D01*
X1312120Y2301065D01*
X1312258Y2301125D01*
X1312397Y2301180D01*
X1312537Y2301232D01*
X1312678Y2301280D01*
X1312821Y2301325D01*
X1312965Y2301366D01*
X1313110Y2301403D01*
X1313256Y2301436D01*
X1313402Y2301465D01*
X1313550Y2301491D01*
X1313698Y2301512D01*
X1313846Y2301530D01*
X1313995Y2301544D01*
X1314144Y2301554D01*
X1314294Y2301560D01*
X1314443Y2301562D01*
X1314593Y2301560D01*
X1314742Y2301555D01*
X1314891Y2301545D01*
X1315040Y2301531D01*
X1315189Y2301514D01*
X1315337Y2301493D01*
X1315484Y2301468D01*
X1315631Y2301439D01*
X1315777Y2301406D01*
X1315922Y2301369D01*
X1316066Y2301329D01*
X1316209Y2301285D01*
X1316350Y2301237D01*
X1316491Y2301185D01*
X1316630Y2301130D01*
X1316767Y2301071D01*
X1316903Y2301009D01*
X1317037Y2300943D01*
X1317170Y2300873D01*
X1317300Y2300800D01*
X1309500Y2298700D02*
X1289050Y2298700D01*
X1282700Y2305050D01*
X1282700Y2349500D01*
X1797400Y2298700D02*
X1797496Y2298844D01*
X1797596Y2298985D01*
X1797698Y2299124D01*
X1797805Y2299261D01*
X1797914Y2299395D01*
X1798027Y2299526D01*
X1798142Y2299654D01*
X1798261Y2299780D01*
X1798383Y2299903D01*
X1798508Y2300022D01*
X1798635Y2300139D01*
X1798766Y2300253D01*
X1798899Y2300363D01*
X1799035Y2300470D01*
X1799173Y2300574D01*
X1799314Y2300675D01*
X1799457Y2300772D01*
X1799602Y2300865D01*
X1799750Y2300955D01*
X1799900Y2301042D01*
X1800052Y2301124D01*
X1800205Y2301203D01*
X1800361Y2301279D01*
X1800518Y2301350D01*
X1800678Y2301418D01*
X1800838Y2301482D01*
X1801001Y2301542D01*
X1801164Y2301598D01*
X1801329Y2301650D01*
X1801495Y2301698D01*
X1801662Y2301742D01*
X1801831Y2301782D01*
X1802000Y2301818D01*
X1802170Y2301849D01*
X1802340Y2301877D01*
X1802512Y2301901D01*
X1802684Y2301920D01*
X1802856Y2301935D01*
X1803028Y2301946D01*
X1803201Y2301953D01*
X1803374Y2301956D01*
X1803547Y2301954D01*
X1803720Y2301949D01*
X1803893Y2301939D01*
X1804065Y2301925D01*
X1804237Y2301907D01*
X1804408Y2301885D01*
X1804579Y2301858D01*
X1804749Y2301828D01*
X1804919Y2301793D01*
X1805087Y2301754D01*
X1805255Y2301711D01*
X1805421Y2301665D01*
X1805587Y2301614D01*
X1805751Y2301559D01*
X1805913Y2301500D01*
X1806075Y2301437D01*
X1806234Y2301371D01*
X1806392Y2301300D01*
X1806548Y2301226D01*
X1806703Y2301148D01*
X1806855Y2301067D01*
X1807006Y2300981D01*
X1807154Y2300892D01*
X1807300Y2300800D01*
X1797400Y2298700D02*
X1771650Y2298700D01*
X1765300Y2305050D01*
X1765300Y2349500D01*
X287300Y88600D02*
X260350Y88600D01*
X254000Y94950D01*
X254000Y133350D01*
X260350Y139700D01*
X774700Y139700D01*
X1778000Y139700D02*
X2019300Y139700D01*
X1778000Y139700D02*
X1295400Y139700D01*
X774700Y139700D01*
D15*
X2044700Y2870200D03*
D14*
X2044700Y1612900D02*
X2044700Y1104900D01*
X2044700Y1612900D02*
X2044700Y2349500D01*
X2044700Y2870200D01*
X247650Y1612900D02*
X241300Y1606550D01*
X247650Y1612900D02*
X749300Y1612900D01*
X1270000Y1612900D01*
X1752600Y1612900D01*
X789200Y1562100D02*
X789104Y1562160D01*
X789005Y1562217D01*
X788904Y1562270D01*
X788802Y1562319D01*
X788698Y1562365D01*
X788593Y1562408D01*
X788486Y1562447D01*
X788378Y1562482D01*
X788269Y1562514D01*
X788158Y1562541D01*
X788047Y1562565D01*
X787936Y1562586D01*
X787823Y1562602D01*
X787710Y1562615D01*
X787597Y1562623D01*
X787483Y1562628D01*
X787369Y1562629D01*
X787256Y1562626D01*
X787142Y1562619D01*
X787029Y1562608D01*
X786916Y1562594D01*
X786804Y1562575D01*
X786693Y1562553D01*
X786582Y1562527D01*
X786472Y1562497D01*
X786364Y1562464D01*
X786256Y1562426D01*
X786150Y1562386D01*
X786046Y1562341D01*
X785943Y1562293D01*
X785841Y1562242D01*
X785742Y1562187D01*
X785644Y1562128D01*
X785549Y1562067D01*
X785455Y1562002D01*
X785364Y1561934D01*
X785276Y1561863D01*
X785189Y1561789D01*
X785106Y1561712D01*
X785025Y1561632D01*
X784946Y1561550D01*
X784871Y1561465D01*
X784798Y1561377D01*
X784729Y1561287D01*
X784663Y1561195D01*
X784600Y1561100D01*
X789200Y1562100D02*
X755650Y1562100D01*
X749300Y1568450D01*
X749300Y1612900D01*
X1270000Y1612900D02*
X1270000Y1568450D01*
X1785800Y1562100D02*
X1785923Y1562196D01*
X1786049Y1562289D01*
X1786177Y1562378D01*
X1786307Y1562464D01*
X1786439Y1562547D01*
X1786574Y1562627D01*
X1786710Y1562703D01*
X1786848Y1562776D01*
X1786988Y1562845D01*
X1787130Y1562911D01*
X1787273Y1562974D01*
X1787417Y1563032D01*
X1787564Y1563087D01*
X1787711Y1563139D01*
X1787860Y1563187D01*
X1788009Y1563231D01*
X1788160Y1563271D01*
X1788312Y1563307D01*
X1788465Y1563340D01*
X1788618Y1563369D01*
X1788772Y1563394D01*
X1788927Y1563415D01*
X1789082Y1563432D01*
X1789238Y1563446D01*
X1789394Y1563456D01*
X1789550Y1563461D01*
X1789706Y1563463D01*
X1789862Y1563461D01*
X1790018Y1563455D01*
X1790174Y1563445D01*
X1790330Y1563431D01*
X1790485Y1563414D01*
X1790639Y1563392D01*
X1790793Y1563367D01*
X1790947Y1563338D01*
X1791099Y1563305D01*
X1791251Y1563268D01*
X1791402Y1563227D01*
X1791552Y1563183D01*
X1791700Y1563135D01*
X1791848Y1563083D01*
X1791994Y1563028D01*
X1792138Y1562969D01*
X1792281Y1562906D01*
X1792423Y1562840D01*
X1792563Y1562771D01*
X1792701Y1562697D01*
X1792837Y1562621D01*
X1792971Y1562541D01*
X1793103Y1562458D01*
X1793233Y1562371D01*
X1793361Y1562282D01*
X1793486Y1562189D01*
X1793610Y1562093D01*
X1793730Y1561994D01*
X1793849Y1561892D01*
X1793964Y1561787D01*
X1794077Y1561679D01*
X1794188Y1561569D01*
X1794295Y1561456D01*
X1794400Y1561340D01*
X1794502Y1561221D01*
X1794600Y1561100D01*
X1785800Y1562100D02*
X1758950Y1562100D01*
X1752600Y1568450D01*
X1752600Y1612900D01*
X2044700Y1104900D02*
X2044851Y1104745D01*
X2044999Y1104586D01*
X2045143Y1104423D01*
X2045283Y1104257D01*
X2045419Y1104088D01*
X2045551Y1103916D01*
X2045678Y1103740D01*
X2045801Y1103562D01*
X2045920Y1103380D01*
X2046035Y1103196D01*
X2046145Y1103009D01*
X2046250Y1102819D01*
X2046351Y1102627D01*
X2046447Y1102432D01*
X2046539Y1102236D01*
X2046626Y1102037D01*
X2046707Y1101836D01*
X2046784Y1101633D01*
X2046856Y1101428D01*
X2046923Y1101222D01*
X2046985Y1101014D01*
X2047042Y1100804D01*
X2047094Y1100594D01*
X2047141Y1100382D01*
X2047183Y1100169D01*
X2047219Y1099955D01*
X2047251Y1099740D01*
X2047277Y1099525D01*
X2047298Y1099309D01*
X2047314Y1099092D01*
X2047324Y1098875D01*
X2047329Y1098659D01*
X2047329Y1098441D01*
X2047324Y1098225D01*
X2047314Y1098008D01*
X2047298Y1097791D01*
X2047277Y1097575D01*
X2047251Y1097360D01*
X2047219Y1097145D01*
X2047183Y1096931D01*
X2047141Y1096718D01*
X2047094Y1096506D01*
X2047042Y1096296D01*
X2046985Y1096086D01*
X2046923Y1095878D01*
X2046856Y1095672D01*
X2046784Y1095467D01*
X2046707Y1095264D01*
X2046626Y1095063D01*
X2046539Y1094864D01*
X2046447Y1094668D01*
X2046351Y1094473D01*
X2046250Y1094281D01*
X2046145Y1094091D01*
X2046035Y1093904D01*
X2045920Y1093720D01*
X2045801Y1093538D01*
X2045678Y1093360D01*
X2045551Y1093184D01*
X2045419Y1093012D01*
X2045283Y1092843D01*
X2045143Y1092677D01*
X2044999Y1092514D01*
X2044851Y1092355D01*
X2044700Y1092200D01*
X274600Y826900D02*
X222250Y826900D01*
X215900Y833250D01*
X215900Y869950D01*
X1257300Y876300D02*
X1752600Y876300D01*
X1257300Y876300D02*
X749300Y876300D01*
X749300Y831850D02*
X755650Y825500D01*
X749300Y831850D02*
X749300Y876300D01*
X1263650Y825500D02*
X1308100Y825500D01*
X1263650Y825500D02*
X1257300Y831850D01*
X1257300Y876300D01*
X1792100Y825500D02*
X1792173Y825502D01*
X1792246Y825508D01*
X1792319Y825517D01*
X1792391Y825531D01*
X1792462Y825548D01*
X1792533Y825569D01*
X1792602Y825593D01*
X1792669Y825621D01*
X1792736Y825653D01*
X1792800Y825688D01*
X1792862Y825726D01*
X1792923Y825767D01*
X1792981Y825812D01*
X1793037Y825860D01*
X1793090Y825910D01*
X1793140Y825963D01*
X1793188Y826019D01*
X1793233Y826077D01*
X1793274Y826138D01*
X1793312Y826200D01*
X1793347Y826264D01*
X1793379Y826331D01*
X1793407Y826398D01*
X1793431Y826467D01*
X1793452Y826538D01*
X1793469Y826609D01*
X1793483Y826681D01*
X1793492Y826754D01*
X1793498Y826827D01*
X1793500Y826900D01*
X1792100Y825500D02*
X1758950Y825500D01*
X1752600Y831850D01*
X1752600Y876300D01*
X2044700Y1092200D02*
X2044700Y1104900D01*
X2044700Y2349500D02*
X1765300Y2349500D01*
X1752600Y1612900D02*
X2044700Y1612900D01*
X2044700Y165100D02*
X2019300Y139700D01*
X2044700Y165100D02*
X2044700Y876300D01*
X2044700Y1092200D01*
X2044700Y876300D02*
X1752600Y876300D01*
X222250Y876300D02*
X215900Y869950D01*
X222250Y876300D02*
X749300Y876300D01*
X1807000Y88900D02*
X1807300Y88600D01*
X1807000Y88900D02*
X1784350Y88900D01*
X1778000Y95250D01*
X1778000Y139700D01*
X1317300Y88600D02*
X1301750Y88600D01*
X1295400Y94950D01*
X1295400Y139700D01*
X797300Y88600D02*
X797000Y88900D01*
X781050Y88900D01*
X774700Y95250D01*
X774700Y139700D01*
X784600Y825500D02*
X755650Y825500D01*
X241300Y1564713D02*
X241300Y1606550D01*
X241300Y1564713D02*
X243714Y1561100D01*
X274600Y1561100D01*
X1277350Y1561100D02*
X1304600Y1561100D01*
X1277350Y1561100D02*
X1270000Y1568450D01*
X287300Y2300800D02*
X258250Y2300800D01*
D16*
X475800Y2300800D02*
X475964Y2300798D01*
X476129Y2300792D01*
X476293Y2300782D01*
X476456Y2300768D01*
X476620Y2300750D01*
X476783Y2300729D01*
X476945Y2300703D01*
X477106Y2300673D01*
X477267Y2300640D01*
X477427Y2300602D01*
X477586Y2300561D01*
X477744Y2300516D01*
X477901Y2300467D01*
X478057Y2300415D01*
X478211Y2300358D01*
X478364Y2300298D01*
X478516Y2300234D01*
X478666Y2300167D01*
X478814Y2300096D01*
X478960Y2300021D01*
X479105Y2299943D01*
X479247Y2299861D01*
X479388Y2299776D01*
X479526Y2299688D01*
X479663Y2299596D01*
X479797Y2299501D01*
X479929Y2299403D01*
X480058Y2299302D01*
X480185Y2299197D01*
X480309Y2299090D01*
X480431Y2298979D01*
X480550Y2298866D01*
X480666Y2298750D01*
X480779Y2298631D01*
X480890Y2298509D01*
X480997Y2298385D01*
X481102Y2298258D01*
X481203Y2298129D01*
X481301Y2297997D01*
X481396Y2297863D01*
X481488Y2297726D01*
X481576Y2297588D01*
X481661Y2297447D01*
X481743Y2297305D01*
X481821Y2297160D01*
X481896Y2297014D01*
X481967Y2296866D01*
X482034Y2296716D01*
X482098Y2296564D01*
X482158Y2296411D01*
X482215Y2296257D01*
X482267Y2296101D01*
X482316Y2295944D01*
X482361Y2295786D01*
X482402Y2295627D01*
X482440Y2295467D01*
X482473Y2295306D01*
X482503Y2295145D01*
X482529Y2294983D01*
X482550Y2294820D01*
X482568Y2294656D01*
X482582Y2294493D01*
X482592Y2294329D01*
X482598Y2294164D01*
X482600Y2294000D01*
X482600Y2254250D01*
X488950Y2247900D01*
X2006600Y2247900D01*
D15*
X2006600Y2247900D03*
D16*
X990600Y2296000D02*
X990598Y2296137D01*
X990592Y2296274D01*
X990582Y2296411D01*
X990569Y2296547D01*
X990551Y2296683D01*
X990530Y2296819D01*
X990504Y2296953D01*
X990475Y2297087D01*
X990442Y2297220D01*
X990406Y2297352D01*
X990365Y2297483D01*
X990321Y2297613D01*
X990273Y2297741D01*
X990221Y2297868D01*
X990166Y2297994D01*
X990108Y2298118D01*
X990045Y2298240D01*
X989980Y2298360D01*
X989910Y2298479D01*
X989838Y2298595D01*
X989762Y2298709D01*
X989683Y2298821D01*
X989601Y2298931D01*
X989516Y2299038D01*
X989428Y2299143D01*
X989336Y2299246D01*
X989242Y2299345D01*
X989145Y2299442D01*
X989046Y2299536D01*
X988943Y2299628D01*
X988838Y2299716D01*
X988731Y2299801D01*
X988621Y2299883D01*
X988509Y2299962D01*
X988395Y2300038D01*
X988279Y2300110D01*
X988160Y2300180D01*
X988040Y2300245D01*
X987918Y2300308D01*
X987794Y2300366D01*
X987668Y2300421D01*
X987541Y2300473D01*
X987413Y2300521D01*
X987283Y2300565D01*
X987152Y2300606D01*
X987020Y2300642D01*
X986887Y2300675D01*
X986753Y2300704D01*
X986619Y2300730D01*
X986483Y2300751D01*
X986347Y2300769D01*
X986211Y2300782D01*
X986074Y2300792D01*
X985937Y2300798D01*
X985800Y2300800D01*
X990600Y2296000D02*
X990600Y2266950D01*
X996950Y2260600D01*
X2006600Y2260600D01*
D15*
X2006600Y2260600D03*
D16*
X1511300Y2295300D02*
X1511298Y2295446D01*
X1511292Y2295593D01*
X1511282Y2295739D01*
X1511269Y2295885D01*
X1511251Y2296030D01*
X1511230Y2296175D01*
X1511205Y2296319D01*
X1511176Y2296463D01*
X1511143Y2296605D01*
X1511106Y2296747D01*
X1511066Y2296888D01*
X1511022Y2297027D01*
X1510974Y2297166D01*
X1510922Y2297303D01*
X1510867Y2297439D01*
X1510808Y2297573D01*
X1510746Y2297705D01*
X1510680Y2297836D01*
X1510611Y2297965D01*
X1510539Y2298092D01*
X1510463Y2298217D01*
X1510383Y2298340D01*
X1510301Y2298461D01*
X1510215Y2298580D01*
X1510126Y2298696D01*
X1510034Y2298810D01*
X1509939Y2298922D01*
X1509841Y2299031D01*
X1509741Y2299137D01*
X1509637Y2299241D01*
X1509531Y2299341D01*
X1509422Y2299439D01*
X1509310Y2299534D01*
X1509196Y2299626D01*
X1509080Y2299715D01*
X1508961Y2299801D01*
X1508840Y2299883D01*
X1508717Y2299963D01*
X1508592Y2300039D01*
X1508465Y2300111D01*
X1508336Y2300180D01*
X1508205Y2300246D01*
X1508073Y2300308D01*
X1507939Y2300367D01*
X1507803Y2300422D01*
X1507666Y2300474D01*
X1507527Y2300522D01*
X1507388Y2300566D01*
X1507247Y2300606D01*
X1507105Y2300643D01*
X1506963Y2300676D01*
X1506819Y2300705D01*
X1506675Y2300730D01*
X1506530Y2300751D01*
X1506385Y2300769D01*
X1506239Y2300782D01*
X1506093Y2300792D01*
X1505946Y2300798D01*
X1505800Y2300800D01*
X1511300Y2295300D02*
X1511300Y2279650D01*
X1517650Y2273300D01*
X2006600Y2273300D01*
D15*
X2006600Y2273300D03*
D16*
X2006600Y2298700D02*
X1972500Y2298700D01*
D15*
X2006600Y2298700D03*
D14*
X1972500Y2298700D02*
X1970400Y2300800D01*
X361500Y1561100D02*
X300000Y1561100D01*
X162300Y1741900D02*
X162300Y1784100D01*
X287300Y1784100D02*
X287300Y1741900D01*
X412300Y1741900D02*
X412300Y1784100D01*
X810000Y1561100D02*
X871500Y1561100D01*
X672300Y1741900D02*
X672300Y1784100D01*
X797300Y1784100D02*
X797300Y1741900D01*
X922300Y1741900D02*
X922300Y1784100D01*
X1330000Y1561100D02*
X1391500Y1561100D01*
X1192300Y1741900D02*
X1192300Y1784100D01*
X1317300Y1784100D02*
X1317300Y1741900D01*
X1442300Y1741900D02*
X1442300Y1784100D01*
X1820000Y1561100D02*
X1856100Y1561100D01*
X1682300Y1741900D02*
X1682300Y1784100D01*
X1807300Y1784100D02*
X1807300Y1741900D01*
X1932300Y1741900D02*
X1932300Y1784100D01*
D16*
X469900Y1554300D02*
X469898Y1554464D01*
X469892Y1554629D01*
X469882Y1554793D01*
X469868Y1554956D01*
X469850Y1555120D01*
X469829Y1555283D01*
X469803Y1555445D01*
X469773Y1555606D01*
X469740Y1555767D01*
X469702Y1555927D01*
X469661Y1556086D01*
X469616Y1556244D01*
X469567Y1556401D01*
X469515Y1556557D01*
X469458Y1556711D01*
X469398Y1556864D01*
X469334Y1557016D01*
X469267Y1557166D01*
X469196Y1557314D01*
X469121Y1557460D01*
X469043Y1557605D01*
X468961Y1557747D01*
X468876Y1557888D01*
X468788Y1558026D01*
X468696Y1558163D01*
X468601Y1558297D01*
X468503Y1558429D01*
X468402Y1558558D01*
X468297Y1558685D01*
X468190Y1558809D01*
X468079Y1558931D01*
X467966Y1559050D01*
X467850Y1559166D01*
X467731Y1559279D01*
X467609Y1559390D01*
X467485Y1559497D01*
X467358Y1559602D01*
X467229Y1559703D01*
X467097Y1559801D01*
X466963Y1559896D01*
X466826Y1559988D01*
X466688Y1560076D01*
X466547Y1560161D01*
X466405Y1560243D01*
X466260Y1560321D01*
X466114Y1560396D01*
X465966Y1560467D01*
X465816Y1560534D01*
X465664Y1560598D01*
X465511Y1560658D01*
X465357Y1560715D01*
X465201Y1560767D01*
X465044Y1560816D01*
X464886Y1560861D01*
X464727Y1560902D01*
X464567Y1560940D01*
X464406Y1560973D01*
X464245Y1561003D01*
X464083Y1561029D01*
X463920Y1561050D01*
X463756Y1561068D01*
X463593Y1561082D01*
X463429Y1561092D01*
X463264Y1561098D01*
X463100Y1561100D01*
X469900Y1554300D02*
X469900Y1517650D01*
X476250Y1511300D01*
X1993900Y1511300D01*
D15*
X1993900Y1511300D03*
D16*
X977900Y1556300D02*
X977898Y1556437D01*
X977892Y1556574D01*
X977882Y1556711D01*
X977869Y1556847D01*
X977851Y1556983D01*
X977830Y1557119D01*
X977804Y1557253D01*
X977775Y1557387D01*
X977742Y1557520D01*
X977706Y1557652D01*
X977665Y1557783D01*
X977621Y1557913D01*
X977573Y1558041D01*
X977521Y1558168D01*
X977466Y1558294D01*
X977408Y1558418D01*
X977345Y1558540D01*
X977280Y1558660D01*
X977210Y1558779D01*
X977138Y1558895D01*
X977062Y1559009D01*
X976983Y1559121D01*
X976901Y1559231D01*
X976816Y1559338D01*
X976728Y1559443D01*
X976636Y1559546D01*
X976542Y1559645D01*
X976445Y1559742D01*
X976346Y1559836D01*
X976243Y1559928D01*
X976138Y1560016D01*
X976031Y1560101D01*
X975921Y1560183D01*
X975809Y1560262D01*
X975695Y1560338D01*
X975579Y1560410D01*
X975460Y1560480D01*
X975340Y1560545D01*
X975218Y1560608D01*
X975094Y1560666D01*
X974968Y1560721D01*
X974841Y1560773D01*
X974713Y1560821D01*
X974583Y1560865D01*
X974452Y1560906D01*
X974320Y1560942D01*
X974187Y1560975D01*
X974053Y1561004D01*
X973919Y1561030D01*
X973783Y1561051D01*
X973647Y1561069D01*
X973511Y1561082D01*
X973374Y1561092D01*
X973237Y1561098D01*
X973100Y1561100D01*
X977900Y1556300D02*
X977900Y1530350D01*
X984250Y1524000D01*
X1993900Y1524000D01*
D15*
X1993900Y1524000D03*
D16*
X1498600Y1555600D02*
X1498598Y1555746D01*
X1498592Y1555893D01*
X1498582Y1556039D01*
X1498569Y1556185D01*
X1498551Y1556330D01*
X1498530Y1556475D01*
X1498505Y1556619D01*
X1498476Y1556763D01*
X1498443Y1556905D01*
X1498406Y1557047D01*
X1498366Y1557188D01*
X1498322Y1557327D01*
X1498274Y1557466D01*
X1498222Y1557603D01*
X1498167Y1557739D01*
X1498108Y1557873D01*
X1498046Y1558005D01*
X1497980Y1558136D01*
X1497911Y1558265D01*
X1497839Y1558392D01*
X1497763Y1558517D01*
X1497683Y1558640D01*
X1497601Y1558761D01*
X1497515Y1558880D01*
X1497426Y1558996D01*
X1497334Y1559110D01*
X1497239Y1559222D01*
X1497141Y1559331D01*
X1497041Y1559437D01*
X1496937Y1559541D01*
X1496831Y1559641D01*
X1496722Y1559739D01*
X1496610Y1559834D01*
X1496496Y1559926D01*
X1496380Y1560015D01*
X1496261Y1560101D01*
X1496140Y1560183D01*
X1496017Y1560263D01*
X1495892Y1560339D01*
X1495765Y1560411D01*
X1495636Y1560480D01*
X1495505Y1560546D01*
X1495373Y1560608D01*
X1495239Y1560667D01*
X1495103Y1560722D01*
X1494966Y1560774D01*
X1494827Y1560822D01*
X1494688Y1560866D01*
X1494547Y1560906D01*
X1494405Y1560943D01*
X1494263Y1560976D01*
X1494119Y1561005D01*
X1493975Y1561030D01*
X1493830Y1561051D01*
X1493685Y1561069D01*
X1493539Y1561082D01*
X1493393Y1561092D01*
X1493246Y1561098D01*
X1493100Y1561100D01*
X1498600Y1555600D02*
X1498600Y1543050D01*
X1504950Y1536700D01*
X1993900Y1536700D01*
D15*
X1993900Y1536700D03*
D16*
X1958700Y1562100D02*
X1958640Y1562098D01*
X1958579Y1562093D01*
X1958520Y1562084D01*
X1958461Y1562071D01*
X1958402Y1562055D01*
X1958345Y1562035D01*
X1958290Y1562012D01*
X1958235Y1561985D01*
X1958183Y1561956D01*
X1958132Y1561923D01*
X1958083Y1561887D01*
X1958037Y1561849D01*
X1957993Y1561807D01*
X1957951Y1561763D01*
X1957913Y1561717D01*
X1957877Y1561668D01*
X1957844Y1561617D01*
X1957815Y1561565D01*
X1957788Y1561510D01*
X1957765Y1561455D01*
X1957745Y1561398D01*
X1957729Y1561339D01*
X1957716Y1561280D01*
X1957707Y1561221D01*
X1957702Y1561160D01*
X1957700Y1561100D01*
X1958700Y1562100D02*
X1993900Y1562100D01*
D15*
X1993900Y1562100D03*
D14*
X348800Y824100D02*
X298400Y824100D01*
X300000Y826900D01*
X162300Y1014900D02*
X162300Y1057100D01*
X287300Y1057100D02*
X287300Y1014900D01*
X412300Y1014900D02*
X412300Y1057100D01*
X820400Y824100D02*
X871500Y824100D01*
X820400Y824100D02*
X810000Y825500D01*
X672300Y1014900D02*
X672300Y1057100D01*
X797300Y1057100D02*
X797300Y1014900D01*
X922300Y1014900D02*
X922300Y1057100D01*
X1333500Y825500D02*
X1334900Y824100D01*
X1391500Y824100D01*
X1192300Y1014900D02*
X1192300Y1057100D01*
X1317300Y1057100D02*
X1317300Y1014900D01*
X1442300Y1014900D02*
X1442300Y1057100D01*
X1818900Y826900D02*
X1821700Y824100D01*
X1821595Y824102D01*
X1821491Y824108D01*
X1821386Y824118D01*
X1821283Y824131D01*
X1821179Y824149D01*
X1821077Y824170D01*
X1820975Y824195D01*
X1820875Y824224D01*
X1820775Y824257D01*
X1820677Y824294D01*
X1820580Y824334D01*
X1820485Y824377D01*
X1820392Y824424D01*
X1820300Y824475D01*
X1820210Y824529D01*
X1820123Y824587D01*
X1820037Y824647D01*
X1819954Y824711D01*
X1819874Y824778D01*
X1819796Y824847D01*
X1819720Y824920D01*
X1819647Y824996D01*
X1819578Y825074D01*
X1819511Y825154D01*
X1819447Y825237D01*
X1819387Y825323D01*
X1819329Y825410D01*
X1819275Y825500D01*
X1819224Y825592D01*
X1819177Y825685D01*
X1819134Y825780D01*
X1819094Y825877D01*
X1819057Y825975D01*
X1819024Y826075D01*
X1818995Y826175D01*
X1818970Y826277D01*
X1818949Y826379D01*
X1818931Y826483D01*
X1818918Y826586D01*
X1818908Y826691D01*
X1818902Y826795D01*
X1818900Y826900D01*
X1821700Y824100D02*
X1868800Y824100D01*
X1682300Y1014900D02*
X1682300Y1057100D01*
X1807300Y1057100D02*
X1807300Y1014900D01*
X1932300Y1014900D02*
X1932300Y1057100D01*
D16*
X457200Y817300D02*
X457198Y817464D01*
X457192Y817629D01*
X457182Y817793D01*
X457168Y817956D01*
X457150Y818120D01*
X457129Y818283D01*
X457103Y818445D01*
X457073Y818606D01*
X457040Y818767D01*
X457002Y818927D01*
X456961Y819086D01*
X456916Y819244D01*
X456867Y819401D01*
X456815Y819557D01*
X456758Y819711D01*
X456698Y819864D01*
X456634Y820016D01*
X456567Y820166D01*
X456496Y820314D01*
X456421Y820460D01*
X456343Y820605D01*
X456261Y820747D01*
X456176Y820888D01*
X456088Y821026D01*
X455996Y821163D01*
X455901Y821297D01*
X455803Y821429D01*
X455702Y821558D01*
X455597Y821685D01*
X455490Y821809D01*
X455379Y821931D01*
X455266Y822050D01*
X455150Y822166D01*
X455031Y822279D01*
X454909Y822390D01*
X454785Y822497D01*
X454658Y822602D01*
X454529Y822703D01*
X454397Y822801D01*
X454263Y822896D01*
X454126Y822988D01*
X453988Y823076D01*
X453847Y823161D01*
X453705Y823243D01*
X453560Y823321D01*
X453414Y823396D01*
X453266Y823467D01*
X453116Y823534D01*
X452964Y823598D01*
X452811Y823658D01*
X452657Y823715D01*
X452501Y823767D01*
X452344Y823816D01*
X452186Y823861D01*
X452027Y823902D01*
X451867Y823940D01*
X451706Y823973D01*
X451545Y824003D01*
X451383Y824029D01*
X451220Y824050D01*
X451056Y824068D01*
X450893Y824082D01*
X450729Y824092D01*
X450564Y824098D01*
X450400Y824100D01*
X457200Y817300D02*
X457200Y781050D01*
X463550Y774700D01*
X1993900Y774700D01*
D15*
X1993900Y774700D03*
D16*
X977900Y819300D02*
X977898Y819437D01*
X977892Y819574D01*
X977882Y819711D01*
X977869Y819847D01*
X977851Y819983D01*
X977830Y820119D01*
X977804Y820253D01*
X977775Y820387D01*
X977742Y820520D01*
X977706Y820652D01*
X977665Y820783D01*
X977621Y820913D01*
X977573Y821041D01*
X977521Y821168D01*
X977466Y821294D01*
X977408Y821418D01*
X977345Y821540D01*
X977280Y821660D01*
X977210Y821779D01*
X977138Y821895D01*
X977062Y822009D01*
X976983Y822121D01*
X976901Y822231D01*
X976816Y822338D01*
X976728Y822443D01*
X976636Y822546D01*
X976542Y822645D01*
X976445Y822742D01*
X976346Y822836D01*
X976243Y822928D01*
X976138Y823016D01*
X976031Y823101D01*
X975921Y823183D01*
X975809Y823262D01*
X975695Y823338D01*
X975579Y823410D01*
X975460Y823480D01*
X975340Y823545D01*
X975218Y823608D01*
X975094Y823666D01*
X974968Y823721D01*
X974841Y823773D01*
X974713Y823821D01*
X974583Y823865D01*
X974452Y823906D01*
X974320Y823942D01*
X974187Y823975D01*
X974053Y824004D01*
X973919Y824030D01*
X973783Y824051D01*
X973647Y824069D01*
X973511Y824082D01*
X973374Y824092D01*
X973237Y824098D01*
X973100Y824100D01*
X977900Y819300D02*
X977900Y793750D01*
X984250Y787400D01*
X1993900Y787400D01*
D15*
X1993900Y787400D03*
D16*
X1498600Y818600D02*
X1498598Y818746D01*
X1498592Y818893D01*
X1498582Y819039D01*
X1498569Y819185D01*
X1498551Y819330D01*
X1498530Y819475D01*
X1498505Y819619D01*
X1498476Y819763D01*
X1498443Y819905D01*
X1498406Y820047D01*
X1498366Y820188D01*
X1498322Y820327D01*
X1498274Y820466D01*
X1498222Y820603D01*
X1498167Y820739D01*
X1498108Y820873D01*
X1498046Y821005D01*
X1497980Y821136D01*
X1497911Y821265D01*
X1497839Y821392D01*
X1497763Y821517D01*
X1497683Y821640D01*
X1497601Y821761D01*
X1497515Y821880D01*
X1497426Y821996D01*
X1497334Y822110D01*
X1497239Y822222D01*
X1497141Y822331D01*
X1497041Y822437D01*
X1496937Y822541D01*
X1496831Y822641D01*
X1496722Y822739D01*
X1496610Y822834D01*
X1496496Y822926D01*
X1496380Y823015D01*
X1496261Y823101D01*
X1496140Y823183D01*
X1496017Y823263D01*
X1495892Y823339D01*
X1495765Y823411D01*
X1495636Y823480D01*
X1495505Y823546D01*
X1495373Y823608D01*
X1495239Y823667D01*
X1495103Y823722D01*
X1494966Y823774D01*
X1494827Y823822D01*
X1494688Y823866D01*
X1494547Y823906D01*
X1494405Y823943D01*
X1494263Y823976D01*
X1494119Y824005D01*
X1493975Y824030D01*
X1493830Y824051D01*
X1493685Y824069D01*
X1493539Y824082D01*
X1493393Y824092D01*
X1493246Y824098D01*
X1493100Y824100D01*
X1498600Y818600D02*
X1498600Y806450D01*
X1504950Y800100D01*
X1993900Y800100D01*
D15*
X1993900Y800100D03*
D16*
X1970400Y824100D02*
X1970402Y824173D01*
X1970408Y824246D01*
X1970417Y824319D01*
X1970431Y824391D01*
X1970448Y824462D01*
X1970469Y824533D01*
X1970493Y824602D01*
X1970521Y824669D01*
X1970553Y824736D01*
X1970588Y824800D01*
X1970626Y824862D01*
X1970667Y824923D01*
X1970712Y824981D01*
X1970760Y825037D01*
X1970810Y825090D01*
X1970863Y825140D01*
X1970919Y825188D01*
X1970977Y825233D01*
X1971038Y825274D01*
X1971100Y825312D01*
X1971164Y825347D01*
X1971231Y825379D01*
X1971298Y825407D01*
X1971367Y825431D01*
X1971438Y825452D01*
X1971509Y825469D01*
X1971581Y825483D01*
X1971654Y825492D01*
X1971727Y825498D01*
X1971800Y825500D01*
X1993900Y825500D01*
D15*
X1993900Y825500D03*
D14*
X374200Y89200D02*
X373600Y88600D01*
X312700Y88600D01*
X175000Y280000D02*
X175000Y322200D01*
X300000Y322200D02*
X300000Y280000D01*
X425000Y280000D02*
X425000Y322200D01*
X822700Y88600D02*
X828900Y89200D01*
X884200Y89200D01*
X685000Y280000D02*
X685000Y322200D01*
X810000Y322200D02*
X810000Y280000D01*
X935000Y280000D02*
X935000Y322200D01*
X1342700Y88600D02*
X1350300Y89200D01*
X1404200Y89200D01*
X1205000Y280000D02*
X1205000Y322200D01*
X1330000Y322200D02*
X1330000Y280000D01*
X1455000Y280000D02*
X1455000Y322200D01*
X1832700Y88600D02*
X1880900Y88600D01*
X1881500Y89200D01*
X1695000Y280000D02*
X1695000Y322200D01*
X1820000Y322200D02*
X1820000Y280000D01*
X1945000Y280000D02*
X1945000Y322200D01*
D16*
X482600Y82400D02*
X482598Y82564D01*
X482592Y82729D01*
X482582Y82893D01*
X482568Y83056D01*
X482550Y83220D01*
X482529Y83383D01*
X482503Y83545D01*
X482473Y83706D01*
X482440Y83867D01*
X482402Y84027D01*
X482361Y84186D01*
X482316Y84344D01*
X482267Y84501D01*
X482215Y84657D01*
X482158Y84811D01*
X482098Y84964D01*
X482034Y85116D01*
X481967Y85266D01*
X481896Y85414D01*
X481821Y85560D01*
X481743Y85705D01*
X481661Y85847D01*
X481576Y85988D01*
X481488Y86126D01*
X481396Y86263D01*
X481301Y86397D01*
X481203Y86529D01*
X481102Y86658D01*
X480997Y86785D01*
X480890Y86909D01*
X480779Y87031D01*
X480666Y87150D01*
X480550Y87266D01*
X480431Y87379D01*
X480309Y87490D01*
X480185Y87597D01*
X480058Y87702D01*
X479929Y87803D01*
X479797Y87901D01*
X479663Y87996D01*
X479526Y88088D01*
X479388Y88176D01*
X479247Y88261D01*
X479105Y88343D01*
X478960Y88421D01*
X478814Y88496D01*
X478666Y88567D01*
X478516Y88634D01*
X478364Y88698D01*
X478211Y88758D01*
X478057Y88815D01*
X477901Y88867D01*
X477744Y88916D01*
X477586Y88961D01*
X477427Y89002D01*
X477267Y89040D01*
X477106Y89073D01*
X476945Y89103D01*
X476783Y89129D01*
X476620Y89150D01*
X476456Y89168D01*
X476293Y89182D01*
X476129Y89192D01*
X475964Y89198D01*
X475800Y89200D01*
X482600Y82400D02*
X482600Y44450D01*
X488950Y38100D01*
X2019300Y38100D01*
D15*
X2019300Y38100D03*
D16*
X990600Y84400D02*
X990598Y84537D01*
X990592Y84674D01*
X990582Y84811D01*
X990569Y84947D01*
X990551Y85083D01*
X990530Y85219D01*
X990504Y85353D01*
X990475Y85487D01*
X990442Y85620D01*
X990406Y85752D01*
X990365Y85883D01*
X990321Y86013D01*
X990273Y86141D01*
X990221Y86268D01*
X990166Y86394D01*
X990108Y86518D01*
X990045Y86640D01*
X989980Y86760D01*
X989910Y86879D01*
X989838Y86995D01*
X989762Y87109D01*
X989683Y87221D01*
X989601Y87331D01*
X989516Y87438D01*
X989428Y87543D01*
X989336Y87646D01*
X989242Y87745D01*
X989145Y87842D01*
X989046Y87936D01*
X988943Y88028D01*
X988838Y88116D01*
X988731Y88201D01*
X988621Y88283D01*
X988509Y88362D01*
X988395Y88438D01*
X988279Y88510D01*
X988160Y88580D01*
X988040Y88645D01*
X987918Y88708D01*
X987794Y88766D01*
X987668Y88821D01*
X987541Y88873D01*
X987413Y88921D01*
X987283Y88965D01*
X987152Y89006D01*
X987020Y89042D01*
X986887Y89075D01*
X986753Y89104D01*
X986619Y89130D01*
X986483Y89151D01*
X986347Y89169D01*
X986211Y89182D01*
X986074Y89192D01*
X985937Y89198D01*
X985800Y89200D01*
X990600Y84400D02*
X990600Y57150D01*
X996950Y50800D01*
X2019300Y50800D01*
D15*
X2019300Y50800D03*
D16*
X1511300Y83700D02*
X1511298Y83846D01*
X1511292Y83993D01*
X1511282Y84139D01*
X1511269Y84285D01*
X1511251Y84430D01*
X1511230Y84575D01*
X1511205Y84719D01*
X1511176Y84863D01*
X1511143Y85005D01*
X1511106Y85147D01*
X1511066Y85288D01*
X1511022Y85427D01*
X1510974Y85566D01*
X1510922Y85703D01*
X1510867Y85839D01*
X1510808Y85973D01*
X1510746Y86105D01*
X1510680Y86236D01*
X1510611Y86365D01*
X1510539Y86492D01*
X1510463Y86617D01*
X1510383Y86740D01*
X1510301Y86861D01*
X1510215Y86980D01*
X1510126Y87096D01*
X1510034Y87210D01*
X1509939Y87322D01*
X1509841Y87431D01*
X1509741Y87537D01*
X1509637Y87641D01*
X1509531Y87741D01*
X1509422Y87839D01*
X1509310Y87934D01*
X1509196Y88026D01*
X1509080Y88115D01*
X1508961Y88201D01*
X1508840Y88283D01*
X1508717Y88363D01*
X1508592Y88439D01*
X1508465Y88511D01*
X1508336Y88580D01*
X1508205Y88646D01*
X1508073Y88708D01*
X1507939Y88767D01*
X1507803Y88822D01*
X1507666Y88874D01*
X1507527Y88922D01*
X1507388Y88966D01*
X1507247Y89006D01*
X1507105Y89043D01*
X1506963Y89076D01*
X1506819Y89105D01*
X1506675Y89130D01*
X1506530Y89151D01*
X1506385Y89169D01*
X1506239Y89182D01*
X1506093Y89192D01*
X1505946Y89198D01*
X1505800Y89200D01*
X1511300Y83700D02*
X1511300Y69850D01*
X1517650Y63500D01*
X2019300Y63500D01*
D15*
X2019300Y63500D03*
D16*
X1996100Y88900D02*
X1995938Y88748D01*
X1995771Y88601D01*
X1995602Y88457D01*
X1995429Y88318D01*
X1995252Y88183D01*
X1995073Y88052D01*
X1994890Y87926D01*
X1994704Y87804D01*
X1994516Y87686D01*
X1994324Y87573D01*
X1994130Y87465D01*
X1993933Y87362D01*
X1993734Y87263D01*
X1993533Y87169D01*
X1993329Y87080D01*
X1993124Y86996D01*
X1992916Y86917D01*
X1992706Y86843D01*
X1992495Y86774D01*
X1992282Y86711D01*
X1992068Y86652D01*
X1991852Y86599D01*
X1991635Y86550D01*
X1991417Y86507D01*
X1991198Y86470D01*
X1990979Y86437D01*
X1990758Y86410D01*
X1990537Y86389D01*
X1990315Y86372D01*
X1990093Y86361D01*
X1989871Y86356D01*
X1989649Y86356D01*
X1989427Y86361D01*
X1989205Y86371D01*
X1988983Y86387D01*
X1988762Y86408D01*
X1988541Y86435D01*
X1988322Y86467D01*
X1988102Y86504D01*
X1987884Y86546D01*
X1987667Y86594D01*
X1987452Y86647D01*
X1987237Y86705D01*
X1987024Y86768D01*
X1986813Y86837D01*
X1986603Y86910D01*
X1986395Y86989D01*
X1986189Y87072D01*
X1985985Y87161D01*
X1985784Y87254D01*
X1985585Y87353D01*
X1985388Y87456D01*
X1985193Y87563D01*
X1985002Y87676D01*
X1984813Y87793D01*
X1984627Y87914D01*
X1984444Y88041D01*
X1984264Y88171D01*
X1984087Y88306D01*
X1983914Y88445D01*
X1983744Y88588D01*
X1983577Y88735D01*
X1983414Y88886D01*
X1983255Y89041D01*
X1983100Y89200D01*
X1996100Y88900D02*
X2019300Y88900D01*
D15*
X2019300Y88900D03*
D16*
X685000Y2777800D02*
X685055Y2777802D01*
X685109Y2777807D01*
X685163Y2777817D01*
X685216Y2777830D01*
X685268Y2777846D01*
X685319Y2777866D01*
X685368Y2777890D01*
X685416Y2777916D01*
X685461Y2777946D01*
X685505Y2777979D01*
X685546Y2778015D01*
X685585Y2778054D01*
X685621Y2778095D01*
X685654Y2778139D01*
X685684Y2778184D01*
X685710Y2778232D01*
X685734Y2778281D01*
X685754Y2778332D01*
X685770Y2778384D01*
X685783Y2778437D01*
X685793Y2778491D01*
X685798Y2778545D01*
X685800Y2778600D01*
X685800Y2882900D01*
X711200Y2908300D01*
X1993900Y2908300D01*
D15*
X1993900Y2908300D03*
D16*
X812800Y2780600D02*
X812798Y2780495D01*
X812792Y2780391D01*
X812782Y2780286D01*
X812769Y2780183D01*
X812751Y2780079D01*
X812730Y2779977D01*
X812705Y2779875D01*
X812676Y2779775D01*
X812643Y2779675D01*
X812606Y2779577D01*
X812566Y2779480D01*
X812523Y2779385D01*
X812476Y2779292D01*
X812425Y2779200D01*
X812371Y2779110D01*
X812313Y2779023D01*
X812253Y2778937D01*
X812189Y2778854D01*
X812122Y2778774D01*
X812053Y2778696D01*
X811980Y2778620D01*
X811904Y2778547D01*
X811826Y2778478D01*
X811746Y2778411D01*
X811663Y2778347D01*
X811577Y2778287D01*
X811490Y2778229D01*
X811400Y2778175D01*
X811308Y2778124D01*
X811215Y2778077D01*
X811120Y2778034D01*
X811023Y2777994D01*
X810925Y2777957D01*
X810825Y2777924D01*
X810725Y2777895D01*
X810623Y2777870D01*
X810521Y2777849D01*
X810417Y2777831D01*
X810314Y2777818D01*
X810209Y2777808D01*
X810105Y2777802D01*
X810000Y2777800D01*
X812800Y2780600D02*
X812800Y2870200D01*
X838200Y2895600D01*
X1993900Y2895600D01*
D15*
X1993900Y2895600D03*
D16*
X939800Y2782600D02*
X939798Y2782463D01*
X939792Y2782326D01*
X939782Y2782189D01*
X939769Y2782053D01*
X939751Y2781917D01*
X939730Y2781781D01*
X939704Y2781647D01*
X939675Y2781513D01*
X939642Y2781380D01*
X939606Y2781248D01*
X939565Y2781117D01*
X939521Y2780987D01*
X939473Y2780859D01*
X939421Y2780732D01*
X939366Y2780606D01*
X939308Y2780482D01*
X939245Y2780360D01*
X939180Y2780240D01*
X939110Y2780121D01*
X939038Y2780005D01*
X938962Y2779891D01*
X938883Y2779779D01*
X938801Y2779669D01*
X938716Y2779562D01*
X938628Y2779457D01*
X938536Y2779354D01*
X938442Y2779255D01*
X938345Y2779158D01*
X938246Y2779064D01*
X938143Y2778972D01*
X938038Y2778884D01*
X937931Y2778799D01*
X937821Y2778717D01*
X937709Y2778638D01*
X937595Y2778562D01*
X937479Y2778490D01*
X937360Y2778420D01*
X937240Y2778355D01*
X937118Y2778292D01*
X936994Y2778234D01*
X936868Y2778179D01*
X936741Y2778127D01*
X936613Y2778079D01*
X936483Y2778035D01*
X936352Y2777994D01*
X936220Y2777958D01*
X936087Y2777925D01*
X935953Y2777896D01*
X935819Y2777870D01*
X935683Y2777849D01*
X935547Y2777831D01*
X935411Y2777818D01*
X935274Y2777808D01*
X935137Y2777802D01*
X935000Y2777800D01*
X939800Y2782600D02*
X939800Y2857500D01*
X965200Y2882900D01*
X1993900Y2882900D01*
D15*
X1993900Y2882900D03*
D16*
X177800Y2780600D02*
X177798Y2780495D01*
X177792Y2780391D01*
X177782Y2780286D01*
X177769Y2780183D01*
X177751Y2780079D01*
X177730Y2779977D01*
X177705Y2779875D01*
X177676Y2779775D01*
X177643Y2779675D01*
X177606Y2779577D01*
X177566Y2779480D01*
X177523Y2779385D01*
X177476Y2779292D01*
X177425Y2779200D01*
X177371Y2779110D01*
X177313Y2779023D01*
X177253Y2778937D01*
X177189Y2778854D01*
X177122Y2778774D01*
X177053Y2778696D01*
X176980Y2778620D01*
X176904Y2778547D01*
X176826Y2778478D01*
X176746Y2778411D01*
X176663Y2778347D01*
X176577Y2778287D01*
X176490Y2778229D01*
X176400Y2778175D01*
X176308Y2778124D01*
X176215Y2778077D01*
X176120Y2778034D01*
X176023Y2777994D01*
X175925Y2777957D01*
X175825Y2777924D01*
X175725Y2777895D01*
X175623Y2777870D01*
X175521Y2777849D01*
X175417Y2777831D01*
X175314Y2777818D01*
X175209Y2777808D01*
X175105Y2777802D01*
X175000Y2777800D01*
X177800Y2780600D02*
X177800Y2921000D01*
X203200Y2946400D01*
X1993900Y2946400D01*
D15*
X1993900Y2946400D03*
D16*
X304800Y2782600D02*
X304798Y2782463D01*
X304792Y2782326D01*
X304782Y2782189D01*
X304769Y2782053D01*
X304751Y2781917D01*
X304730Y2781781D01*
X304704Y2781647D01*
X304675Y2781513D01*
X304642Y2781380D01*
X304606Y2781248D01*
X304565Y2781117D01*
X304521Y2780987D01*
X304473Y2780859D01*
X304421Y2780732D01*
X304366Y2780606D01*
X304308Y2780482D01*
X304245Y2780360D01*
X304180Y2780240D01*
X304110Y2780121D01*
X304038Y2780005D01*
X303962Y2779891D01*
X303883Y2779779D01*
X303801Y2779669D01*
X303716Y2779562D01*
X303628Y2779457D01*
X303536Y2779354D01*
X303442Y2779255D01*
X303345Y2779158D01*
X303246Y2779064D01*
X303143Y2778972D01*
X303038Y2778884D01*
X302931Y2778799D01*
X302821Y2778717D01*
X302709Y2778638D01*
X302595Y2778562D01*
X302479Y2778490D01*
X302360Y2778420D01*
X302240Y2778355D01*
X302118Y2778292D01*
X301994Y2778234D01*
X301868Y2778179D01*
X301741Y2778127D01*
X301613Y2778079D01*
X301483Y2778035D01*
X301352Y2777994D01*
X301220Y2777958D01*
X301087Y2777925D01*
X300953Y2777896D01*
X300819Y2777870D01*
X300683Y2777849D01*
X300547Y2777831D01*
X300411Y2777818D01*
X300274Y2777808D01*
X300137Y2777802D01*
X300000Y2777800D01*
X304800Y2782600D02*
X304800Y2908300D01*
X330200Y2933700D01*
X1993900Y2933700D01*
D15*
X1993900Y2933700D03*
D16*
X425000Y2777800D02*
X424848Y2777802D01*
X424696Y2777808D01*
X424545Y2777818D01*
X424393Y2777831D01*
X424242Y2777849D01*
X424092Y2777870D01*
X423942Y2777896D01*
X423793Y2777925D01*
X423645Y2777958D01*
X423497Y2777995D01*
X423351Y2778035D01*
X423206Y2778079D01*
X423062Y2778128D01*
X422919Y2778179D01*
X422777Y2778235D01*
X422637Y2778294D01*
X422499Y2778356D01*
X422362Y2778423D01*
X422227Y2778492D01*
X422094Y2778565D01*
X421963Y2778642D01*
X421833Y2778722D01*
X421706Y2778805D01*
X421581Y2778891D01*
X421459Y2778981D01*
X421338Y2779074D01*
X421221Y2779170D01*
X421105Y2779268D01*
X420992Y2779370D01*
X420882Y2779475D01*
X420775Y2779582D01*
X420670Y2779692D01*
X420568Y2779805D01*
X420470Y2779921D01*
X420374Y2780038D01*
X420281Y2780159D01*
X420191Y2780281D01*
X420105Y2780406D01*
X420022Y2780533D01*
X419942Y2780663D01*
X419865Y2780794D01*
X419792Y2780927D01*
X419723Y2781062D01*
X419656Y2781199D01*
X419594Y2781337D01*
X419535Y2781477D01*
X419479Y2781619D01*
X419428Y2781762D01*
X419379Y2781906D01*
X419335Y2782051D01*
X419295Y2782197D01*
X419258Y2782345D01*
X419225Y2782493D01*
X419196Y2782642D01*
X419170Y2782792D01*
X419149Y2782942D01*
X419131Y2783093D01*
X419118Y2783245D01*
X419108Y2783396D01*
X419102Y2783548D01*
X419100Y2783700D01*
X419100Y2895600D01*
X444500Y2921000D01*
X1993900Y2921000D01*
D15*
X1993900Y2921000D03*
D16*
X1206500Y2779300D02*
X1206498Y2779224D01*
X1206492Y2779148D01*
X1206483Y2779073D01*
X1206469Y2778998D01*
X1206452Y2778924D01*
X1206431Y2778851D01*
X1206407Y2778779D01*
X1206378Y2778708D01*
X1206347Y2778639D01*
X1206312Y2778572D01*
X1206273Y2778507D01*
X1206231Y2778443D01*
X1206186Y2778382D01*
X1206138Y2778323D01*
X1206087Y2778267D01*
X1206033Y2778213D01*
X1205977Y2778162D01*
X1205918Y2778114D01*
X1205857Y2778069D01*
X1205793Y2778027D01*
X1205728Y2777988D01*
X1205661Y2777953D01*
X1205592Y2777922D01*
X1205521Y2777893D01*
X1205449Y2777869D01*
X1205376Y2777848D01*
X1205302Y2777831D01*
X1205227Y2777817D01*
X1205152Y2777808D01*
X1205076Y2777802D01*
X1205000Y2777800D01*
X1206500Y2779300D02*
X1206500Y2844800D01*
X1231900Y2870200D01*
X1993900Y2870200D01*
D15*
X1993900Y2870200D03*
D16*
X1460500Y2783300D02*
X1460498Y2783154D01*
X1460492Y2783007D01*
X1460482Y2782861D01*
X1460469Y2782715D01*
X1460451Y2782570D01*
X1460430Y2782425D01*
X1460405Y2782281D01*
X1460376Y2782137D01*
X1460343Y2781995D01*
X1460306Y2781853D01*
X1460266Y2781712D01*
X1460222Y2781573D01*
X1460174Y2781434D01*
X1460122Y2781297D01*
X1460067Y2781161D01*
X1460008Y2781027D01*
X1459946Y2780895D01*
X1459880Y2780764D01*
X1459811Y2780635D01*
X1459739Y2780508D01*
X1459663Y2780383D01*
X1459583Y2780260D01*
X1459501Y2780139D01*
X1459415Y2780020D01*
X1459326Y2779904D01*
X1459234Y2779790D01*
X1459139Y2779678D01*
X1459041Y2779569D01*
X1458941Y2779463D01*
X1458837Y2779359D01*
X1458731Y2779259D01*
X1458622Y2779161D01*
X1458510Y2779066D01*
X1458396Y2778974D01*
X1458280Y2778885D01*
X1458161Y2778799D01*
X1458040Y2778717D01*
X1457917Y2778637D01*
X1457792Y2778561D01*
X1457665Y2778489D01*
X1457536Y2778420D01*
X1457405Y2778354D01*
X1457273Y2778292D01*
X1457139Y2778233D01*
X1457003Y2778178D01*
X1456866Y2778126D01*
X1456727Y2778078D01*
X1456588Y2778034D01*
X1456447Y2777994D01*
X1456305Y2777957D01*
X1456163Y2777924D01*
X1456019Y2777895D01*
X1455875Y2777870D01*
X1455730Y2777849D01*
X1455585Y2777831D01*
X1455439Y2777818D01*
X1455293Y2777808D01*
X1455146Y2777802D01*
X1455000Y2777800D01*
X1460500Y2783300D02*
X1460500Y2819400D01*
X1485900Y2844800D01*
X1993900Y2844800D01*
D15*
X1993900Y2844800D03*
D16*
X1333500Y2781300D02*
X1333498Y2781183D01*
X1333492Y2781066D01*
X1333482Y2780950D01*
X1333469Y2780833D01*
X1333451Y2780718D01*
X1333430Y2780603D01*
X1333405Y2780489D01*
X1333376Y2780375D01*
X1333343Y2780263D01*
X1333306Y2780152D01*
X1333266Y2780042D01*
X1333222Y2779934D01*
X1333175Y2779827D01*
X1333124Y2779721D01*
X1333069Y2779618D01*
X1333011Y2779516D01*
X1332950Y2779417D01*
X1332886Y2779319D01*
X1332818Y2779224D01*
X1332747Y2779131D01*
X1332673Y2779040D01*
X1332596Y2778952D01*
X1332516Y2778867D01*
X1332433Y2778784D01*
X1332348Y2778704D01*
X1332260Y2778627D01*
X1332169Y2778553D01*
X1332076Y2778482D01*
X1331981Y2778414D01*
X1331883Y2778350D01*
X1331784Y2778289D01*
X1331682Y2778231D01*
X1331579Y2778176D01*
X1331473Y2778125D01*
X1331366Y2778078D01*
X1331258Y2778034D01*
X1331148Y2777994D01*
X1331037Y2777957D01*
X1330925Y2777924D01*
X1330811Y2777895D01*
X1330697Y2777870D01*
X1330582Y2777849D01*
X1330467Y2777831D01*
X1330350Y2777818D01*
X1330234Y2777808D01*
X1330117Y2777802D01*
X1330000Y2777800D01*
X1333500Y2781300D02*
X1333500Y2832100D01*
X1358900Y2857500D01*
X1993900Y2857500D01*
D15*
X1993900Y2857500D03*
D16*
X1701800Y2784600D02*
X1701798Y2784436D01*
X1701792Y2784271D01*
X1701782Y2784107D01*
X1701768Y2783944D01*
X1701750Y2783780D01*
X1701729Y2783617D01*
X1701703Y2783455D01*
X1701673Y2783294D01*
X1701640Y2783133D01*
X1701602Y2782973D01*
X1701561Y2782814D01*
X1701516Y2782656D01*
X1701467Y2782499D01*
X1701415Y2782343D01*
X1701358Y2782189D01*
X1701298Y2782036D01*
X1701234Y2781884D01*
X1701167Y2781734D01*
X1701096Y2781586D01*
X1701021Y2781440D01*
X1700943Y2781295D01*
X1700861Y2781153D01*
X1700776Y2781012D01*
X1700688Y2780874D01*
X1700596Y2780737D01*
X1700501Y2780603D01*
X1700403Y2780471D01*
X1700302Y2780342D01*
X1700197Y2780215D01*
X1700090Y2780091D01*
X1699979Y2779969D01*
X1699866Y2779850D01*
X1699750Y2779734D01*
X1699631Y2779621D01*
X1699509Y2779510D01*
X1699385Y2779403D01*
X1699258Y2779298D01*
X1699129Y2779197D01*
X1698997Y2779099D01*
X1698863Y2779004D01*
X1698726Y2778912D01*
X1698588Y2778824D01*
X1698447Y2778739D01*
X1698305Y2778657D01*
X1698160Y2778579D01*
X1698014Y2778504D01*
X1697866Y2778433D01*
X1697716Y2778366D01*
X1697564Y2778302D01*
X1697411Y2778242D01*
X1697257Y2778185D01*
X1697101Y2778133D01*
X1696944Y2778084D01*
X1696786Y2778039D01*
X1696627Y2777998D01*
X1696467Y2777960D01*
X1696306Y2777927D01*
X1696145Y2777897D01*
X1695983Y2777871D01*
X1695820Y2777850D01*
X1695656Y2777832D01*
X1695493Y2777818D01*
X1695329Y2777808D01*
X1695164Y2777802D01*
X1695000Y2777800D01*
X1701800Y2784600D02*
X1701800Y2806700D01*
X1727200Y2832100D01*
X1993900Y2832100D01*
D15*
X1993900Y2832100D03*
D16*
X1820000Y2777800D02*
X1819877Y2777802D01*
X1819755Y2777808D01*
X1819633Y2777817D01*
X1819511Y2777831D01*
X1819390Y2777848D01*
X1819269Y2777869D01*
X1819149Y2777894D01*
X1819030Y2777923D01*
X1818912Y2777955D01*
X1818795Y2777991D01*
X1818679Y2778031D01*
X1818564Y2778074D01*
X1818451Y2778121D01*
X1818339Y2778171D01*
X1818229Y2778225D01*
X1818121Y2778282D01*
X1818015Y2778343D01*
X1817910Y2778407D01*
X1817808Y2778474D01*
X1817708Y2778545D01*
X1817610Y2778618D01*
X1817514Y2778695D01*
X1817421Y2778775D01*
X1817330Y2778857D01*
X1817242Y2778942D01*
X1817157Y2779030D01*
X1817075Y2779121D01*
X1816995Y2779214D01*
X1816918Y2779310D01*
X1816845Y2779408D01*
X1816774Y2779508D01*
X1816707Y2779610D01*
X1816643Y2779715D01*
X1816582Y2779821D01*
X1816525Y2779929D01*
X1816471Y2780039D01*
X1816421Y2780151D01*
X1816374Y2780264D01*
X1816331Y2780379D01*
X1816291Y2780495D01*
X1816255Y2780612D01*
X1816223Y2780730D01*
X1816194Y2780849D01*
X1816169Y2780969D01*
X1816148Y2781090D01*
X1816131Y2781211D01*
X1816117Y2781333D01*
X1816108Y2781455D01*
X1816102Y2781577D01*
X1816100Y2781700D01*
X1816100Y2794000D01*
X1841500Y2819400D01*
X1993900Y2819400D01*
D15*
X1993900Y2819400D03*
D16*
X1945000Y2777800D02*
X1943100Y2779700D01*
X1943100Y2794000D01*
X1955800Y2806700D01*
X1993900Y2806700D01*
D15*
X1993900Y2806700D03*
D16*
X1676400Y2044000D02*
X1676402Y2043848D01*
X1676408Y2043696D01*
X1676418Y2043545D01*
X1676431Y2043393D01*
X1676449Y2043242D01*
X1676470Y2043092D01*
X1676496Y2042942D01*
X1676525Y2042793D01*
X1676558Y2042645D01*
X1676595Y2042497D01*
X1676635Y2042351D01*
X1676679Y2042206D01*
X1676728Y2042062D01*
X1676779Y2041919D01*
X1676835Y2041777D01*
X1676894Y2041637D01*
X1676956Y2041499D01*
X1677023Y2041362D01*
X1677092Y2041227D01*
X1677165Y2041094D01*
X1677242Y2040963D01*
X1677322Y2040833D01*
X1677405Y2040706D01*
X1677491Y2040581D01*
X1677581Y2040459D01*
X1677674Y2040338D01*
X1677770Y2040221D01*
X1677868Y2040105D01*
X1677970Y2039992D01*
X1678075Y2039882D01*
X1678182Y2039775D01*
X1678292Y2039670D01*
X1678405Y2039568D01*
X1678521Y2039470D01*
X1678638Y2039374D01*
X1678759Y2039281D01*
X1678881Y2039191D01*
X1679006Y2039105D01*
X1679133Y2039022D01*
X1679263Y2038942D01*
X1679394Y2038865D01*
X1679527Y2038792D01*
X1679662Y2038723D01*
X1679799Y2038656D01*
X1679937Y2038594D01*
X1680077Y2038535D01*
X1680219Y2038479D01*
X1680362Y2038428D01*
X1680506Y2038379D01*
X1680651Y2038335D01*
X1680797Y2038295D01*
X1680945Y2038258D01*
X1681093Y2038225D01*
X1681242Y2038196D01*
X1681392Y2038170D01*
X1681542Y2038149D01*
X1681693Y2038131D01*
X1681845Y2038118D01*
X1681996Y2038108D01*
X1682148Y2038102D01*
X1682300Y2038100D01*
X1676400Y2044000D02*
X1676400Y2070100D01*
X1701800Y2095500D01*
X1993900Y2095500D01*
D15*
X1993900Y2095500D03*
D16*
X1807300Y2038100D02*
X1807177Y2038102D01*
X1807055Y2038108D01*
X1806933Y2038117D01*
X1806811Y2038131D01*
X1806690Y2038148D01*
X1806569Y2038169D01*
X1806449Y2038194D01*
X1806330Y2038223D01*
X1806212Y2038255D01*
X1806095Y2038291D01*
X1805979Y2038331D01*
X1805864Y2038374D01*
X1805751Y2038421D01*
X1805639Y2038471D01*
X1805529Y2038525D01*
X1805421Y2038582D01*
X1805315Y2038643D01*
X1805210Y2038707D01*
X1805108Y2038774D01*
X1805008Y2038845D01*
X1804910Y2038918D01*
X1804814Y2038995D01*
X1804721Y2039075D01*
X1804630Y2039157D01*
X1804542Y2039242D01*
X1804457Y2039330D01*
X1804375Y2039421D01*
X1804295Y2039514D01*
X1804218Y2039610D01*
X1804145Y2039708D01*
X1804074Y2039808D01*
X1804007Y2039910D01*
X1803943Y2040015D01*
X1803882Y2040121D01*
X1803825Y2040229D01*
X1803771Y2040339D01*
X1803721Y2040451D01*
X1803674Y2040564D01*
X1803631Y2040679D01*
X1803591Y2040795D01*
X1803555Y2040912D01*
X1803523Y2041030D01*
X1803494Y2041149D01*
X1803469Y2041269D01*
X1803448Y2041390D01*
X1803431Y2041511D01*
X1803417Y2041633D01*
X1803408Y2041755D01*
X1803402Y2041877D01*
X1803400Y2042000D01*
X1803400Y2057400D01*
X1828800Y2082800D01*
X1993900Y2082800D01*
D15*
X1993900Y2082800D03*
D16*
X1932300Y2038100D02*
X1932215Y2038102D01*
X1932130Y2038108D01*
X1932045Y2038117D01*
X1931961Y2038131D01*
X1931877Y2038148D01*
X1931795Y2038168D01*
X1931713Y2038193D01*
X1931632Y2038221D01*
X1931553Y2038253D01*
X1931476Y2038288D01*
X1931400Y2038327D01*
X1931325Y2038369D01*
X1931253Y2038414D01*
X1931183Y2038463D01*
X1931115Y2038515D01*
X1931050Y2038569D01*
X1930987Y2038627D01*
X1930927Y2038687D01*
X1930869Y2038750D01*
X1930815Y2038815D01*
X1930763Y2038883D01*
X1930714Y2038953D01*
X1930669Y2039025D01*
X1930627Y2039100D01*
X1930588Y2039176D01*
X1930553Y2039253D01*
X1930521Y2039332D01*
X1930493Y2039413D01*
X1930468Y2039495D01*
X1930448Y2039577D01*
X1930431Y2039661D01*
X1930417Y2039745D01*
X1930408Y2039830D01*
X1930402Y2039915D01*
X1930400Y2040000D01*
X1930400Y2057400D01*
X1943100Y2070100D01*
X1993900Y2070100D01*
D15*
X1993900Y2070100D03*
D16*
X1442300Y2038100D02*
X1442126Y2038102D01*
X1441952Y2038108D01*
X1441778Y2038119D01*
X1441605Y2038134D01*
X1441432Y2038152D01*
X1441260Y2038176D01*
X1441088Y2038203D01*
X1440917Y2038234D01*
X1440746Y2038270D01*
X1440577Y2038309D01*
X1440409Y2038353D01*
X1440241Y2038401D01*
X1440075Y2038452D01*
X1439910Y2038508D01*
X1439747Y2038568D01*
X1439585Y2038632D01*
X1439425Y2038699D01*
X1439266Y2038771D01*
X1439109Y2038846D01*
X1438954Y2038925D01*
X1438801Y2039007D01*
X1438650Y2039094D01*
X1438501Y2039184D01*
X1438354Y2039277D01*
X1438210Y2039375D01*
X1438068Y2039475D01*
X1437928Y2039579D01*
X1437791Y2039686D01*
X1437657Y2039797D01*
X1437526Y2039911D01*
X1437397Y2040028D01*
X1437271Y2040148D01*
X1437148Y2040271D01*
X1437028Y2040397D01*
X1436911Y2040526D01*
X1436797Y2040657D01*
X1436686Y2040791D01*
X1436579Y2040928D01*
X1436475Y2041068D01*
X1436375Y2041210D01*
X1436277Y2041354D01*
X1436184Y2041501D01*
X1436094Y2041650D01*
X1436007Y2041801D01*
X1435925Y2041954D01*
X1435846Y2042109D01*
X1435771Y2042266D01*
X1435699Y2042425D01*
X1435632Y2042585D01*
X1435568Y2042747D01*
X1435508Y2042910D01*
X1435452Y2043075D01*
X1435401Y2043241D01*
X1435353Y2043409D01*
X1435309Y2043577D01*
X1435270Y2043746D01*
X1435234Y2043917D01*
X1435203Y2044088D01*
X1435176Y2044260D01*
X1435152Y2044432D01*
X1435134Y2044605D01*
X1435119Y2044778D01*
X1435108Y2044952D01*
X1435102Y2045126D01*
X1435100Y2045300D01*
X1435100Y2082800D01*
X1460500Y2108200D01*
X1993900Y2108200D01*
D15*
X1993900Y2108200D03*
D16*
X1320800Y2041600D02*
X1320798Y2041483D01*
X1320792Y2041366D01*
X1320782Y2041250D01*
X1320769Y2041133D01*
X1320751Y2041018D01*
X1320730Y2040903D01*
X1320705Y2040789D01*
X1320676Y2040675D01*
X1320643Y2040563D01*
X1320606Y2040452D01*
X1320566Y2040342D01*
X1320522Y2040234D01*
X1320475Y2040127D01*
X1320424Y2040021D01*
X1320369Y2039918D01*
X1320311Y2039816D01*
X1320250Y2039717D01*
X1320186Y2039619D01*
X1320118Y2039524D01*
X1320047Y2039431D01*
X1319973Y2039340D01*
X1319896Y2039252D01*
X1319816Y2039167D01*
X1319733Y2039084D01*
X1319648Y2039004D01*
X1319560Y2038927D01*
X1319469Y2038853D01*
X1319376Y2038782D01*
X1319281Y2038714D01*
X1319183Y2038650D01*
X1319084Y2038589D01*
X1318982Y2038531D01*
X1318879Y2038476D01*
X1318773Y2038425D01*
X1318666Y2038378D01*
X1318558Y2038334D01*
X1318448Y2038294D01*
X1318337Y2038257D01*
X1318225Y2038224D01*
X1318111Y2038195D01*
X1317997Y2038170D01*
X1317882Y2038149D01*
X1317767Y2038131D01*
X1317650Y2038118D01*
X1317534Y2038108D01*
X1317417Y2038102D01*
X1317300Y2038100D01*
X1320800Y2041600D02*
X1320800Y2095500D01*
X1346200Y2120900D01*
X1993900Y2120900D01*
D15*
X1993900Y2120900D03*
D16*
X1193800Y2039600D02*
X1193798Y2039524D01*
X1193792Y2039448D01*
X1193783Y2039373D01*
X1193769Y2039298D01*
X1193752Y2039224D01*
X1193731Y2039151D01*
X1193707Y2039079D01*
X1193678Y2039008D01*
X1193647Y2038939D01*
X1193612Y2038872D01*
X1193573Y2038807D01*
X1193531Y2038743D01*
X1193486Y2038682D01*
X1193438Y2038623D01*
X1193387Y2038567D01*
X1193333Y2038513D01*
X1193277Y2038462D01*
X1193218Y2038414D01*
X1193157Y2038369D01*
X1193093Y2038327D01*
X1193028Y2038288D01*
X1192961Y2038253D01*
X1192892Y2038222D01*
X1192821Y2038193D01*
X1192749Y2038169D01*
X1192676Y2038148D01*
X1192602Y2038131D01*
X1192527Y2038117D01*
X1192452Y2038108D01*
X1192376Y2038102D01*
X1192300Y2038100D01*
X1193800Y2039600D02*
X1193800Y2108200D01*
X1219200Y2133600D01*
X1993900Y2133600D01*
D15*
X1993900Y2133600D03*
D16*
X927100Y2042900D02*
X927098Y2042763D01*
X927092Y2042626D01*
X927082Y2042489D01*
X927069Y2042353D01*
X927051Y2042217D01*
X927030Y2042081D01*
X927004Y2041947D01*
X926975Y2041813D01*
X926942Y2041680D01*
X926906Y2041548D01*
X926865Y2041417D01*
X926821Y2041287D01*
X926773Y2041159D01*
X926721Y2041032D01*
X926666Y2040906D01*
X926608Y2040782D01*
X926545Y2040660D01*
X926480Y2040540D01*
X926410Y2040421D01*
X926338Y2040305D01*
X926262Y2040191D01*
X926183Y2040079D01*
X926101Y2039969D01*
X926016Y2039862D01*
X925928Y2039757D01*
X925836Y2039654D01*
X925742Y2039555D01*
X925645Y2039458D01*
X925546Y2039364D01*
X925443Y2039272D01*
X925338Y2039184D01*
X925231Y2039099D01*
X925121Y2039017D01*
X925009Y2038938D01*
X924895Y2038862D01*
X924779Y2038790D01*
X924660Y2038720D01*
X924540Y2038655D01*
X924418Y2038592D01*
X924294Y2038534D01*
X924168Y2038479D01*
X924041Y2038427D01*
X923913Y2038379D01*
X923783Y2038335D01*
X923652Y2038294D01*
X923520Y2038258D01*
X923387Y2038225D01*
X923253Y2038196D01*
X923119Y2038170D01*
X922983Y2038149D01*
X922847Y2038131D01*
X922711Y2038118D01*
X922574Y2038108D01*
X922437Y2038102D01*
X922300Y2038100D01*
X927100Y2042900D02*
X927100Y2120900D01*
X952500Y2146300D01*
X1993900Y2146300D01*
D15*
X1993900Y2146300D03*
D16*
X800100Y2040900D02*
X800098Y2040795D01*
X800092Y2040691D01*
X800082Y2040586D01*
X800069Y2040483D01*
X800051Y2040379D01*
X800030Y2040277D01*
X800005Y2040175D01*
X799976Y2040075D01*
X799943Y2039975D01*
X799906Y2039877D01*
X799866Y2039780D01*
X799823Y2039685D01*
X799776Y2039592D01*
X799725Y2039500D01*
X799671Y2039410D01*
X799613Y2039323D01*
X799553Y2039237D01*
X799489Y2039154D01*
X799422Y2039074D01*
X799353Y2038996D01*
X799280Y2038920D01*
X799204Y2038847D01*
X799126Y2038778D01*
X799046Y2038711D01*
X798963Y2038647D01*
X798877Y2038587D01*
X798790Y2038529D01*
X798700Y2038475D01*
X798608Y2038424D01*
X798515Y2038377D01*
X798420Y2038334D01*
X798323Y2038294D01*
X798225Y2038257D01*
X798125Y2038224D01*
X798025Y2038195D01*
X797923Y2038170D01*
X797821Y2038149D01*
X797717Y2038131D01*
X797614Y2038118D01*
X797509Y2038108D01*
X797405Y2038102D01*
X797300Y2038100D01*
X800100Y2040900D02*
X800100Y2133600D01*
X825500Y2159000D01*
X1993900Y2159000D01*
D15*
X1993900Y2159000D03*
D16*
X673100Y2038900D02*
X673098Y2038845D01*
X673093Y2038791D01*
X673083Y2038737D01*
X673070Y2038684D01*
X673054Y2038632D01*
X673034Y2038581D01*
X673010Y2038532D01*
X672984Y2038484D01*
X672954Y2038439D01*
X672921Y2038395D01*
X672885Y2038354D01*
X672846Y2038315D01*
X672805Y2038279D01*
X672761Y2038246D01*
X672716Y2038216D01*
X672668Y2038190D01*
X672619Y2038166D01*
X672568Y2038146D01*
X672516Y2038130D01*
X672463Y2038117D01*
X672409Y2038107D01*
X672355Y2038102D01*
X672300Y2038100D01*
X673100Y2038900D02*
X673100Y2146300D01*
X698500Y2171700D01*
X1993900Y2171700D01*
D15*
X1993900Y2171700D03*
D16*
X431800Y583000D02*
X431798Y582836D01*
X431792Y582671D01*
X431782Y582507D01*
X431768Y582344D01*
X431750Y582180D01*
X431729Y582017D01*
X431703Y581855D01*
X431673Y581694D01*
X431640Y581533D01*
X431602Y581373D01*
X431561Y581214D01*
X431516Y581056D01*
X431467Y580899D01*
X431415Y580743D01*
X431358Y580589D01*
X431298Y580436D01*
X431234Y580284D01*
X431167Y580134D01*
X431096Y579986D01*
X431021Y579840D01*
X430943Y579695D01*
X430861Y579553D01*
X430776Y579412D01*
X430688Y579274D01*
X430596Y579137D01*
X430501Y579003D01*
X430403Y578871D01*
X430302Y578742D01*
X430197Y578615D01*
X430090Y578491D01*
X429979Y578369D01*
X429866Y578250D01*
X429750Y578134D01*
X429631Y578021D01*
X429509Y577910D01*
X429385Y577803D01*
X429258Y577698D01*
X429129Y577597D01*
X428997Y577499D01*
X428863Y577404D01*
X428726Y577312D01*
X428588Y577224D01*
X428447Y577139D01*
X428305Y577057D01*
X428160Y576979D01*
X428014Y576904D01*
X427866Y576833D01*
X427716Y576766D01*
X427564Y576702D01*
X427411Y576642D01*
X427257Y576585D01*
X427101Y576533D01*
X426944Y576484D01*
X426786Y576439D01*
X426627Y576398D01*
X426467Y576360D01*
X426306Y576327D01*
X426145Y576297D01*
X425983Y576271D01*
X425820Y576250D01*
X425656Y576232D01*
X425493Y576218D01*
X425329Y576208D01*
X425164Y576202D01*
X425000Y576200D01*
X431800Y583000D02*
X431800Y698500D01*
X457200Y723900D01*
X1981200Y723900D01*
D15*
X1981200Y723900D03*
D16*
X304800Y581000D02*
X304798Y580863D01*
X304792Y580726D01*
X304782Y580589D01*
X304769Y580453D01*
X304751Y580317D01*
X304730Y580181D01*
X304704Y580047D01*
X304675Y579913D01*
X304642Y579780D01*
X304606Y579648D01*
X304565Y579517D01*
X304521Y579387D01*
X304473Y579259D01*
X304421Y579132D01*
X304366Y579006D01*
X304308Y578882D01*
X304245Y578760D01*
X304180Y578640D01*
X304110Y578521D01*
X304038Y578405D01*
X303962Y578291D01*
X303883Y578179D01*
X303801Y578069D01*
X303716Y577962D01*
X303628Y577857D01*
X303536Y577754D01*
X303442Y577655D01*
X303345Y577558D01*
X303246Y577464D01*
X303143Y577372D01*
X303038Y577284D01*
X302931Y577199D01*
X302821Y577117D01*
X302709Y577038D01*
X302595Y576962D01*
X302479Y576890D01*
X302360Y576820D01*
X302240Y576755D01*
X302118Y576692D01*
X301994Y576634D01*
X301868Y576579D01*
X301741Y576527D01*
X301613Y576479D01*
X301483Y576435D01*
X301352Y576394D01*
X301220Y576358D01*
X301087Y576325D01*
X300953Y576296D01*
X300819Y576270D01*
X300683Y576249D01*
X300547Y576231D01*
X300411Y576218D01*
X300274Y576208D01*
X300137Y576202D01*
X300000Y576200D01*
X304800Y581000D02*
X304800Y711200D01*
X330200Y736600D01*
X1981200Y736600D01*
D15*
X1981200Y736600D03*
D16*
X177800Y579000D02*
X177798Y578895D01*
X177792Y578791D01*
X177782Y578686D01*
X177769Y578583D01*
X177751Y578479D01*
X177730Y578377D01*
X177705Y578275D01*
X177676Y578175D01*
X177643Y578075D01*
X177606Y577977D01*
X177566Y577880D01*
X177523Y577785D01*
X177476Y577692D01*
X177425Y577600D01*
X177371Y577510D01*
X177313Y577423D01*
X177253Y577337D01*
X177189Y577254D01*
X177122Y577174D01*
X177053Y577096D01*
X176980Y577020D01*
X176904Y576947D01*
X176826Y576878D01*
X176746Y576811D01*
X176663Y576747D01*
X176577Y576687D01*
X176490Y576629D01*
X176400Y576575D01*
X176308Y576524D01*
X176215Y576477D01*
X176120Y576434D01*
X176023Y576394D01*
X175925Y576357D01*
X175825Y576324D01*
X175725Y576295D01*
X175623Y576270D01*
X175521Y576249D01*
X175417Y576231D01*
X175314Y576218D01*
X175209Y576208D01*
X175105Y576202D01*
X175000Y576200D01*
X177800Y579000D02*
X177800Y723900D01*
X203200Y749300D01*
X1981200Y749300D01*
D15*
X1981200Y749300D03*
D16*
X685800Y577000D02*
X685798Y576945D01*
X685793Y576891D01*
X685783Y576837D01*
X685770Y576784D01*
X685754Y576732D01*
X685734Y576681D01*
X685710Y576632D01*
X685684Y576584D01*
X685654Y576539D01*
X685621Y576495D01*
X685585Y576454D01*
X685546Y576415D01*
X685505Y576379D01*
X685461Y576346D01*
X685416Y576316D01*
X685368Y576290D01*
X685319Y576266D01*
X685268Y576246D01*
X685216Y576230D01*
X685163Y576217D01*
X685109Y576207D01*
X685055Y576202D01*
X685000Y576200D01*
X685800Y577000D02*
X685800Y685800D01*
X711200Y711200D01*
X1981200Y711200D01*
D15*
X1981200Y711200D03*
D16*
X812800Y579000D02*
X812798Y578895D01*
X812792Y578791D01*
X812782Y578686D01*
X812769Y578583D01*
X812751Y578479D01*
X812730Y578377D01*
X812705Y578275D01*
X812676Y578175D01*
X812643Y578075D01*
X812606Y577977D01*
X812566Y577880D01*
X812523Y577785D01*
X812476Y577692D01*
X812425Y577600D01*
X812371Y577510D01*
X812313Y577423D01*
X812253Y577337D01*
X812189Y577254D01*
X812122Y577174D01*
X812053Y577096D01*
X811980Y577020D01*
X811904Y576947D01*
X811826Y576878D01*
X811746Y576811D01*
X811663Y576747D01*
X811577Y576687D01*
X811490Y576629D01*
X811400Y576575D01*
X811308Y576524D01*
X811215Y576477D01*
X811120Y576434D01*
X811023Y576394D01*
X810925Y576357D01*
X810825Y576324D01*
X810725Y576295D01*
X810623Y576270D01*
X810521Y576249D01*
X810417Y576231D01*
X810314Y576218D01*
X810209Y576208D01*
X810105Y576202D01*
X810000Y576200D01*
X812800Y579000D02*
X812800Y673100D01*
X838200Y698500D01*
X1981200Y698500D01*
D15*
X1981200Y698500D03*
D16*
X939800Y581000D02*
X939798Y580863D01*
X939792Y580726D01*
X939782Y580589D01*
X939769Y580453D01*
X939751Y580317D01*
X939730Y580181D01*
X939704Y580047D01*
X939675Y579913D01*
X939642Y579780D01*
X939606Y579648D01*
X939565Y579517D01*
X939521Y579387D01*
X939473Y579259D01*
X939421Y579132D01*
X939366Y579006D01*
X939308Y578882D01*
X939245Y578760D01*
X939180Y578640D01*
X939110Y578521D01*
X939038Y578405D01*
X938962Y578291D01*
X938883Y578179D01*
X938801Y578069D01*
X938716Y577962D01*
X938628Y577857D01*
X938536Y577754D01*
X938442Y577655D01*
X938345Y577558D01*
X938246Y577464D01*
X938143Y577372D01*
X938038Y577284D01*
X937931Y577199D01*
X937821Y577117D01*
X937709Y577038D01*
X937595Y576962D01*
X937479Y576890D01*
X937360Y576820D01*
X937240Y576755D01*
X937118Y576692D01*
X936994Y576634D01*
X936868Y576579D01*
X936741Y576527D01*
X936613Y576479D01*
X936483Y576435D01*
X936352Y576394D01*
X936220Y576358D01*
X936087Y576325D01*
X935953Y576296D01*
X935819Y576270D01*
X935683Y576249D01*
X935547Y576231D01*
X935411Y576218D01*
X935274Y576208D01*
X935137Y576202D01*
X935000Y576200D01*
X939800Y581000D02*
X939800Y660400D01*
X965200Y685800D01*
X1981200Y685800D01*
D15*
X1981200Y685800D03*
D16*
X1206500Y577700D02*
X1206498Y577624D01*
X1206492Y577548D01*
X1206483Y577473D01*
X1206469Y577398D01*
X1206452Y577324D01*
X1206431Y577251D01*
X1206407Y577179D01*
X1206378Y577108D01*
X1206347Y577039D01*
X1206312Y576972D01*
X1206273Y576907D01*
X1206231Y576843D01*
X1206186Y576782D01*
X1206138Y576723D01*
X1206087Y576667D01*
X1206033Y576613D01*
X1205977Y576562D01*
X1205918Y576514D01*
X1205857Y576469D01*
X1205793Y576427D01*
X1205728Y576388D01*
X1205661Y576353D01*
X1205592Y576322D01*
X1205521Y576293D01*
X1205449Y576269D01*
X1205376Y576248D01*
X1205302Y576231D01*
X1205227Y576217D01*
X1205152Y576208D01*
X1205076Y576202D01*
X1205000Y576200D01*
X1206500Y577700D02*
X1206500Y647700D01*
X1231900Y673100D01*
X1981200Y673100D01*
D15*
X1981200Y673100D03*
D16*
X1333500Y579700D02*
X1333498Y579583D01*
X1333492Y579466D01*
X1333482Y579350D01*
X1333469Y579233D01*
X1333451Y579118D01*
X1333430Y579003D01*
X1333405Y578889D01*
X1333376Y578775D01*
X1333343Y578663D01*
X1333306Y578552D01*
X1333266Y578442D01*
X1333222Y578334D01*
X1333175Y578227D01*
X1333124Y578121D01*
X1333069Y578018D01*
X1333011Y577916D01*
X1332950Y577817D01*
X1332886Y577719D01*
X1332818Y577624D01*
X1332747Y577531D01*
X1332673Y577440D01*
X1332596Y577352D01*
X1332516Y577267D01*
X1332433Y577184D01*
X1332348Y577104D01*
X1332260Y577027D01*
X1332169Y576953D01*
X1332076Y576882D01*
X1331981Y576814D01*
X1331883Y576750D01*
X1331784Y576689D01*
X1331682Y576631D01*
X1331579Y576576D01*
X1331473Y576525D01*
X1331366Y576478D01*
X1331258Y576434D01*
X1331148Y576394D01*
X1331037Y576357D01*
X1330925Y576324D01*
X1330811Y576295D01*
X1330697Y576270D01*
X1330582Y576249D01*
X1330467Y576231D01*
X1330350Y576218D01*
X1330234Y576208D01*
X1330117Y576202D01*
X1330000Y576200D01*
X1333500Y579700D02*
X1333500Y635000D01*
X1358900Y660400D01*
X1981200Y660400D01*
D15*
X1981200Y660400D03*
D16*
X1460500Y581700D02*
X1460498Y581554D01*
X1460492Y581407D01*
X1460482Y581261D01*
X1460469Y581115D01*
X1460451Y580970D01*
X1460430Y580825D01*
X1460405Y580681D01*
X1460376Y580537D01*
X1460343Y580395D01*
X1460306Y580253D01*
X1460266Y580112D01*
X1460222Y579973D01*
X1460174Y579834D01*
X1460122Y579697D01*
X1460067Y579561D01*
X1460008Y579427D01*
X1459946Y579295D01*
X1459880Y579164D01*
X1459811Y579035D01*
X1459739Y578908D01*
X1459663Y578783D01*
X1459583Y578660D01*
X1459501Y578539D01*
X1459415Y578420D01*
X1459326Y578304D01*
X1459234Y578190D01*
X1459139Y578078D01*
X1459041Y577969D01*
X1458941Y577863D01*
X1458837Y577759D01*
X1458731Y577659D01*
X1458622Y577561D01*
X1458510Y577466D01*
X1458396Y577374D01*
X1458280Y577285D01*
X1458161Y577199D01*
X1458040Y577117D01*
X1457917Y577037D01*
X1457792Y576961D01*
X1457665Y576889D01*
X1457536Y576820D01*
X1457405Y576754D01*
X1457273Y576692D01*
X1457139Y576633D01*
X1457003Y576578D01*
X1456866Y576526D01*
X1456727Y576478D01*
X1456588Y576434D01*
X1456447Y576394D01*
X1456305Y576357D01*
X1456163Y576324D01*
X1456019Y576295D01*
X1455875Y576270D01*
X1455730Y576249D01*
X1455585Y576231D01*
X1455439Y576218D01*
X1455293Y576208D01*
X1455146Y576202D01*
X1455000Y576200D01*
X1460500Y581700D02*
X1460500Y622300D01*
X1485900Y647700D01*
X1981200Y647700D01*
D15*
X1981200Y647700D03*
D16*
X1695000Y576200D02*
X1694848Y576202D01*
X1694696Y576208D01*
X1694545Y576218D01*
X1694393Y576231D01*
X1694242Y576249D01*
X1694092Y576270D01*
X1693942Y576296D01*
X1693793Y576325D01*
X1693645Y576358D01*
X1693497Y576395D01*
X1693351Y576435D01*
X1693206Y576479D01*
X1693062Y576528D01*
X1692919Y576579D01*
X1692777Y576635D01*
X1692637Y576694D01*
X1692499Y576756D01*
X1692362Y576823D01*
X1692227Y576892D01*
X1692094Y576965D01*
X1691963Y577042D01*
X1691833Y577122D01*
X1691706Y577205D01*
X1691581Y577291D01*
X1691459Y577381D01*
X1691338Y577474D01*
X1691221Y577570D01*
X1691105Y577668D01*
X1690992Y577770D01*
X1690882Y577875D01*
X1690775Y577982D01*
X1690670Y578092D01*
X1690568Y578205D01*
X1690470Y578321D01*
X1690374Y578438D01*
X1690281Y578559D01*
X1690191Y578681D01*
X1690105Y578806D01*
X1690022Y578933D01*
X1689942Y579063D01*
X1689865Y579194D01*
X1689792Y579327D01*
X1689723Y579462D01*
X1689656Y579599D01*
X1689594Y579737D01*
X1689535Y579877D01*
X1689479Y580019D01*
X1689428Y580162D01*
X1689379Y580306D01*
X1689335Y580451D01*
X1689295Y580597D01*
X1689258Y580745D01*
X1689225Y580893D01*
X1689196Y581042D01*
X1689170Y581192D01*
X1689149Y581342D01*
X1689131Y581493D01*
X1689118Y581645D01*
X1689108Y581796D01*
X1689102Y581948D01*
X1689100Y582100D01*
X1689100Y609600D01*
X1714500Y635000D01*
X1981200Y635000D01*
D15*
X1981200Y635000D03*
D16*
X1820000Y576200D02*
X1819877Y576202D01*
X1819755Y576208D01*
X1819633Y576217D01*
X1819511Y576231D01*
X1819390Y576248D01*
X1819269Y576269D01*
X1819149Y576294D01*
X1819030Y576323D01*
X1818912Y576355D01*
X1818795Y576391D01*
X1818679Y576431D01*
X1818564Y576474D01*
X1818451Y576521D01*
X1818339Y576571D01*
X1818229Y576625D01*
X1818121Y576682D01*
X1818015Y576743D01*
X1817910Y576807D01*
X1817808Y576874D01*
X1817708Y576945D01*
X1817610Y577018D01*
X1817514Y577095D01*
X1817421Y577175D01*
X1817330Y577257D01*
X1817242Y577342D01*
X1817157Y577430D01*
X1817075Y577521D01*
X1816995Y577614D01*
X1816918Y577710D01*
X1816845Y577808D01*
X1816774Y577908D01*
X1816707Y578010D01*
X1816643Y578115D01*
X1816582Y578221D01*
X1816525Y578329D01*
X1816471Y578439D01*
X1816421Y578551D01*
X1816374Y578664D01*
X1816331Y578779D01*
X1816291Y578895D01*
X1816255Y579012D01*
X1816223Y579130D01*
X1816194Y579249D01*
X1816169Y579369D01*
X1816148Y579490D01*
X1816131Y579611D01*
X1816117Y579733D01*
X1816108Y579855D01*
X1816102Y579977D01*
X1816100Y580100D01*
X1816100Y596900D01*
X1841500Y622300D01*
X1981200Y622300D01*
D15*
X1981200Y622300D03*
D16*
X1943100Y578100D02*
X1943102Y578015D01*
X1943108Y577930D01*
X1943117Y577845D01*
X1943131Y577761D01*
X1943148Y577677D01*
X1943168Y577595D01*
X1943193Y577513D01*
X1943221Y577432D01*
X1943253Y577353D01*
X1943288Y577276D01*
X1943327Y577200D01*
X1943369Y577125D01*
X1943414Y577053D01*
X1943463Y576983D01*
X1943515Y576915D01*
X1943569Y576850D01*
X1943627Y576787D01*
X1943687Y576727D01*
X1943750Y576669D01*
X1943815Y576615D01*
X1943883Y576563D01*
X1943953Y576514D01*
X1944025Y576469D01*
X1944100Y576427D01*
X1944176Y576388D01*
X1944253Y576353D01*
X1944332Y576321D01*
X1944413Y576293D01*
X1944495Y576268D01*
X1944577Y576248D01*
X1944661Y576231D01*
X1944745Y576217D01*
X1944830Y576208D01*
X1944915Y576202D01*
X1945000Y576200D01*
X1943100Y578100D02*
X1943100Y596900D01*
X1955800Y609600D01*
X1981200Y609600D01*
D15*
X1981200Y609600D03*
D16*
X165100Y2040900D02*
X165098Y2040795D01*
X165092Y2040691D01*
X165082Y2040586D01*
X165069Y2040483D01*
X165051Y2040379D01*
X165030Y2040277D01*
X165005Y2040175D01*
X164976Y2040075D01*
X164943Y2039975D01*
X164906Y2039877D01*
X164866Y2039780D01*
X164823Y2039685D01*
X164776Y2039592D01*
X164725Y2039500D01*
X164671Y2039410D01*
X164613Y2039323D01*
X164553Y2039237D01*
X164489Y2039154D01*
X164422Y2039074D01*
X164353Y2038996D01*
X164280Y2038920D01*
X164204Y2038847D01*
X164126Y2038778D01*
X164046Y2038711D01*
X163963Y2038647D01*
X163877Y2038587D01*
X163790Y2038529D01*
X163700Y2038475D01*
X163608Y2038424D01*
X163515Y2038377D01*
X163420Y2038334D01*
X163323Y2038294D01*
X163225Y2038257D01*
X163125Y2038224D01*
X163025Y2038195D01*
X162923Y2038170D01*
X162821Y2038149D01*
X162717Y2038131D01*
X162614Y2038118D01*
X162509Y2038108D01*
X162405Y2038102D01*
X162300Y2038100D01*
X165100Y2040900D02*
X165100Y2184400D01*
X190500Y2209800D01*
X1993900Y2209800D01*
D15*
X1993900Y2209800D03*
D16*
X292100Y2042900D02*
X292098Y2042763D01*
X292092Y2042626D01*
X292082Y2042489D01*
X292069Y2042353D01*
X292051Y2042217D01*
X292030Y2042081D01*
X292004Y2041947D01*
X291975Y2041813D01*
X291942Y2041680D01*
X291906Y2041548D01*
X291865Y2041417D01*
X291821Y2041287D01*
X291773Y2041159D01*
X291721Y2041032D01*
X291666Y2040906D01*
X291608Y2040782D01*
X291545Y2040660D01*
X291480Y2040540D01*
X291410Y2040421D01*
X291338Y2040305D01*
X291262Y2040191D01*
X291183Y2040079D01*
X291101Y2039969D01*
X291016Y2039862D01*
X290928Y2039757D01*
X290836Y2039654D01*
X290742Y2039555D01*
X290645Y2039458D01*
X290546Y2039364D01*
X290443Y2039272D01*
X290338Y2039184D01*
X290231Y2039099D01*
X290121Y2039017D01*
X290009Y2038938D01*
X289895Y2038862D01*
X289779Y2038790D01*
X289660Y2038720D01*
X289540Y2038655D01*
X289418Y2038592D01*
X289294Y2038534D01*
X289168Y2038479D01*
X289041Y2038427D01*
X288913Y2038379D01*
X288783Y2038335D01*
X288652Y2038294D01*
X288520Y2038258D01*
X288387Y2038225D01*
X288253Y2038196D01*
X288119Y2038170D01*
X287983Y2038149D01*
X287847Y2038131D01*
X287711Y2038118D01*
X287574Y2038108D01*
X287437Y2038102D01*
X287300Y2038100D01*
X292100Y2042900D02*
X292100Y2171700D01*
X317500Y2197100D01*
X1993900Y2197100D01*
D15*
X1993900Y2197100D03*
D16*
X412300Y2038100D02*
X412148Y2038102D01*
X411996Y2038108D01*
X411845Y2038118D01*
X411693Y2038131D01*
X411542Y2038149D01*
X411392Y2038170D01*
X411242Y2038196D01*
X411093Y2038225D01*
X410945Y2038258D01*
X410797Y2038295D01*
X410651Y2038335D01*
X410506Y2038379D01*
X410362Y2038428D01*
X410219Y2038479D01*
X410077Y2038535D01*
X409937Y2038594D01*
X409799Y2038656D01*
X409662Y2038723D01*
X409527Y2038792D01*
X409394Y2038865D01*
X409263Y2038942D01*
X409133Y2039022D01*
X409006Y2039105D01*
X408881Y2039191D01*
X408759Y2039281D01*
X408638Y2039374D01*
X408521Y2039470D01*
X408405Y2039568D01*
X408292Y2039670D01*
X408182Y2039775D01*
X408075Y2039882D01*
X407970Y2039992D01*
X407868Y2040105D01*
X407770Y2040221D01*
X407674Y2040338D01*
X407581Y2040459D01*
X407491Y2040581D01*
X407405Y2040706D01*
X407322Y2040833D01*
X407242Y2040963D01*
X407165Y2041094D01*
X407092Y2041227D01*
X407023Y2041362D01*
X406956Y2041499D01*
X406894Y2041637D01*
X406835Y2041777D01*
X406779Y2041919D01*
X406728Y2042062D01*
X406679Y2042206D01*
X406635Y2042351D01*
X406595Y2042497D01*
X406558Y2042645D01*
X406525Y2042793D01*
X406496Y2042942D01*
X406470Y2043092D01*
X406449Y2043242D01*
X406431Y2043393D01*
X406418Y2043545D01*
X406408Y2043696D01*
X406402Y2043848D01*
X406400Y2044000D01*
X406400Y2159000D01*
X431800Y2184400D01*
X1993900Y2184400D01*
D15*
X1993900Y2184400D03*
D16*
X165100Y1313900D02*
X165098Y1313795D01*
X165092Y1313691D01*
X165082Y1313586D01*
X165069Y1313483D01*
X165051Y1313379D01*
X165030Y1313277D01*
X165005Y1313175D01*
X164976Y1313075D01*
X164943Y1312975D01*
X164906Y1312877D01*
X164866Y1312780D01*
X164823Y1312685D01*
X164776Y1312592D01*
X164725Y1312500D01*
X164671Y1312410D01*
X164613Y1312323D01*
X164553Y1312237D01*
X164489Y1312154D01*
X164422Y1312074D01*
X164353Y1311996D01*
X164280Y1311920D01*
X164204Y1311847D01*
X164126Y1311778D01*
X164046Y1311711D01*
X163963Y1311647D01*
X163877Y1311587D01*
X163790Y1311529D01*
X163700Y1311475D01*
X163608Y1311424D01*
X163515Y1311377D01*
X163420Y1311334D01*
X163323Y1311294D01*
X163225Y1311257D01*
X163125Y1311224D01*
X163025Y1311195D01*
X162923Y1311170D01*
X162821Y1311149D01*
X162717Y1311131D01*
X162614Y1311118D01*
X162509Y1311108D01*
X162405Y1311102D01*
X162300Y1311100D01*
X165100Y1313900D02*
X165100Y1460500D01*
X190500Y1485900D01*
X1981200Y1485900D01*
D15*
X1981200Y1485900D03*
D16*
X304800Y1328600D02*
X304795Y1328177D01*
X304780Y1327755D01*
X304754Y1327332D01*
X304718Y1326911D01*
X304672Y1326491D01*
X304616Y1326071D01*
X304550Y1325654D01*
X304474Y1325238D01*
X304388Y1324824D01*
X304291Y1324412D01*
X304185Y1324003D01*
X304069Y1323596D01*
X303943Y1323192D01*
X303808Y1322792D01*
X303663Y1322394D01*
X303508Y1322001D01*
X303344Y1321611D01*
X303170Y1321225D01*
X302987Y1320844D01*
X302795Y1320467D01*
X302594Y1320095D01*
X302384Y1319728D01*
X302166Y1319366D01*
X301938Y1319010D01*
X301702Y1318659D01*
X301458Y1318314D01*
X301205Y1317975D01*
X300944Y1317642D01*
X300676Y1317315D01*
X300399Y1316995D01*
X300115Y1316682D01*
X299823Y1316376D01*
X299524Y1316077D01*
X299218Y1315785D01*
X298905Y1315501D01*
X298585Y1315224D01*
X298258Y1314956D01*
X297925Y1314695D01*
X297586Y1314442D01*
X297241Y1314198D01*
X296890Y1313962D01*
X296534Y1313734D01*
X296172Y1313516D01*
X295805Y1313306D01*
X295433Y1313105D01*
X295056Y1312913D01*
X294675Y1312730D01*
X294289Y1312556D01*
X293899Y1312392D01*
X293506Y1312237D01*
X293108Y1312092D01*
X292708Y1311957D01*
X292304Y1311831D01*
X291897Y1311715D01*
X291488Y1311609D01*
X291076Y1311512D01*
X290662Y1311426D01*
X290246Y1311350D01*
X289829Y1311284D01*
X289409Y1311228D01*
X288989Y1311182D01*
X288568Y1311146D01*
X288145Y1311120D01*
X287723Y1311105D01*
X287300Y1311100D01*
X304800Y1328600D02*
X304800Y1447800D01*
X330200Y1473200D01*
X1981200Y1473200D01*
D15*
X1981200Y1473200D03*
D16*
X419100Y1317900D02*
X419098Y1317736D01*
X419092Y1317571D01*
X419082Y1317407D01*
X419068Y1317244D01*
X419050Y1317080D01*
X419029Y1316917D01*
X419003Y1316755D01*
X418973Y1316594D01*
X418940Y1316433D01*
X418902Y1316273D01*
X418861Y1316114D01*
X418816Y1315956D01*
X418767Y1315799D01*
X418715Y1315643D01*
X418658Y1315489D01*
X418598Y1315336D01*
X418534Y1315184D01*
X418467Y1315034D01*
X418396Y1314886D01*
X418321Y1314740D01*
X418243Y1314595D01*
X418161Y1314453D01*
X418076Y1314312D01*
X417988Y1314174D01*
X417896Y1314037D01*
X417801Y1313903D01*
X417703Y1313771D01*
X417602Y1313642D01*
X417497Y1313515D01*
X417390Y1313391D01*
X417279Y1313269D01*
X417166Y1313150D01*
X417050Y1313034D01*
X416931Y1312921D01*
X416809Y1312810D01*
X416685Y1312703D01*
X416558Y1312598D01*
X416429Y1312497D01*
X416297Y1312399D01*
X416163Y1312304D01*
X416026Y1312212D01*
X415888Y1312124D01*
X415747Y1312039D01*
X415605Y1311957D01*
X415460Y1311879D01*
X415314Y1311804D01*
X415166Y1311733D01*
X415016Y1311666D01*
X414864Y1311602D01*
X414711Y1311542D01*
X414557Y1311485D01*
X414401Y1311433D01*
X414244Y1311384D01*
X414086Y1311339D01*
X413927Y1311298D01*
X413767Y1311260D01*
X413606Y1311227D01*
X413445Y1311197D01*
X413283Y1311171D01*
X413120Y1311150D01*
X412956Y1311132D01*
X412793Y1311118D01*
X412629Y1311108D01*
X412464Y1311102D01*
X412300Y1311100D01*
X419100Y1317900D02*
X419100Y1435100D01*
X444500Y1460500D01*
X1981200Y1460500D01*
D15*
X1981200Y1460500D03*
D16*
X673100Y1311900D02*
X673098Y1311845D01*
X673093Y1311791D01*
X673083Y1311737D01*
X673070Y1311684D01*
X673054Y1311632D01*
X673034Y1311581D01*
X673010Y1311532D01*
X672984Y1311484D01*
X672954Y1311439D01*
X672921Y1311395D01*
X672885Y1311354D01*
X672846Y1311315D01*
X672805Y1311279D01*
X672761Y1311246D01*
X672716Y1311216D01*
X672668Y1311190D01*
X672619Y1311166D01*
X672568Y1311146D01*
X672516Y1311130D01*
X672463Y1311117D01*
X672409Y1311107D01*
X672355Y1311102D01*
X672300Y1311100D01*
X673100Y1311900D02*
X673100Y1422400D01*
X698500Y1447800D01*
X1981200Y1447800D01*
D15*
X1981200Y1447800D03*
D16*
X800100Y1313900D02*
X800098Y1313795D01*
X800092Y1313691D01*
X800082Y1313586D01*
X800069Y1313483D01*
X800051Y1313379D01*
X800030Y1313277D01*
X800005Y1313175D01*
X799976Y1313075D01*
X799943Y1312975D01*
X799906Y1312877D01*
X799866Y1312780D01*
X799823Y1312685D01*
X799776Y1312592D01*
X799725Y1312500D01*
X799671Y1312410D01*
X799613Y1312323D01*
X799553Y1312237D01*
X799489Y1312154D01*
X799422Y1312074D01*
X799353Y1311996D01*
X799280Y1311920D01*
X799204Y1311847D01*
X799126Y1311778D01*
X799046Y1311711D01*
X798963Y1311647D01*
X798877Y1311587D01*
X798790Y1311529D01*
X798700Y1311475D01*
X798608Y1311424D01*
X798515Y1311377D01*
X798420Y1311334D01*
X798323Y1311294D01*
X798225Y1311257D01*
X798125Y1311224D01*
X798025Y1311195D01*
X797923Y1311170D01*
X797821Y1311149D01*
X797717Y1311131D01*
X797614Y1311118D01*
X797509Y1311108D01*
X797405Y1311102D01*
X797300Y1311100D01*
X800100Y1313900D02*
X800100Y1409700D01*
X825500Y1435100D01*
X1981200Y1435100D01*
D15*
X1981200Y1435100D03*
D16*
X927100Y1315900D02*
X927098Y1315763D01*
X927092Y1315626D01*
X927082Y1315489D01*
X927069Y1315353D01*
X927051Y1315217D01*
X927030Y1315081D01*
X927004Y1314947D01*
X926975Y1314813D01*
X926942Y1314680D01*
X926906Y1314548D01*
X926865Y1314417D01*
X926821Y1314287D01*
X926773Y1314159D01*
X926721Y1314032D01*
X926666Y1313906D01*
X926608Y1313782D01*
X926545Y1313660D01*
X926480Y1313540D01*
X926410Y1313421D01*
X926338Y1313305D01*
X926262Y1313191D01*
X926183Y1313079D01*
X926101Y1312969D01*
X926016Y1312862D01*
X925928Y1312757D01*
X925836Y1312654D01*
X925742Y1312555D01*
X925645Y1312458D01*
X925546Y1312364D01*
X925443Y1312272D01*
X925338Y1312184D01*
X925231Y1312099D01*
X925121Y1312017D01*
X925009Y1311938D01*
X924895Y1311862D01*
X924779Y1311790D01*
X924660Y1311720D01*
X924540Y1311655D01*
X924418Y1311592D01*
X924294Y1311534D01*
X924168Y1311479D01*
X924041Y1311427D01*
X923913Y1311379D01*
X923783Y1311335D01*
X923652Y1311294D01*
X923520Y1311258D01*
X923387Y1311225D01*
X923253Y1311196D01*
X923119Y1311170D01*
X922983Y1311149D01*
X922847Y1311131D01*
X922711Y1311118D01*
X922574Y1311108D01*
X922437Y1311102D01*
X922300Y1311100D01*
X927100Y1315900D02*
X927100Y1397000D01*
X952500Y1422400D01*
X1981200Y1422400D01*
D15*
X1981200Y1422400D03*
D16*
X1193800Y1312600D02*
X1193798Y1312524D01*
X1193792Y1312448D01*
X1193783Y1312373D01*
X1193769Y1312298D01*
X1193752Y1312224D01*
X1193731Y1312151D01*
X1193707Y1312079D01*
X1193678Y1312008D01*
X1193647Y1311939D01*
X1193612Y1311872D01*
X1193573Y1311807D01*
X1193531Y1311743D01*
X1193486Y1311682D01*
X1193438Y1311623D01*
X1193387Y1311567D01*
X1193333Y1311513D01*
X1193277Y1311462D01*
X1193218Y1311414D01*
X1193157Y1311369D01*
X1193093Y1311327D01*
X1193028Y1311288D01*
X1192961Y1311253D01*
X1192892Y1311222D01*
X1192821Y1311193D01*
X1192749Y1311169D01*
X1192676Y1311148D01*
X1192602Y1311131D01*
X1192527Y1311117D01*
X1192452Y1311108D01*
X1192376Y1311102D01*
X1192300Y1311100D01*
X1193800Y1312600D02*
X1193800Y1384300D01*
X1219200Y1409700D01*
X1981200Y1409700D01*
D15*
X1981200Y1409700D03*
D16*
X1320800Y1314600D02*
X1320798Y1314483D01*
X1320792Y1314366D01*
X1320782Y1314250D01*
X1320769Y1314133D01*
X1320751Y1314018D01*
X1320730Y1313903D01*
X1320705Y1313789D01*
X1320676Y1313675D01*
X1320643Y1313563D01*
X1320606Y1313452D01*
X1320566Y1313342D01*
X1320522Y1313234D01*
X1320475Y1313127D01*
X1320424Y1313021D01*
X1320369Y1312918D01*
X1320311Y1312816D01*
X1320250Y1312717D01*
X1320186Y1312619D01*
X1320118Y1312524D01*
X1320047Y1312431D01*
X1319973Y1312340D01*
X1319896Y1312252D01*
X1319816Y1312167D01*
X1319733Y1312084D01*
X1319648Y1312004D01*
X1319560Y1311927D01*
X1319469Y1311853D01*
X1319376Y1311782D01*
X1319281Y1311714D01*
X1319183Y1311650D01*
X1319084Y1311589D01*
X1318982Y1311531D01*
X1318879Y1311476D01*
X1318773Y1311425D01*
X1318666Y1311378D01*
X1318558Y1311334D01*
X1318448Y1311294D01*
X1318337Y1311257D01*
X1318225Y1311224D01*
X1318111Y1311195D01*
X1317997Y1311170D01*
X1317882Y1311149D01*
X1317767Y1311131D01*
X1317650Y1311118D01*
X1317534Y1311108D01*
X1317417Y1311102D01*
X1317300Y1311100D01*
X1320800Y1314600D02*
X1320800Y1371600D01*
X1346200Y1397000D01*
X1981200Y1397000D01*
D15*
X1981200Y1397000D03*
D16*
X1447800Y1316600D02*
X1447798Y1316454D01*
X1447792Y1316307D01*
X1447782Y1316161D01*
X1447769Y1316015D01*
X1447751Y1315870D01*
X1447730Y1315725D01*
X1447705Y1315581D01*
X1447676Y1315437D01*
X1447643Y1315295D01*
X1447606Y1315153D01*
X1447566Y1315012D01*
X1447522Y1314873D01*
X1447474Y1314734D01*
X1447422Y1314597D01*
X1447367Y1314461D01*
X1447308Y1314327D01*
X1447246Y1314195D01*
X1447180Y1314064D01*
X1447111Y1313935D01*
X1447039Y1313808D01*
X1446963Y1313683D01*
X1446883Y1313560D01*
X1446801Y1313439D01*
X1446715Y1313320D01*
X1446626Y1313204D01*
X1446534Y1313090D01*
X1446439Y1312978D01*
X1446341Y1312869D01*
X1446241Y1312763D01*
X1446137Y1312659D01*
X1446031Y1312559D01*
X1445922Y1312461D01*
X1445810Y1312366D01*
X1445696Y1312274D01*
X1445580Y1312185D01*
X1445461Y1312099D01*
X1445340Y1312017D01*
X1445217Y1311937D01*
X1445092Y1311861D01*
X1444965Y1311789D01*
X1444836Y1311720D01*
X1444705Y1311654D01*
X1444573Y1311592D01*
X1444439Y1311533D01*
X1444303Y1311478D01*
X1444166Y1311426D01*
X1444027Y1311378D01*
X1443888Y1311334D01*
X1443747Y1311294D01*
X1443605Y1311257D01*
X1443463Y1311224D01*
X1443319Y1311195D01*
X1443175Y1311170D01*
X1443030Y1311149D01*
X1442885Y1311131D01*
X1442739Y1311118D01*
X1442593Y1311108D01*
X1442446Y1311102D01*
X1442300Y1311100D01*
X1447800Y1316600D02*
X1447800Y1384300D01*
X1981200Y1384300D01*
D15*
X1981200Y1384300D03*
D16*
X1682300Y1311100D02*
X1682148Y1311102D01*
X1681996Y1311108D01*
X1681845Y1311118D01*
X1681693Y1311131D01*
X1681542Y1311149D01*
X1681392Y1311170D01*
X1681242Y1311196D01*
X1681093Y1311225D01*
X1680945Y1311258D01*
X1680797Y1311295D01*
X1680651Y1311335D01*
X1680506Y1311379D01*
X1680362Y1311428D01*
X1680219Y1311479D01*
X1680077Y1311535D01*
X1679937Y1311594D01*
X1679799Y1311656D01*
X1679662Y1311723D01*
X1679527Y1311792D01*
X1679394Y1311865D01*
X1679263Y1311942D01*
X1679133Y1312022D01*
X1679006Y1312105D01*
X1678881Y1312191D01*
X1678759Y1312281D01*
X1678638Y1312374D01*
X1678521Y1312470D01*
X1678405Y1312568D01*
X1678292Y1312670D01*
X1678182Y1312775D01*
X1678075Y1312882D01*
X1677970Y1312992D01*
X1677868Y1313105D01*
X1677770Y1313221D01*
X1677674Y1313338D01*
X1677581Y1313459D01*
X1677491Y1313581D01*
X1677405Y1313706D01*
X1677322Y1313833D01*
X1677242Y1313963D01*
X1677165Y1314094D01*
X1677092Y1314227D01*
X1677023Y1314362D01*
X1676956Y1314499D01*
X1676894Y1314637D01*
X1676835Y1314777D01*
X1676779Y1314919D01*
X1676728Y1315062D01*
X1676679Y1315206D01*
X1676635Y1315351D01*
X1676595Y1315497D01*
X1676558Y1315645D01*
X1676525Y1315793D01*
X1676496Y1315942D01*
X1676470Y1316092D01*
X1676449Y1316242D01*
X1676431Y1316393D01*
X1676418Y1316545D01*
X1676408Y1316696D01*
X1676402Y1316848D01*
X1676400Y1317000D01*
X1676400Y1346200D01*
X1701800Y1371600D01*
X1981200Y1371600D01*
D15*
X1981200Y1371600D03*
D16*
X1807300Y1311100D02*
X1807177Y1311102D01*
X1807055Y1311108D01*
X1806933Y1311117D01*
X1806811Y1311131D01*
X1806690Y1311148D01*
X1806569Y1311169D01*
X1806449Y1311194D01*
X1806330Y1311223D01*
X1806212Y1311255D01*
X1806095Y1311291D01*
X1805979Y1311331D01*
X1805864Y1311374D01*
X1805751Y1311421D01*
X1805639Y1311471D01*
X1805529Y1311525D01*
X1805421Y1311582D01*
X1805315Y1311643D01*
X1805210Y1311707D01*
X1805108Y1311774D01*
X1805008Y1311845D01*
X1804910Y1311918D01*
X1804814Y1311995D01*
X1804721Y1312075D01*
X1804630Y1312157D01*
X1804542Y1312242D01*
X1804457Y1312330D01*
X1804375Y1312421D01*
X1804295Y1312514D01*
X1804218Y1312610D01*
X1804145Y1312708D01*
X1804074Y1312808D01*
X1804007Y1312910D01*
X1803943Y1313015D01*
X1803882Y1313121D01*
X1803825Y1313229D01*
X1803771Y1313339D01*
X1803721Y1313451D01*
X1803674Y1313564D01*
X1803631Y1313679D01*
X1803591Y1313795D01*
X1803555Y1313912D01*
X1803523Y1314030D01*
X1803494Y1314149D01*
X1803469Y1314269D01*
X1803448Y1314390D01*
X1803431Y1314511D01*
X1803417Y1314633D01*
X1803408Y1314755D01*
X1803402Y1314877D01*
X1803400Y1315000D01*
X1803400Y1333500D01*
X1828800Y1358900D01*
X1981200Y1358900D01*
D15*
X1981200Y1358900D03*
D16*
X1932300Y1311100D02*
X1932215Y1311102D01*
X1932130Y1311108D01*
X1932045Y1311117D01*
X1931961Y1311131D01*
X1931877Y1311148D01*
X1931795Y1311168D01*
X1931713Y1311193D01*
X1931632Y1311221D01*
X1931553Y1311253D01*
X1931476Y1311288D01*
X1931400Y1311327D01*
X1931325Y1311369D01*
X1931253Y1311414D01*
X1931183Y1311463D01*
X1931115Y1311515D01*
X1931050Y1311569D01*
X1930987Y1311627D01*
X1930927Y1311687D01*
X1930869Y1311750D01*
X1930815Y1311815D01*
X1930763Y1311883D01*
X1930714Y1311953D01*
X1930669Y1312025D01*
X1930627Y1312100D01*
X1930588Y1312176D01*
X1930553Y1312253D01*
X1930521Y1312332D01*
X1930493Y1312413D01*
X1930468Y1312495D01*
X1930448Y1312577D01*
X1930431Y1312661D01*
X1930417Y1312745D01*
X1930408Y1312830D01*
X1930402Y1312915D01*
X1930400Y1313000D01*
X1930400Y1333500D01*
X1943100Y1346200D01*
X1981200Y1346200D01*
D15*
X1981200Y1346200D03*
M02*
