M48
;GenerationSoftware,Autodesk,EAGLE,9.6.2*%
;CreationDate,2020-08-10T12:07:59Z*%
FMAT,2
ICI,OFF
METRIC,TZ,000.000
T4C0.600
T3C0.813
T2C3.000
T1C10.000
%
G90
M71
T1
X105410Y118410
X105410Y191110
T2
X10000Y25000
X200000Y25000
X205000Y295000
X10000Y290000
T3
X82270Y230080
X133000Y248160
X145500Y238000
X145500Y248160
X183270Y230080
X180730Y230080
X186880Y230080
X197040Y230080
X169500Y238000
X169500Y248160
X182000Y238000
X182000Y248160
X194400Y238000
X194400Y248160
X30000Y156110
X27460Y156110
X36150Y156110
X46310Y156110
X16230Y164030
X16230Y174190
X28730Y164030
X28730Y174190
X41230Y164030
X41230Y174190
X81000Y156110
X78460Y156110
X87150Y156110
X97310Y156110
X67230Y164030
X67230Y174190
X79730Y164030
X79730Y174190
X92230Y164030
X92230Y174190
X133000Y156110
X130460Y156110
X139150Y156110
X149310Y156110
X119230Y164030
X119230Y174190
X131730Y164030
X87150Y82410
X131730Y174190
X144230Y164030
X144230Y174190
X182000Y156110
X179460Y156110
X185610Y156110
X195770Y156110
X168230Y164030
X168230Y174190
X180730Y164030
X180730Y174190
X193230Y164030
X193230Y174190
X30000Y82690
X27460Y82690
X34880Y82410
X45040Y82410
X16230Y91330
X16230Y101490
X28730Y91330
X28730Y101490
X41230Y91330
X41230Y101490
X81000Y82550
X31270Y230080
X28730Y230080
X37420Y230080
X47580Y230080
X17500Y238000
X17500Y248160
X30000Y238000
X30000Y248160
X42500Y238000
X42500Y248160
X78460Y82550
X79730Y230080
X88420Y230080
X98580Y230080
X68500Y238000
X68500Y248160
X81000Y238000
X81000Y248160
X93500Y238000
X93500Y248160
X134270Y230080
X131730Y230080
X140420Y230080
X150580Y230080
X120500Y238000
X120500Y248160
X133000Y238000
X97310Y82410
X67230Y91330
X67230Y101490
X79730Y91330
X79730Y101490
X92230Y91330
X92230Y101490
X139150Y82410
X149310Y82410
X119230Y91330
X119230Y101490
X131730Y91330
X131730Y101490
X144230Y91330
X144230Y101490
X181890Y82690
X179350Y82690
X186880Y82410
X197040Y82410
X168230Y91330
X168230Y101490
X180730Y91330
X180730Y101490
X193230Y91330
X193230Y101490
X31270Y8860
X28730Y8860
X37420Y8920
X47580Y8920
X17500Y17840
X17500Y28000
X30000Y17840
X30000Y28000
X42500Y17840
X42500Y28000
X82270Y8860
X79730Y8860
X88420Y8920
X98580Y8920
X68500Y17840
X68500Y28000
X81000Y17840
X81000Y28000
X93500Y17840
X93500Y28000
X134270Y8860
X131730Y8860
X140420Y8920
X150580Y8920
X120500Y17840
X120500Y28000
X133000Y17840
X133000Y28000
X145500Y17840
X145500Y28000
X183270Y8860
X180730Y8860
X188150Y8920
X198310Y8920
X169500Y17840
X169500Y28000
X182000Y17840
X182000Y28000
X194500Y17840
X194500Y28000
X130810Y82550
X133350Y82550
T4
X200660Y224790
X200660Y226060
X200660Y227330
X200660Y229870
X199390Y151130
X199390Y152400
X199390Y153670
X199390Y156210
X199390Y77470
X199390Y78740
X199390Y80010
X199390Y82550
X201930Y3810
X201930Y5080
X201930Y6350
X201930Y8890
X199390Y290830
X199390Y289560
X199390Y288290
X199390Y294640
X199390Y293370
X199390Y292100
X199390Y287020
X199390Y284480
X199390Y285750
X199390Y283210
X199390Y281940
X199390Y280670
X199390Y209550
X199390Y208280
X199390Y207010
X199390Y210820
X199390Y212090
X199390Y213360
X199390Y214630
X199390Y215900
X199390Y217170
X198120Y72390
X198120Y73660
X198120Y71120
X198120Y69850
X198120Y68580
X198120Y67310
X198120Y66040
X198120Y64770
X198120Y63500
X198120Y62230
X198120Y60960
X199390Y220980
X199390Y219710
X199390Y218440
X198120Y148590
X198120Y147320
X198120Y146050
X198120Y144780
X198120Y143510
X198120Y142240
X198120Y140970
X198120Y139700
X198120Y138430
X198120Y137160
X198120Y135890
X198120Y134620
X198120Y74930
X17500Y277780
X17500Y252380
X30000Y277780
X30000Y252380
X42500Y277780
X42500Y252380
X68500Y277780
X68500Y252380
X81000Y277780
X81000Y252380
X93500Y277780
X93500Y252380
X120500Y277780
X120500Y252380
X133000Y277780
X194310Y297180
X145500Y277780
X145500Y252380
X169500Y277780
X169500Y252380
X182000Y277780
X182000Y252380
X194500Y277780
X194500Y252380
X16230Y203810
X16230Y178410
X28730Y203810
X28730Y178410
X41230Y203810
X41230Y178410
X67230Y203810
X67230Y178410
X79730Y203810
X79730Y178410
X92230Y203810
X92230Y178410
X119230Y203810
X119230Y178410
X131730Y203810
X131730Y178410
X144230Y203810
X144230Y178410
X168230Y203810
X168230Y178410
X180730Y203810
X180730Y178410
X193230Y203810
X193230Y178410
X16230Y131110
X16230Y105710
X28730Y131110
X28730Y105710
X41230Y131110
X41230Y105710
X67230Y131110
X67230Y105710
X133000Y252380
X79730Y105710
X92230Y131110
X92230Y105710
X119230Y131110
X119230Y105710
X131730Y131110
X131730Y105710
X144230Y131110
X144230Y105710
X168230Y131110
X168230Y105710
X180730Y131110
X180730Y105710
X193230Y131110
X193230Y105710
X169500Y57620
X169500Y32220
X182000Y57620
X182000Y32220
X194500Y57620
X194500Y32220
X120500Y57620
X120500Y32220
X133000Y57620
X133000Y32220
X145500Y57620
X145500Y32220
X17500Y57620
X17500Y32220
X30000Y57620
X30000Y32220
X42500Y57620
X42500Y32220
X68500Y57620
X68500Y32220
X81000Y57620
X81000Y32220
X93500Y57620
X93500Y32220
X204470Y287020
X79730Y131110
M30