G04 EAGLE Gerber RS-274X export*
G75*
%MOMM*%
%FSLAX34Y34*%
%LPD*%
%INSilkscreen Bottom*%
%IPPOS*%
%AMOC8*
5,1,8,0,0,1.08239X$1,22.5*%
G01*
%ADD10C,0.152400*%
%ADD11C,0.254000*%
%ADD12C,0.127000*%


D10*
X1807300Y1576340D02*
X1806928Y1576335D01*
X1806557Y1576322D01*
X1806186Y1576299D01*
X1805816Y1576268D01*
X1805447Y1576227D01*
X1805079Y1576177D01*
X1804712Y1576119D01*
X1804347Y1576051D01*
X1803983Y1575975D01*
X1803622Y1575890D01*
X1803263Y1575795D01*
X1802906Y1575693D01*
X1802551Y1575581D01*
X1802200Y1575461D01*
X1801851Y1575333D01*
X1801506Y1575196D01*
X1801164Y1575050D01*
X1800826Y1574897D01*
X1800492Y1574735D01*
X1800162Y1574565D01*
X1799836Y1574387D01*
X1799514Y1574201D01*
X1799197Y1574007D01*
X1798885Y1573806D01*
X1798578Y1573597D01*
X1798276Y1573381D01*
X1797979Y1573157D01*
X1797688Y1572927D01*
X1797403Y1572689D01*
X1797123Y1572444D01*
X1796850Y1572193D01*
X1796583Y1571935D01*
X1796322Y1571671D01*
X1796067Y1571400D01*
X1795820Y1571123D01*
X1795579Y1570840D01*
X1795345Y1570552D01*
X1795118Y1570258D01*
X1794899Y1569958D01*
X1807300Y1576340D02*
X1807672Y1576335D01*
X1808043Y1576322D01*
X1808415Y1576299D01*
X1808785Y1576267D01*
X1809155Y1576227D01*
X1809523Y1576177D01*
X1809891Y1576118D01*
X1810256Y1576051D01*
X1810620Y1575974D01*
X1810982Y1575888D01*
X1811342Y1575794D01*
X1811699Y1575691D01*
X1812054Y1575580D01*
X1812406Y1575459D01*
X1812755Y1575330D01*
X1813100Y1575193D01*
X1813442Y1575047D01*
X1813781Y1574893D01*
X1814116Y1574731D01*
X1814446Y1574561D01*
X1814772Y1574382D01*
X1815094Y1574196D01*
X1815412Y1574002D01*
X1815724Y1573800D01*
X1816031Y1573591D01*
X1816333Y1573374D01*
X1816630Y1573150D01*
X1816922Y1572919D01*
X1817207Y1572681D01*
X1817487Y1572435D01*
X1817760Y1572183D01*
X1818028Y1571925D01*
X1818288Y1571660D01*
X1818543Y1571389D01*
X1818791Y1571111D01*
X1819031Y1570828D01*
X1819265Y1570539D01*
X1819492Y1570244D01*
X1807300Y1545860D02*
X1806935Y1545864D01*
X1806570Y1545877D01*
X1806206Y1545899D01*
X1805843Y1545930D01*
X1805480Y1545969D01*
X1805118Y1546017D01*
X1804758Y1546074D01*
X1804399Y1546139D01*
X1804041Y1546212D01*
X1803686Y1546295D01*
X1803333Y1546385D01*
X1802981Y1546485D01*
X1802633Y1546592D01*
X1802287Y1546708D01*
X1801944Y1546832D01*
X1801604Y1546965D01*
X1801267Y1547105D01*
X1800934Y1547253D01*
X1800604Y1547410D01*
X1800278Y1547574D01*
X1799956Y1547746D01*
X1799639Y1547926D01*
X1799326Y1548113D01*
X1799017Y1548307D01*
X1798713Y1548509D01*
X1798414Y1548719D01*
X1798120Y1548935D01*
X1797832Y1549158D01*
X1797549Y1549388D01*
X1797271Y1549625D01*
X1796999Y1549868D01*
X1796733Y1550118D01*
X1796473Y1550374D01*
X1796220Y1550637D01*
X1795972Y1550905D01*
X1795732Y1551179D01*
X1795497Y1551459D01*
X1795270Y1551744D01*
X1807300Y1545860D02*
X1807665Y1545864D01*
X1808030Y1545877D01*
X1808394Y1545899D01*
X1808757Y1545930D01*
X1809120Y1545969D01*
X1809482Y1546017D01*
X1809842Y1546074D01*
X1810201Y1546139D01*
X1810559Y1546212D01*
X1810914Y1546295D01*
X1811267Y1546385D01*
X1811619Y1546485D01*
X1811967Y1546592D01*
X1812313Y1546708D01*
X1812656Y1546832D01*
X1812996Y1546965D01*
X1813333Y1547105D01*
X1813666Y1547253D01*
X1813996Y1547410D01*
X1814322Y1547574D01*
X1814644Y1547746D01*
X1814961Y1547926D01*
X1815274Y1548113D01*
X1815583Y1548307D01*
X1815887Y1548509D01*
X1816186Y1548719D01*
X1816480Y1548935D01*
X1816768Y1549158D01*
X1817051Y1549388D01*
X1817329Y1549625D01*
X1817601Y1549868D01*
X1817867Y1550118D01*
X1818127Y1550374D01*
X1818380Y1550637D01*
X1818628Y1550905D01*
X1818868Y1551179D01*
X1819103Y1551459D01*
X1819330Y1551744D01*
D11*
X1807300Y1581420D02*
X1806806Y1581414D01*
X1806312Y1581396D01*
X1805818Y1581366D01*
X1805325Y1581324D01*
X1804834Y1581270D01*
X1804344Y1581204D01*
X1803856Y1581126D01*
X1803369Y1581036D01*
X1802885Y1580935D01*
X1802404Y1580821D01*
X1801926Y1580696D01*
X1801450Y1580560D01*
X1800979Y1580412D01*
X1800511Y1580252D01*
X1800047Y1580081D01*
X1799587Y1579899D01*
X1799132Y1579706D01*
X1798681Y1579502D01*
X1798236Y1579287D01*
X1797796Y1579061D01*
X1797362Y1578824D01*
X1796934Y1578577D01*
X1796512Y1578320D01*
X1796096Y1578052D01*
X1795687Y1577774D01*
X1795285Y1577487D01*
X1794889Y1577190D01*
X1794502Y1576883D01*
X1794121Y1576567D01*
X1793749Y1576242D01*
X1793384Y1575907D01*
X1793028Y1575564D01*
X1792681Y1575213D01*
X1792341Y1574853D01*
X1792011Y1574485D01*
X1791690Y1574109D01*
X1807300Y1581420D02*
X1807788Y1581414D01*
X1808275Y1581397D01*
X1808762Y1581367D01*
X1809249Y1581326D01*
X1809734Y1581274D01*
X1810218Y1581209D01*
X1810700Y1581133D01*
X1811180Y1581046D01*
X1811658Y1580947D01*
X1812133Y1580837D01*
X1812606Y1580715D01*
X1813075Y1580582D01*
X1813542Y1580437D01*
X1814004Y1580282D01*
X1814463Y1580115D01*
X1814918Y1579938D01*
X1815368Y1579749D01*
X1815813Y1579550D01*
X1816254Y1579340D01*
X1816690Y1579120D01*
X1817120Y1578889D01*
X1817544Y1578648D01*
X1817962Y1578397D01*
X1818375Y1578136D01*
X1818781Y1577865D01*
X1819180Y1577585D01*
X1819573Y1577295D01*
X1819958Y1576995D01*
X1820336Y1576686D01*
X1820707Y1576369D01*
X1821069Y1576042D01*
X1821424Y1575707D01*
X1821771Y1575364D01*
X1822109Y1575012D01*
X1822439Y1574653D01*
X1822760Y1574285D01*
X1823073Y1573910D01*
X1823376Y1573527D01*
X1823670Y1573138D01*
X1823954Y1572741D01*
X1824229Y1572338D01*
X1824494Y1571928D01*
X1824749Y1571512D01*
X1824994Y1571090D01*
X1825229Y1570662D01*
X1807300Y1540780D02*
X1806810Y1540786D01*
X1806320Y1540804D01*
X1805831Y1540833D01*
X1805342Y1540875D01*
X1804855Y1540928D01*
X1804369Y1540992D01*
X1803885Y1541069D01*
X1803403Y1541157D01*
X1802923Y1541257D01*
X1802445Y1541368D01*
X1801971Y1541491D01*
X1801499Y1541626D01*
X1801031Y1541771D01*
X1800567Y1541928D01*
X1800106Y1542096D01*
X1799650Y1542275D01*
X1799198Y1542465D01*
X1798751Y1542666D01*
X1798309Y1542878D01*
X1797872Y1543100D01*
X1797440Y1543332D01*
X1797014Y1543575D01*
X1796595Y1543829D01*
X1796181Y1544092D01*
X1795774Y1544365D01*
X1795374Y1544648D01*
X1794980Y1544941D01*
X1794594Y1545242D01*
X1794215Y1545554D01*
X1793844Y1545874D01*
X1793481Y1546203D01*
X1793125Y1546540D01*
X1792778Y1546887D01*
X1792440Y1547241D01*
X1792110Y1547604D01*
X1791788Y1547974D01*
X1807300Y1540780D02*
X1807797Y1540786D01*
X1808294Y1540804D01*
X1808790Y1540835D01*
X1809285Y1540877D01*
X1809779Y1540932D01*
X1810272Y1540998D01*
X1810762Y1541077D01*
X1811251Y1541168D01*
X1811737Y1541270D01*
X1812221Y1541385D01*
X1812701Y1541511D01*
X1813179Y1541649D01*
X1813653Y1541798D01*
X1814123Y1541959D01*
X1814589Y1542132D01*
X1815051Y1542316D01*
X1815508Y1542511D01*
X1815960Y1542717D01*
X1816407Y1542934D01*
X1816848Y1543163D01*
X1817284Y1543401D01*
X1817714Y1543651D01*
X1818137Y1543911D01*
X1818555Y1544181D01*
X1818965Y1544461D01*
X1819368Y1544751D01*
X1819765Y1545051D01*
X1820153Y1545361D01*
X1820534Y1545680D01*
X1820907Y1546008D01*
X1821272Y1546345D01*
X1821629Y1546691D01*
X1821977Y1547046D01*
X1822316Y1547409D01*
X1822647Y1547780D01*
X1822968Y1548160D01*
X1823280Y1548547D01*
X1823582Y1548941D01*
X1823874Y1549343D01*
X1824157Y1549752D01*
X1824429Y1550167D01*
X1824692Y1550590D01*
X1824943Y1551018D01*
D12*
X1787615Y1565545D02*
X1787615Y1576975D01*
X1787615Y1565545D02*
X1782535Y1565545D01*
X1777709Y1565545D02*
X1772629Y1565545D01*
X1777709Y1565545D02*
X1777709Y1576975D01*
X1772629Y1576975D01*
X1773899Y1571895D02*
X1777709Y1571895D01*
X1767828Y1576975D02*
X1767828Y1565545D01*
X1767828Y1576975D02*
X1764653Y1576975D01*
X1764542Y1576973D01*
X1764432Y1576967D01*
X1764321Y1576958D01*
X1764211Y1576944D01*
X1764102Y1576927D01*
X1763993Y1576906D01*
X1763885Y1576881D01*
X1763778Y1576852D01*
X1763672Y1576820D01*
X1763567Y1576784D01*
X1763464Y1576744D01*
X1763362Y1576701D01*
X1763261Y1576654D01*
X1763162Y1576603D01*
X1763066Y1576550D01*
X1762971Y1576493D01*
X1762878Y1576432D01*
X1762787Y1576369D01*
X1762698Y1576302D01*
X1762612Y1576232D01*
X1762529Y1576159D01*
X1762447Y1576084D01*
X1762369Y1576006D01*
X1762294Y1575924D01*
X1762221Y1575841D01*
X1762151Y1575755D01*
X1762084Y1575666D01*
X1762021Y1575575D01*
X1761960Y1575482D01*
X1761903Y1575388D01*
X1761850Y1575291D01*
X1761799Y1575192D01*
X1761752Y1575091D01*
X1761709Y1574989D01*
X1761669Y1574886D01*
X1761633Y1574781D01*
X1761601Y1574675D01*
X1761572Y1574568D01*
X1761547Y1574460D01*
X1761526Y1574351D01*
X1761509Y1574242D01*
X1761495Y1574132D01*
X1761486Y1574021D01*
X1761480Y1573911D01*
X1761478Y1573800D01*
X1761478Y1568720D01*
X1761480Y1568609D01*
X1761486Y1568499D01*
X1761495Y1568388D01*
X1761509Y1568278D01*
X1761526Y1568169D01*
X1761547Y1568060D01*
X1761572Y1567952D01*
X1761601Y1567845D01*
X1761633Y1567739D01*
X1761669Y1567634D01*
X1761709Y1567531D01*
X1761752Y1567429D01*
X1761799Y1567328D01*
X1761850Y1567229D01*
X1761903Y1567133D01*
X1761960Y1567038D01*
X1762021Y1566945D01*
X1762084Y1566854D01*
X1762151Y1566765D01*
X1762221Y1566679D01*
X1762294Y1566596D01*
X1762369Y1566514D01*
X1762447Y1566436D01*
X1762529Y1566361D01*
X1762612Y1566288D01*
X1762698Y1566218D01*
X1762787Y1566151D01*
X1762878Y1566088D01*
X1762971Y1566027D01*
X1763066Y1565970D01*
X1763162Y1565917D01*
X1763261Y1565866D01*
X1763362Y1565819D01*
X1763464Y1565776D01*
X1763567Y1565736D01*
X1763672Y1565700D01*
X1763778Y1565668D01*
X1763885Y1565639D01*
X1763993Y1565614D01*
X1764102Y1565593D01*
X1764211Y1565576D01*
X1764321Y1565562D01*
X1764432Y1565553D01*
X1764542Y1565547D01*
X1764653Y1565545D01*
X1767828Y1565545D01*
X1756017Y1568720D02*
X1756015Y1568831D01*
X1756009Y1568941D01*
X1756000Y1569052D01*
X1755986Y1569162D01*
X1755969Y1569271D01*
X1755948Y1569380D01*
X1755923Y1569488D01*
X1755894Y1569595D01*
X1755862Y1569701D01*
X1755826Y1569806D01*
X1755786Y1569909D01*
X1755743Y1570011D01*
X1755696Y1570112D01*
X1755645Y1570211D01*
X1755592Y1570308D01*
X1755535Y1570402D01*
X1755474Y1570495D01*
X1755411Y1570586D01*
X1755344Y1570675D01*
X1755274Y1570761D01*
X1755201Y1570844D01*
X1755126Y1570926D01*
X1755048Y1571004D01*
X1754966Y1571079D01*
X1754883Y1571152D01*
X1754797Y1571222D01*
X1754708Y1571289D01*
X1754617Y1571352D01*
X1754524Y1571413D01*
X1754430Y1571470D01*
X1754333Y1571523D01*
X1754234Y1571574D01*
X1754133Y1571621D01*
X1754031Y1571664D01*
X1753928Y1571704D01*
X1753823Y1571740D01*
X1753717Y1571772D01*
X1753610Y1571801D01*
X1753502Y1571826D01*
X1753393Y1571847D01*
X1753284Y1571864D01*
X1753174Y1571878D01*
X1753063Y1571887D01*
X1752953Y1571893D01*
X1752842Y1571895D01*
X1752731Y1571893D01*
X1752621Y1571887D01*
X1752510Y1571878D01*
X1752400Y1571864D01*
X1752291Y1571847D01*
X1752182Y1571826D01*
X1752074Y1571801D01*
X1751967Y1571772D01*
X1751861Y1571740D01*
X1751756Y1571704D01*
X1751653Y1571664D01*
X1751551Y1571621D01*
X1751450Y1571574D01*
X1751351Y1571523D01*
X1751255Y1571470D01*
X1751160Y1571413D01*
X1751067Y1571352D01*
X1750976Y1571289D01*
X1750887Y1571222D01*
X1750801Y1571152D01*
X1750718Y1571079D01*
X1750636Y1571004D01*
X1750558Y1570926D01*
X1750483Y1570844D01*
X1750410Y1570761D01*
X1750340Y1570675D01*
X1750273Y1570586D01*
X1750210Y1570495D01*
X1750149Y1570402D01*
X1750092Y1570308D01*
X1750039Y1570211D01*
X1749988Y1570112D01*
X1749941Y1570011D01*
X1749898Y1569909D01*
X1749858Y1569806D01*
X1749822Y1569701D01*
X1749790Y1569595D01*
X1749761Y1569488D01*
X1749736Y1569380D01*
X1749715Y1569271D01*
X1749698Y1569162D01*
X1749684Y1569052D01*
X1749675Y1568941D01*
X1749669Y1568831D01*
X1749667Y1568720D01*
X1749669Y1568609D01*
X1749675Y1568499D01*
X1749684Y1568388D01*
X1749698Y1568278D01*
X1749715Y1568169D01*
X1749736Y1568060D01*
X1749761Y1567952D01*
X1749790Y1567845D01*
X1749822Y1567739D01*
X1749858Y1567634D01*
X1749898Y1567531D01*
X1749941Y1567429D01*
X1749988Y1567328D01*
X1750039Y1567229D01*
X1750092Y1567133D01*
X1750149Y1567038D01*
X1750210Y1566945D01*
X1750273Y1566854D01*
X1750340Y1566765D01*
X1750410Y1566679D01*
X1750483Y1566596D01*
X1750558Y1566514D01*
X1750636Y1566436D01*
X1750718Y1566361D01*
X1750801Y1566288D01*
X1750887Y1566218D01*
X1750976Y1566151D01*
X1751067Y1566088D01*
X1751160Y1566027D01*
X1751255Y1565970D01*
X1751351Y1565917D01*
X1751450Y1565866D01*
X1751551Y1565819D01*
X1751653Y1565776D01*
X1751756Y1565736D01*
X1751861Y1565700D01*
X1751967Y1565668D01*
X1752074Y1565639D01*
X1752182Y1565614D01*
X1752291Y1565593D01*
X1752400Y1565576D01*
X1752510Y1565562D01*
X1752621Y1565553D01*
X1752731Y1565547D01*
X1752842Y1565545D01*
X1752953Y1565547D01*
X1753063Y1565553D01*
X1753174Y1565562D01*
X1753284Y1565576D01*
X1753393Y1565593D01*
X1753502Y1565614D01*
X1753610Y1565639D01*
X1753717Y1565668D01*
X1753823Y1565700D01*
X1753928Y1565736D01*
X1754031Y1565776D01*
X1754133Y1565819D01*
X1754234Y1565866D01*
X1754333Y1565917D01*
X1754430Y1565970D01*
X1754524Y1566027D01*
X1754617Y1566088D01*
X1754708Y1566151D01*
X1754797Y1566218D01*
X1754883Y1566288D01*
X1754966Y1566361D01*
X1755048Y1566436D01*
X1755126Y1566514D01*
X1755201Y1566596D01*
X1755274Y1566679D01*
X1755344Y1566765D01*
X1755411Y1566854D01*
X1755474Y1566945D01*
X1755535Y1567038D01*
X1755592Y1567133D01*
X1755645Y1567229D01*
X1755696Y1567328D01*
X1755743Y1567429D01*
X1755786Y1567531D01*
X1755826Y1567634D01*
X1755862Y1567739D01*
X1755894Y1567845D01*
X1755923Y1567952D01*
X1755948Y1568060D01*
X1755969Y1568169D01*
X1755986Y1568278D01*
X1756000Y1568388D01*
X1756009Y1568499D01*
X1756015Y1568609D01*
X1756017Y1568720D01*
X1755382Y1574435D02*
X1755380Y1574535D01*
X1755374Y1574634D01*
X1755364Y1574734D01*
X1755351Y1574832D01*
X1755333Y1574931D01*
X1755312Y1575028D01*
X1755287Y1575124D01*
X1755258Y1575220D01*
X1755225Y1575314D01*
X1755189Y1575407D01*
X1755149Y1575498D01*
X1755105Y1575588D01*
X1755058Y1575676D01*
X1755008Y1575762D01*
X1754954Y1575846D01*
X1754897Y1575928D01*
X1754837Y1576007D01*
X1754773Y1576085D01*
X1754707Y1576159D01*
X1754638Y1576231D01*
X1754566Y1576300D01*
X1754492Y1576366D01*
X1754414Y1576430D01*
X1754335Y1576490D01*
X1754253Y1576547D01*
X1754169Y1576601D01*
X1754083Y1576651D01*
X1753995Y1576698D01*
X1753905Y1576742D01*
X1753814Y1576782D01*
X1753721Y1576818D01*
X1753627Y1576851D01*
X1753531Y1576880D01*
X1753435Y1576905D01*
X1753338Y1576926D01*
X1753239Y1576944D01*
X1753141Y1576957D01*
X1753041Y1576967D01*
X1752942Y1576973D01*
X1752842Y1576975D01*
X1752742Y1576973D01*
X1752643Y1576967D01*
X1752543Y1576957D01*
X1752445Y1576944D01*
X1752346Y1576926D01*
X1752249Y1576905D01*
X1752153Y1576880D01*
X1752057Y1576851D01*
X1751963Y1576818D01*
X1751870Y1576782D01*
X1751779Y1576742D01*
X1751689Y1576698D01*
X1751601Y1576651D01*
X1751515Y1576601D01*
X1751431Y1576547D01*
X1751349Y1576490D01*
X1751270Y1576430D01*
X1751192Y1576366D01*
X1751118Y1576300D01*
X1751046Y1576231D01*
X1750977Y1576159D01*
X1750911Y1576085D01*
X1750847Y1576007D01*
X1750787Y1575928D01*
X1750730Y1575846D01*
X1750676Y1575762D01*
X1750626Y1575676D01*
X1750579Y1575588D01*
X1750535Y1575498D01*
X1750495Y1575407D01*
X1750459Y1575314D01*
X1750426Y1575220D01*
X1750397Y1575124D01*
X1750372Y1575028D01*
X1750351Y1574931D01*
X1750333Y1574832D01*
X1750320Y1574734D01*
X1750310Y1574634D01*
X1750304Y1574535D01*
X1750302Y1574435D01*
X1750304Y1574335D01*
X1750310Y1574236D01*
X1750320Y1574136D01*
X1750333Y1574038D01*
X1750351Y1573939D01*
X1750372Y1573842D01*
X1750397Y1573746D01*
X1750426Y1573650D01*
X1750459Y1573556D01*
X1750495Y1573463D01*
X1750535Y1573372D01*
X1750579Y1573282D01*
X1750626Y1573194D01*
X1750676Y1573108D01*
X1750730Y1573024D01*
X1750787Y1572942D01*
X1750847Y1572863D01*
X1750911Y1572785D01*
X1750977Y1572711D01*
X1751046Y1572639D01*
X1751118Y1572570D01*
X1751192Y1572504D01*
X1751270Y1572440D01*
X1751349Y1572380D01*
X1751431Y1572323D01*
X1751515Y1572269D01*
X1751601Y1572219D01*
X1751689Y1572172D01*
X1751779Y1572128D01*
X1751870Y1572088D01*
X1751963Y1572052D01*
X1752057Y1572019D01*
X1752153Y1571990D01*
X1752249Y1571965D01*
X1752346Y1571944D01*
X1752445Y1571926D01*
X1752543Y1571913D01*
X1752643Y1571903D01*
X1752742Y1571897D01*
X1752842Y1571895D01*
X1752942Y1571897D01*
X1753041Y1571903D01*
X1753141Y1571913D01*
X1753239Y1571926D01*
X1753338Y1571944D01*
X1753435Y1571965D01*
X1753531Y1571990D01*
X1753627Y1572019D01*
X1753721Y1572052D01*
X1753814Y1572088D01*
X1753905Y1572128D01*
X1753995Y1572172D01*
X1754083Y1572219D01*
X1754169Y1572269D01*
X1754253Y1572323D01*
X1754335Y1572380D01*
X1754414Y1572440D01*
X1754492Y1572504D01*
X1754566Y1572570D01*
X1754638Y1572639D01*
X1754707Y1572711D01*
X1754773Y1572785D01*
X1754837Y1572863D01*
X1754897Y1572942D01*
X1754954Y1573024D01*
X1755008Y1573108D01*
X1755058Y1573194D01*
X1755105Y1573282D01*
X1755149Y1573372D01*
X1755189Y1573463D01*
X1755225Y1573556D01*
X1755258Y1573650D01*
X1755287Y1573746D01*
X1755312Y1573842D01*
X1755333Y1573939D01*
X1755351Y1574038D01*
X1755364Y1574136D01*
X1755374Y1574236D01*
X1755380Y1574335D01*
X1755382Y1574435D01*
M02*
