<svg width="1301.598mm" height="385.2mm" viewBox="0 0 1301.598 385.2" xmlns="http://www.w3.org/2000/svg" version="1.1" preserveAspectRatio="xMidYMid meet"><g id="svgGroup" stroke-linecap="round" fill-rule="evenodd" font-size="9pt" stroke="#000" stroke-width="0.25mm" fill="none" style="stroke:#000;stroke-width:0.25mm;fill:none"><path d="M 308.717 42 L 296.1 42 L 296.1 39 L 290.1 39 L 290.1 42 L 284.1 42 L 284.1 39 L 278.1 39 L 278.1 42 L 272.1 42 L 272.1 39 L 266.1 39 L 266.1 42 L 260.1 42 L 260.1 39 L 254.1 39 L 254.1 42 L 248.1 42 L 248.1 39 L 242.1 39 L 242.1 42 L 236.1 42 L 236.1 39 L 230.1 39 L 230.1 42 L 224.1 42 L 224.1 39 L 218.1 39 L 218.1 42 L 212.1 42 L 212.1 39 L 206.1 39 L 206.1 42 L 200.1 42 L 200.1 39 L 194.1 39 L 194.1 42 L 188.1 42 L 188.1 39 L 182.1 39 L 182.1 42 L 176.1 42 L 176.1 39 L 170.1 39 L 170.1 42 L 164.1 42 L 164.1 39 L 158.1 39 L 158.1 42 L 152.1 42 L 152.1 39 L 146.1 39 L 146.1 42 L 140.1 42 L 140.1 39 L 134.1 39 L 134.1 42 L 128.1 42 L 128.1 39 L 122.1 39 L 122.1 42 L 116.1 42 L 116.1 39 L 110.1 39 L 110.1 42 L 104.1 42 L 104.1 39 L 98.1 39 L 98.1 42 L 92.1 42 L 92.1 39 L 86.1 39 L 86.1 42 L 80.1 42 L 80.1 39 L 74.1 39 L 74.1 42 L 68.1 42 L 68.1 39 L 62.1 39 L 62.1 42 L 56.1 42 L 56.1 39 L 50.1 39 L 50.1 42 L 44.1 42 L 37.483 42 L 34.985 42.091 L 32.5 42.362 L 30.042 42.812 L 27.622 43.44 L 25.255 44.241 L 22.951 45.211 L 20.724 46.346 L 18.585 47.639 L 16.546 49.084 L 14.616 50.672 L 12.807 52.397 L 11.127 54.247 L 9.585 56.215 L 8.19 58.289 L 6.949 60.459 L 5.869 62.712 L 4.954 65.039 L 4.211 67.425 L 3.642 69.859 L 3.251 72.327 L 3.04 74.818 L 3 76.483 L 3 89.1 L 0 89.1 L 0 95.1 L 3 95.1 L 3 101.1 L 0 101.1 L 0 107.1 L 3 107.1 L 3 113.1 L 0 113.1 L 0 119.1 L 3 119.1 L 3 125.1 L 0 125.1 L 0 131.1 L 3 131.1 L 3 137.1 L 0 137.1 L 0 143.1 L 3 143.1 L 3 149.1 L 0 149.1 L 0 155.1 L 3 155.1 L 3 161.1 L 0 161.1 L 0 167.1 L 3 167.1 L 3 173.1 L 0 173.1 L 0 179.1 L 3 179.1 L 3 185.1 L 0 185.1 L 0 191.1 L 3 191.1 L 3 197.1 L 0 197.1 L 0 203.1 L 3 203.1 L 3 209.1 L 0 209.1 L 0 215.1 L 3 215.1 L 3 221.1 L 0 221.1 L 0 227.1 L 3 227.1 L 3 233.1 L 0 233.1 L 0 239.1 L 3 239.1 L 3 245.1 L 0 245.1 L 0 251.1 L 3 251.1 L 3 257.1 L 0 257.1 L 0 263.1 L 3 263.1 L 3 269.1 L 0 269.1 L 0 275.1 L 3 275.1 L 3 281.1 L 0 281.1 L 0 287.1 L 3 287.1 L 3 293.1 L 0 293.1 L 0 299.1 L 3 299.1 L 3 305.1 L 0 305.1 L 0 311.1 L 3 311.1 L 3 317.1 L 0 317.1 L 0 323.1 L 3 323.1 L 3 329.1 L 0 329.1 L 0 335.1 L 3 335.1 L 3 341.1 L 3 347.717 L 3.091 350.215 L 3.362 352.699 L 3.812 355.158 L 4.44 357.577 L 5.241 359.945 L 6.211 362.248 L 7.346 364.475 L 8.639 366.614 L 10.084 368.654 L 11.672 370.584 L 13.397 372.393 L 15.247 374.073 L 17.215 375.614 L 19.289 377.009 L 21.459 378.25 L 23.712 379.331 L 26.039 380.245 L 28.425 380.989 L 30.859 381.557 L 33.327 381.948 L 35.818 382.159 L 37.483 382.2 L 48.291 382.2 L 48.291 385.2 L 54.291 385.2 L 54.291 382.2 L 60.291 382.2 L 60.291 385.2 L 66.291 385.2 L 66.291 382.2 L 72.291 382.2 L 72.291 385.2 L 78.291 385.2 L 78.291 382.2 L 84.291 382.2 L 84.291 385.2 L 90.291 385.2 L 90.291 382.2 L 96.291 382.2 L 96.291 385.2 L 102.291 385.2 L 102.291 382.2 L 108.291 382.2 L 108.291 385.2 L 114.291 385.2 L 114.291 382.2 L 120.291 382.2 L 120.291 385.2 L 126.291 385.2 L 126.291 382.2 L 132.291 382.2 L 132.291 385.2 L 138.291 385.2 L 138.291 382.2 L 144.291 382.2 L 144.291 385.2 L 150.291 385.2 L 150.291 382.2 L 156.291 382.2 L 156.291 385.2 L 162.291 385.2 L 162.291 382.2 L 168.291 382.2 L 173.1 382.2 L 183.908 382.2 L 183.908 385.2 L 189.908 385.2 L 189.908 382.2 L 195.908 382.2 L 195.908 385.2 L 201.908 385.2 L 201.908 382.2 L 207.908 382.2 L 207.908 385.2 L 213.908 385.2 L 213.908 382.2 L 219.908 382.2 L 219.908 385.2 L 225.908 385.2 L 225.908 382.2 L 231.908 382.2 L 231.908 385.2 L 237.908 385.2 L 237.908 382.2 L 243.908 382.2 L 243.908 385.2 L 249.908 385.2 L 249.908 382.2 L 255.908 382.2 L 255.908 385.2 L 261.908 385.2 L 261.908 382.2 L 267.908 382.2 L 267.908 385.2 L 273.908 385.2 L 273.908 382.2 L 279.908 382.2 L 279.908 385.2 L 285.908 385.2 L 285.908 382.2 L 291.908 382.2 L 291.908 385.2 L 297.908 385.2 L 297.908 382.2 L 303.908 382.2 L 308.717 382.2 L 311.215 382.109 L 313.699 381.838 L 316.158 381.387 L 318.577 380.76 L 320.945 379.959 L 323.248 378.988 L 325.475 377.853 L 327.614 376.56 L 329.654 375.116 L 331.584 373.527 L 333.393 371.803 L 335.073 369.952 L 336.614 367.985 L 338.009 365.911 L 339.25 363.741 L 340.331 361.487 L 341.245 359.161 L 341.989 356.775 L 342.557 354.341 L 342.948 351.872 L 343.159 349.382 L 343.2 347.717 L 343.2 335.1 L 346.2 335.1 L 346.2 329.1 L 343.2 329.1 L 343.2 323.1 L 346.2 323.1 L 346.2 317.1 L 343.2 317.1 L 343.2 311.1 L 346.2 311.1 L 346.2 305.1 L 343.2 305.1 L 343.2 299.1 L 346.2 299.1 L 346.2 293.1 L 343.2 293.1 L 343.2 287.1 L 346.2 287.1 L 346.2 281.1 L 343.2 281.1 L 343.2 275.1 L 346.2 275.1 L 346.2 269.1 L 343.2 269.1 L 343.2 263.1 L 346.2 263.1 L 346.2 257.1 L 343.2 257.1 L 343.2 251.1 L 346.2 251.1 L 346.2 245.1 L 343.2 245.1 L 343.2 239.1 L 346.2 239.1 L 346.2 233.1 L 343.2 233.1 L 343.2 227.1 L 346.2 227.1 L 346.2 221.1 L 343.2 221.1 L 343.2 215.1 L 346.2 215.1 L 346.2 209.1 L 343.2 209.1 L 343.2 203.1 L 346.2 203.1 L 346.2 197.1 L 343.2 197.1 L 343.2 191.1 L 346.2 191.1 L 346.2 185.1 L 343.2 185.1 L 343.2 179.1 L 346.2 179.1 L 346.2 173.1 L 343.2 173.1 L 343.2 167.1 L 346.2 167.1 L 346.2 161.1 L 343.2 161.1 L 343.2 155.1 L 346.2 155.1 L 346.2 149.1 L 343.2 149.1 L 343.2 143.1 L 346.2 143.1 L 346.2 137.1 L 343.2 137.1 L 343.2 131.1 L 346.2 131.1 L 346.2 125.1 L 343.2 125.1 L 343.2 119.1 L 346.2 119.1 L 346.2 113.1 L 343.2 113.1 L 343.2 107.1 L 346.2 107.1 L 346.2 101.1 L 343.2 101.1 L 343.2 95.1 L 346.2 95.1 L 346.2 89.1 L 343.2 89.1 L 343.2 83.1 L 343.2 76.483 L 343.109 73.985 L 342.838 71.5 L 342.387 69.042 L 341.76 66.622 L 340.959 64.255 L 339.988 61.951 L 338.853 59.724 L 337.56 57.585 L 336.116 55.546 L 334.527 53.616 L 332.803 51.807 L 330.952 50.127 L 328.985 48.585 L 326.911 47.19 L 324.741 45.949 L 322.487 44.869 L 320.161 43.954 L 317.775 43.211 L 315.341 42.642 L 312.872 42.251 L 310.382 42.04 L 308.717 42 Z" id="TOP_outsideCutPath" stroke="#FF0000" stroke-width="0.1" style="stroke:#FF0000;stroke-width:0.1" vector-effect="non-scaling-stroke"/><path d="M 129.622 192.542 L 129.622 236.865 L 123.874 236.865 L 123.874 192.542 L 108.221 192.542 L 108.221 187.436 L 145.275 187.436 L 145.275 192.542 L 129.622 192.542 Z M 189.615 230.745 A 21.095 21.095 0 0 0 191.824 227.745 Q 195.616 221.516 195.616 212.083 Q 195.616 200.182 189.632 193.421 A 19.204 19.204 0 0 0 180.05 187.532 A 26.923 26.923 0 0 0 172.998 186.659 A 29.4 29.4 0 0 0 166.604 187.316 A 19.345 19.345 0 0 0 156.094 193.302 A 20.304 20.304 0 0 0 153.38 197.163 Q 150.143 203.113 150.143 212.015 A 45.551 45.551 0 0 0 150.253 215.229 Q 150.535 219.206 151.535 222.517 A 21.909 21.909 0 0 0 156.077 230.864 A 19.128 19.128 0 0 0 166.012 236.752 A 28.569 28.569 0 0 0 172.93 237.541 A 28.707 28.707 0 0 0 177.979 237.116 A 19.625 19.625 0 0 0 189.615 230.745 Z M 218.2 217.425 L 212.385 217.425 L 212.385 236.865 L 206.637 236.865 L 206.637 187.436 L 219.451 187.436 Q 236.667 187.436 237.885 199.873 A 20.172 20.172 0 0 1 237.978 201.839 A 17.527 17.527 0 0 1 237.331 206.737 A 12.819 12.819 0 0 1 232.856 213.385 Q 228.844 216.549 222.124 217.235 A 38.699 38.699 0 0 1 218.2 217.425 Z M 156.229 212.083 A 37.763 37.763 0 0 0 156.626 217.751 Q 157.532 223.705 160.506 227.314 A 13.831 13.831 0 0 0 168.653 232.093 A 21.114 21.114 0 0 0 172.93 232.503 A 20.731 20.731 0 0 0 177.889 231.946 A 13.418 13.418 0 0 0 185.338 227.331 A 16.588 16.588 0 0 0 188.129 222.094 Q 188.917 219.739 189.262 216.866 A 40.21 40.21 0 0 0 189.53 212.083 A 38.152 38.152 0 0 0 189.143 206.453 Q 188.707 203.542 187.783 201.195 A 16.003 16.003 0 0 0 185.355 196.954 A 13.438 13.438 0 0 0 177.612 192.276 A 20.951 20.951 0 0 0 172.998 191.798 A 20.78 20.78 0 0 0 168.031 192.357 A 13.699 13.699 0 0 0 160.506 196.987 A 16.814 16.814 0 0 0 157.545 202.545 Q 156.229 206.588 156.229 212.083 Z M 212.385 192.406 L 212.385 212.489 L 217.558 212.489 A 37.72 37.72 0 0 0 221.319 212.314 Q 225.147 211.929 227.518 210.693 A 8.866 8.866 0 0 0 228.613 210.021 A 7.847 7.847 0 0 0 231.606 205.569 Q 231.975 204.216 232.021 202.582 A 16.741 16.741 0 0 0 232.028 202.109 A 11.843 11.843 0 0 0 231.698 199.226 A 7.658 7.658 0 0 0 228.816 194.807 Q 225.809 192.56 219.661 192.416 A 36.572 36.572 0 0 0 218.808 192.406 L 212.385 192.406 Z" id="TOP_labelLayer" stroke="#777777" fill="#777777" style="stroke:#777777;fill:#777777" vector-effect="non-scaling-stroke"/><path d="M 657.916 42 L 645.299 42 L 645.299 39 L 639.299 39 L 639.299 42 L 633.299 42 L 633.299 39 L 627.299 39 L 627.299 42 L 621.299 42 L 621.299 39 L 615.299 39 L 615.299 42 L 609.299 42 L 609.299 39 L 603.299 39 L 603.299 42 L 597.299 42 L 597.299 39 L 591.299 39 L 591.299 42 L 585.299 42 L 585.299 39 L 579.299 39 L 579.299 42 L 573.299 42 L 573.299 39 L 567.299 39 L 567.299 42 L 561.299 42 L 561.299 39 L 555.299 39 L 555.299 42 L 549.299 42 L 549.299 39 L 543.299 39 L 543.299 42 L 537.299 42 L 537.299 39 L 531.299 39 L 531.299 42 L 525.299 42 L 525.299 39 L 519.299 39 L 519.299 42 L 513.299 42 L 513.299 39 L 507.299 39 L 507.299 42 L 501.299 42 L 501.299 39 L 495.299 39 L 495.299 42 L 489.299 42 L 489.299 39 L 483.299 39 L 483.299 42 L 477.299 42 L 477.299 39 L 471.299 39 L 471.299 42 L 465.299 42 L 465.299 39 L 459.299 39 L 459.299 42 L 453.299 42 L 453.299 39 L 447.299 39 L 447.299 42 L 441.299 42 L 441.299 39 L 435.299 39 L 435.299 42 L 429.299 42 L 429.299 39 L 423.299 39 L 423.299 42 L 417.299 42 L 417.299 39 L 411.299 39 L 411.299 42 L 405.299 42 L 405.299 39 L 399.299 39 L 399.299 42 L 393.299 42 L 386.682 42 L 384.185 42.091 L 381.7 42.362 L 379.241 42.812 L 376.822 43.44 L 374.454 44.241 L 372.151 45.211 L 369.924 46.346 L 367.785 47.639 L 365.745 49.084 L 363.816 50.672 L 362.006 52.397 L 360.326 54.247 L 358.785 56.215 L 357.39 58.289 L 356.149 60.459 L 355.068 62.712 L 354.154 65.039 L 353.41 67.425 L 352.842 69.859 L 352.451 72.327 L 352.24 74.818 L 352.2 76.483 L 352.2 89.1 L 349.2 89.1 L 349.2 95.1 L 352.2 95.1 L 352.2 101.1 L 349.2 101.1 L 349.2 107.1 L 352.2 107.1 L 352.2 113.1 L 349.2 113.1 L 349.2 119.1 L 352.2 119.1 L 352.2 125.1 L 349.2 125.1 L 349.2 131.1 L 352.2 131.1 L 352.2 137.1 L 349.2 137.1 L 349.2 143.1 L 352.2 143.1 L 352.2 149.1 L 349.2 149.1 L 349.2 155.1 L 352.2 155.1 L 352.2 161.1 L 349.2 161.1 L 349.2 167.1 L 352.2 167.1 L 352.2 173.1 L 349.2 173.1 L 349.2 179.1 L 352.2 179.1 L 352.2 185.1 L 349.2 185.1 L 349.2 191.1 L 352.2 191.1 L 352.2 197.1 L 349.2 197.1 L 349.2 203.1 L 352.2 203.1 L 352.2 209.1 L 349.2 209.1 L 349.2 215.1 L 352.2 215.1 L 352.2 221.1 L 349.2 221.1 L 349.2 227.1 L 352.2 227.1 L 352.2 233.1 L 349.2 233.1 L 349.2 239.1 L 352.2 239.1 L 352.2 245.1 L 349.2 245.1 L 349.2 251.1 L 352.2 251.1 L 352.2 257.1 L 349.2 257.1 L 349.2 263.1 L 352.2 263.1 L 352.2 269.1 L 349.2 269.1 L 349.2 275.1 L 352.2 275.1 L 352.2 281.1 L 349.2 281.1 L 349.2 287.1 L 352.2 287.1 L 352.2 293.1 L 349.2 293.1 L 349.2 299.1 L 352.2 299.1 L 352.2 305.1 L 349.2 305.1 L 349.2 311.1 L 352.2 311.1 L 352.2 317.1 L 349.2 317.1 L 349.2 323.1 L 352.2 323.1 L 352.2 329.1 L 349.2 329.1 L 349.2 335.1 L 352.2 335.1 L 352.2 341.1 L 352.2 347.717 L 352.29 350.215 L 352.561 352.699 L 353.012 355.158 L 353.639 357.577 L 354.44 359.945 L 355.411 362.248 L 356.546 364.475 L 357.839 366.614 L 359.283 368.654 L 360.872 370.584 L 362.596 372.393 L 364.447 374.073 L 366.414 375.614 L 368.489 377.009 L 370.658 378.25 L 372.912 379.331 L 375.238 380.245 L 377.624 380.989 L 380.058 381.557 L 382.527 381.948 L 385.018 382.159 L 386.682 382.2 L 397.491 382.2 L 397.491 385.2 L 403.491 385.2 L 403.491 382.2 L 409.491 382.2 L 409.491 385.2 L 415.491 385.2 L 415.491 382.2 L 421.491 382.2 L 421.491 385.2 L 427.491 385.2 L 427.491 382.2 L 433.491 382.2 L 433.491 385.2 L 439.491 385.2 L 439.491 382.2 L 445.491 382.2 L 445.491 385.2 L 451.491 385.2 L 451.491 382.2 L 457.491 382.2 L 457.491 385.2 L 463.491 385.2 L 463.491 382.2 L 469.491 382.2 L 469.491 385.2 L 475.491 385.2 L 475.491 382.2 L 481.491 382.2 L 481.491 385.2 L 487.491 385.2 L 487.491 382.2 L 493.491 382.2 L 493.491 385.2 L 499.491 385.2 L 499.491 382.2 L 505.491 382.2 L 505.491 385.2 L 511.491 385.2 L 511.491 382.2 L 517.491 382.2 L 522.299 382.2 L 533.108 382.2 L 533.108 385.2 L 539.108 385.2 L 539.108 382.2 L 545.108 382.2 L 545.108 385.2 L 551.108 385.2 L 551.108 382.2 L 557.108 382.2 L 557.108 385.2 L 563.108 385.2 L 563.108 382.2 L 569.108 382.2 L 569.108 385.2 L 575.108 385.2 L 575.108 382.2 L 581.108 382.2 L 581.108 385.2 L 587.108 385.2 L 587.108 382.2 L 593.108 382.2 L 593.108 385.2 L 599.108 385.2 L 599.108 382.2 L 605.108 382.2 L 605.108 385.2 L 611.108 385.2 L 611.108 382.2 L 617.108 382.2 L 617.108 385.2 L 623.108 385.2 L 623.108 382.2 L 629.108 382.2 L 629.108 385.2 L 635.108 385.2 L 635.108 382.2 L 641.108 382.2 L 641.108 385.2 L 647.108 385.2 L 647.108 382.2 L 653.108 382.2 L 657.916 382.2 L 660.414 382.109 L 662.899 381.838 L 665.357 381.387 L 667.777 380.76 L 670.144 379.959 L 672.448 378.988 L 674.675 377.853 L 676.814 376.56 L 678.853 375.116 L 680.783 373.527 L 682.593 371.803 L 684.272 369.952 L 685.814 367.985 L 687.209 365.911 L 688.45 363.741 L 689.53 361.487 L 690.445 359.161 L 691.188 356.775 L 691.757 354.341 L 692.148 351.872 L 692.359 349.382 L 692.399 347.717 L 692.399 335.1 L 695.399 335.1 L 695.399 329.1 L 692.399 329.1 L 692.399 323.1 L 695.399 323.1 L 695.399 317.1 L 692.399 317.1 L 692.399 311.1 L 695.399 311.1 L 695.399 305.1 L 692.399 305.1 L 692.399 299.1 L 695.399 299.1 L 695.399 293.1 L 692.399 293.1 L 692.399 287.1 L 695.399 287.1 L 695.399 281.1 L 692.399 281.1 L 692.399 275.1 L 695.399 275.1 L 695.399 269.1 L 692.399 269.1 L 692.399 263.1 L 695.399 263.1 L 695.399 257.1 L 692.399 257.1 L 692.399 251.1 L 695.399 251.1 L 695.399 245.1 L 692.399 245.1 L 692.399 239.1 L 695.399 239.1 L 695.399 233.1 L 692.399 233.1 L 692.399 227.1 L 695.399 227.1 L 695.399 221.1 L 692.399 221.1 L 692.399 215.1 L 695.399 215.1 L 695.399 209.1 L 692.399 209.1 L 692.399 203.1 L 695.399 203.1 L 695.399 197.1 L 692.399 197.1 L 692.399 191.1 L 695.399 191.1 L 695.399 185.1 L 692.399 185.1 L 692.399 179.1 L 695.399 179.1 L 695.399 173.1 L 692.399 173.1 L 692.399 167.1 L 695.399 167.1 L 695.399 161.1 L 692.399 161.1 L 692.399 155.1 L 695.399 155.1 L 695.399 149.1 L 692.399 149.1 L 692.399 143.1 L 695.399 143.1 L 695.399 137.1 L 692.399 137.1 L 692.399 131.1 L 695.399 131.1 L 695.399 125.1 L 692.399 125.1 L 692.399 119.1 L 695.399 119.1 L 695.399 113.1 L 692.399 113.1 L 692.399 107.1 L 695.399 107.1 L 695.399 101.1 L 692.399 101.1 L 692.399 95.1 L 695.399 95.1 L 695.399 89.1 L 692.399 89.1 L 692.399 83.1 L 692.399 76.483 L 692.309 73.985 L 692.037 71.5 L 691.587 69.042 L 690.959 66.622 L 690.158 64.255 L 689.188 61.951 L 688.053 59.724 L 686.76 57.585 L 685.315 55.546 L 683.727 53.616 L 682.002 51.807 L 680.152 50.127 L 678.184 48.585 L 676.11 47.19 L 673.941 45.949 L 671.687 44.869 L 669.361 43.954 L 666.974 43.211 L 664.54 42.642 L 662.072 42.251 L 659.581 42.04 L 657.916 42 Z" id="BOTTOM_outsideCutPath" stroke="#FF0000" stroke-width="0.1" style="stroke:#FF0000;stroke-width:0.1" vector-effect="non-scaling-stroke"/><path d="M 638.99 236.865 L 634.358 236.865 L 617.589 193.049 L 617.318 193.049 Q 617.792 198.255 617.792 205.423 L 617.792 236.865 L 612.484 236.865 L 612.484 187.436 L 621.139 187.436 L 636.792 228.21 L 637.062 228.21 L 652.851 187.436 L 661.438 187.436 L 661.438 236.865 L 655.691 236.865 L 655.691 205.017 A 146.206 146.206 0 0 1 655.841 198.556 A 186.286 186.286 0 0 1 656.164 193.116 L 655.894 193.116 L 638.99 236.865 Z M 497.163 192.542 L 497.163 236.865 L 491.415 236.865 L 491.415 192.542 L 475.762 192.542 L 475.762 187.436 L 512.816 187.436 L 512.816 192.542 L 497.163 192.542 Z M 535.468 192.542 L 535.468 236.865 L 529.72 236.865 L 529.72 192.542 L 514.067 192.542 L 514.067 187.436 L 551.121 187.436 L 551.121 192.542 L 535.468 192.542 Z M 383.16 236.865 L 383.16 187.436 L 397.123 187.436 A 52.44 52.44 0 0 1 401.966 187.644 Q 406.805 188.094 409.834 189.523 A 11.718 11.718 0 0 1 411.357 190.378 A 9.554 9.554 0 0 1 415.494 196.797 A 15.225 15.225 0 0 1 415.752 199.675 A 12.959 12.959 0 0 1 415.347 202.992 A 9.799 9.799 0 0 1 413.301 206.927 A 10.163 10.163 0 0 1 409.656 209.584 Q 408.096 210.279 406.15 210.629 L 406.15 210.967 A 19.869 19.869 0 0 1 410.809 212.309 Q 416.83 214.961 417.358 221.508 A 16.098 16.098 0 0 1 417.408 222.8 A 15.72 15.72 0 0 1 416.804 227.275 A 11.838 11.838 0 0 1 412.929 233.146 A 14.936 14.936 0 0 1 407.606 235.92 Q 404.457 236.865 400.403 236.865 L 383.16 236.865 Z M 464.926 230.745 A 21.095 21.095 0 0 0 467.135 227.745 Q 470.927 221.516 470.927 212.083 Q 470.927 200.182 464.943 193.421 A 19.204 19.204 0 0 0 455.361 187.532 A 26.923 26.923 0 0 0 448.309 186.659 A 29.4 29.4 0 0 0 441.915 187.316 A 19.345 19.345 0 0 0 431.405 193.302 A 20.304 20.304 0 0 0 428.692 197.163 Q 425.455 203.113 425.455 212.015 A 45.551 45.551 0 0 0 425.565 215.229 Q 425.846 219.206 426.847 222.517 A 21.909 21.909 0 0 0 431.388 230.864 A 19.128 19.128 0 0 0 441.323 236.752 A 28.569 28.569 0 0 0 448.242 237.541 A 28.707 28.707 0 0 0 453.291 237.116 A 19.625 19.625 0 0 0 464.926 230.745 Z M 595.461 230.745 A 21.095 21.095 0 0 0 597.67 227.745 Q 601.462 221.516 601.462 212.083 Q 601.462 200.182 595.478 193.421 A 19.204 19.204 0 0 0 585.896 187.532 A 26.923 26.923 0 0 0 578.844 186.659 A 29.4 29.4 0 0 0 572.45 187.316 A 19.345 19.345 0 0 0 561.94 193.302 A 20.304 20.304 0 0 0 559.226 197.163 Q 555.99 203.113 555.99 212.015 A 45.551 45.551 0 0 0 556.1 215.229 Q 556.381 219.206 557.382 222.517 A 21.909 21.909 0 0 0 561.923 230.864 A 19.128 19.128 0 0 0 571.858 236.752 A 28.569 28.569 0 0 0 578.777 237.541 A 28.707 28.707 0 0 0 583.826 237.116 A 19.625 19.625 0 0 0 595.461 230.745 Z M 431.54 212.083 A 37.763 37.763 0 0 0 431.937 217.751 Q 432.843 223.705 435.817 227.314 A 13.831 13.831 0 0 0 443.965 232.093 A 21.114 21.114 0 0 0 448.242 232.503 A 20.731 20.731 0 0 0 453.2 231.946 A 13.418 13.418 0 0 0 460.649 227.331 A 16.588 16.588 0 0 0 463.441 222.094 Q 464.229 219.739 464.573 216.866 A 40.21 40.21 0 0 0 464.842 212.083 A 38.152 38.152 0 0 0 464.454 206.453 Q 464.019 203.542 463.094 201.195 A 16.003 16.003 0 0 0 460.666 196.954 A 13.438 13.438 0 0 0 452.923 192.276 A 20.951 20.951 0 0 0 448.309 191.798 A 20.78 20.78 0 0 0 443.342 192.357 A 13.699 13.699 0 0 0 435.817 196.987 A 16.814 16.814 0 0 0 432.856 202.545 Q 431.54 206.588 431.54 212.083 Z M 562.075 212.083 A 37.763 37.763 0 0 0 562.472 217.751 Q 563.378 223.705 566.352 227.314 A 13.831 13.831 0 0 0 574.5 232.093 A 21.114 21.114 0 0 0 578.777 232.503 A 20.731 20.731 0 0 0 583.735 231.946 A 13.418 13.418 0 0 0 591.184 227.331 A 16.588 16.588 0 0 0 593.975 222.094 Q 594.763 219.739 595.108 216.866 A 40.21 40.21 0 0 0 595.377 212.083 A 38.152 38.152 0 0 0 594.989 206.453 Q 594.554 203.542 593.629 201.195 A 16.003 16.003 0 0 0 591.201 196.954 A 13.438 13.438 0 0 0 583.458 192.276 A 20.951 20.951 0 0 0 578.844 191.798 A 20.78 20.78 0 0 0 573.877 192.357 A 13.699 13.699 0 0 0 566.352 196.987 A 16.814 16.814 0 0 0 563.391 202.545 Q 562.075 206.588 562.075 212.083 Z M 398.746 213.469 L 388.908 213.469 L 388.908 231.962 L 399.219 231.962 A 24.739 24.739 0 0 0 402.512 231.758 Q 404.18 231.534 405.533 231.061 A 9.606 9.606 0 0 0 408.229 229.646 A 7.345 7.345 0 0 0 410.856 225.635 Q 411.204 224.374 411.249 222.851 A 15.516 15.516 0 0 0 411.255 222.395 Q 411.255 217.797 408.162 215.633 Q 405.068 213.469 398.746 213.469 Z M 388.908 192.406 L 388.908 208.601 L 398.374 208.601 A 30.801 30.801 0 0 0 401.366 208.466 Q 405.169 208.093 407.13 206.69 A 5.949 5.949 0 0 0 409.322 203.619 Q 409.801 202.17 409.801 200.25 A 9.085 9.085 0 0 0 409.514 197.89 A 5.942 5.942 0 0 0 406.826 194.249 A 9.645 9.645 0 0 0 404.56 193.258 Q 402.275 192.56 398.901 192.434 A 41.335 41.335 0 0 0 397.36 192.406 L 388.908 192.406 Z" id="BOTTOM_labelLayer" stroke="#777777" fill="#777777" style="stroke:#777777;fill:#777777" vector-effect="non-scaling-stroke"/><path d="M 135.617 36 135.617 27 M 135.617 22.5 135.617 13.5 M 135.617 9 135.617 0 M 138.627 36 138.627 33.75 M 138.627 29.25 138.627 20.25 M 138.627 15.75 138.627 6.75 M 138.627 2.25 138.627 0 M 141.636 36 141.636 27 M 141.636 22.5 141.636 13.5 M 141.636 9 141.636 0 M 144.646 36 144.646 33.75 M 144.646 29.25 144.646 20.25 M 144.646 15.75 144.646 6.75 M 144.646 2.25 144.646 0 M 147.656 36 147.656 27 M 147.656 22.5 147.656 13.5 M 147.656 9 147.656 0 M 150.666 36 150.666 33.75 M 150.666 29.25 150.666 20.25 M 150.666 15.75 150.666 6.75 M 150.666 2.25 150.666 0 M 153.675 36 153.675 27 M 153.675 22.5 153.675 13.5 M 153.675 9 153.675 0 M 156.685 36 156.685 33.75 M 156.685 29.25 156.685 20.25 M 156.685 15.75 156.685 6.75 M 156.685 2.25 156.685 0 M 159.695 36 159.695 27 M 159.695 22.5 159.695 13.5 M 159.695 9 159.695 0 M 162.705 36 162.705 33.75 M 162.705 29.25 162.705 20.25 M 162.705 15.75 162.705 6.75 M 162.705 2.25 162.705 0 M 165.714 36 165.714 27 M 165.714 22.5 165.714 13.5 M 165.714 9 165.714 0 M 168.724 36 168.724 33.75 M 168.724 29.25 168.724 20.25 M 168.724 15.75 168.724 6.75 M 168.724 2.25 168.724 0 M 171.734 36 171.734 27 M 171.734 22.5 171.734 13.5 M 171.734 9 171.734 0 M 174.743 36 174.743 33.75 M 174.743 29.25 174.743 20.25 M 174.743 15.75 174.743 6.75 M 174.743 2.25 174.743 0 M 177.753 36 177.753 27 M 177.753 22.5 177.753 13.5 M 177.753 9 177.753 0 M 180.763 36 180.763 33.75 M 180.763 29.25 180.763 20.25 M 180.763 15.75 180.763 6.75 M 180.763 2.25 180.763 0 M 183.773 36 183.773 27 M 183.773 22.5 183.773 13.5 M 183.773 9 183.773 0 M 186.782 36 186.782 33.75 M 186.782 29.25 186.782 20.25 M 186.782 15.75 186.782 6.75 M 186.782 2.25 186.782 0 M 461.016 36 461.016 27 M 461.016 22.5 461.016 13.5 M 461.016 9 461.016 0 M 464.026 36 464.026 33.75 M 464.026 29.25 464.026 20.25 M 464.026 15.75 464.026 6.75 M 464.026 2.25 464.026 0 M 467.036 36 467.036 27 M 467.036 22.5 467.036 13.5 M 467.036 9 467.036 0 M 470.046 36 470.046 33.75 M 470.046 29.25 470.046 20.25 M 470.046 15.75 470.046 6.75 M 470.046 2.25 470.046 0 M 473.055 36 473.055 27 M 473.055 22.5 473.055 13.5 M 473.055 9 473.055 0 M 476.065 36 476.065 33.75 M 476.065 29.25 476.065 20.25 M 476.065 15.75 476.065 6.75 M 476.065 2.25 476.065 0 M 479.075 36 479.075 27 M 479.075 22.5 479.075 13.5 M 479.075 9 479.075 0 M 482.085 36 482.085 33.75 M 482.085 29.25 482.085 20.25 M 482.085 15.75 482.085 6.75 M 482.085 2.25 482.085 0 M 485.094 36 485.094 27 M 485.094 22.5 485.094 13.5 M 485.094 9 485.094 0 M 488.104 36 488.104 33.75 M 488.104 29.25 488.104 20.25 M 488.104 15.75 488.104 6.75 M 488.104 2.25 488.104 0 M 491.114 36 491.114 27 M 491.114 22.5 491.114 13.5 M 491.114 9 491.114 0 M 494.123 36 494.123 33.75 M 494.123 29.25 494.123 20.25 M 494.123 15.75 494.123 6.75 M 494.123 2.25 494.123 0 M 497.133 36 497.133 27 M 497.133 22.5 497.133 13.5 M 497.133 9 497.133 0 M 500.143 36 500.143 33.75 M 500.143 29.25 500.143 20.25 M 500.143 15.75 500.143 6.75 M 500.143 2.25 500.143 0 M 503.153 36 503.153 27 M 503.153 22.5 503.153 13.5 M 503.153 9 503.153 0 M 506.162 36 506.162 33.75 M 506.162 29.25 506.162 20.25 M 506.162 15.75 506.162 6.75 M 506.162 2.25 506.162 0 M 509.172 36 509.172 27 M 509.172 22.5 509.172 13.5 M 509.172 9 509.172 0 M 512.182 36 512.182 33.75 M 512.182 29.25 512.182 20.25 M 512.182 15.75 512.182 6.75 M 512.182 2.25 512.182 0 M 786.416 36 786.416 27 M 786.416 22.5 786.416 13.5 M 786.416 9 786.416 0 M 789.426 36 789.426 33.75 M 789.426 29.25 789.426 20.25 M 789.426 15.75 789.426 6.75 M 789.426 2.25 789.426 0 M 792.435 36 792.435 27 M 792.435 22.5 792.435 13.5 M 792.435 9 792.435 0 M 795.445 36 795.445 33.75 M 795.445 29.25 795.445 20.25 M 795.445 15.75 795.445 6.75 M 795.445 2.25 795.445 0 M 798.455 36 798.455 27 M 798.455 22.5 798.455 13.5 M 798.455 9 798.455 0 M 801.464 36 801.464 33.75 M 801.464 29.25 801.464 20.25 M 801.464 15.75 801.464 6.75 M 801.464 2.25 801.464 0 M 804.474 36 804.474 27 M 804.474 22.5 804.474 13.5 M 804.474 9 804.474 0 M 807.484 36 807.484 33.75 M 807.484 29.25 807.484 20.25 M 807.484 15.75 807.484 6.75 M 807.484 2.25 807.484 0 M 810.494 36 810.494 27 M 810.494 22.5 810.494 13.5 M 810.494 9 810.494 0 M 813.503 36 813.503 33.75 M 813.503 29.25 813.503 20.25 M 813.503 15.75 813.503 6.75 M 813.503 2.25 813.503 0 M 816.513 36 816.513 27 M 816.513 22.5 816.513 13.5 M 816.513 9 816.513 0 M 819.523 36 819.523 33.75 M 819.523 29.25 819.523 20.25 M 819.523 15.75 819.523 6.75 M 819.523 2.25 819.523 0 M 822.533 36 822.533 27 M 822.533 22.5 822.533 13.5 M 822.533 9 822.533 0 M 825.542 36 825.542 33.75 M 825.542 29.25 825.542 20.25 M 825.542 15.75 825.542 6.75 M 825.542 2.25 825.542 0 M 828.552 36 828.552 27 M 828.552 22.5 828.552 13.5 M 828.552 9 828.552 0 M 831.562 36 831.562 33.75 M 831.562 29.25 831.562 20.25 M 831.562 15.75 831.562 6.75 M 831.562 2.25 831.562 0 M 834.572 36 834.572 27 M 834.572 22.5 834.572 13.5 M 834.572 9 834.572 0 M 837.581 36 837.581 33.75 M 837.581 29.25 837.581 20.25 M 837.581 15.75 837.581 6.75 M 837.581 2.25 837.581 0 M 1111.815 36 1111.815 27 M 1111.815 22.5 1111.815 13.5 M 1111.815 9 1111.815 0 M 1114.825 36 1114.825 33.75 M 1114.825 29.25 1114.825 20.25 M 1114.825 15.75 1114.825 6.75 M 1114.825 2.25 1114.825 0 M 1117.835 36 1117.835 27 M 1117.835 22.5 1117.835 13.5 M 1117.835 9 1117.835 0 M 1120.844 36 1120.844 33.75 M 1120.844 29.25 1120.844 20.25 M 1120.844 15.75 1120.844 6.75 M 1120.844 2.25 1120.844 0 M 1123.854 36 1123.854 27 M 1123.854 22.5 1123.854 13.5 M 1123.854 9 1123.854 0 M 1126.864 36 1126.864 33.75 M 1126.864 29.25 1126.864 20.25 M 1126.864 15.75 1126.864 6.75 M 1126.864 2.25 1126.864 0 M 1129.874 36 1129.874 27 M 1129.874 22.5 1129.874 13.5 M 1129.874 9 1129.874 0 M 1132.883 36 1132.883 33.75 M 1132.883 29.25 1132.883 20.25 M 1132.883 15.75 1132.883 6.75 M 1132.883 2.25 1132.883 0 M 1135.893 36 1135.893 27 M 1135.893 22.5 1135.893 13.5 M 1135.893 9 1135.893 0 M 1138.903 36 1138.903 33.75 M 1138.903 29.25 1138.903 20.25 M 1138.903 15.75 1138.903 6.75 M 1138.903 2.25 1138.903 0 M 1141.913 36 1141.913 27 M 1141.913 22.5 1141.913 13.5 M 1141.913 9 1141.913 0 M 1144.922 36 1144.922 33.75 M 1144.922 29.25 1144.922 20.25 M 1144.922 15.75 1144.922 6.75 M 1144.922 2.25 1144.922 0 M 1147.932 36 1147.932 27 M 1147.932 22.5 1147.932 13.5 M 1147.932 9 1147.932 0 M 1150.942 36 1150.942 33.75 M 1150.942 29.25 1150.942 20.25 M 1150.942 15.75 1150.942 6.75 M 1150.942 2.25 1150.942 0 M 1153.951 36 1153.951 27 M 1153.951 22.5 1153.951 13.5 M 1153.951 9 1153.951 0 M 1156.961 36 1156.961 33.75 M 1156.961 29.25 1156.961 20.25 M 1156.961 15.75 1156.961 6.75 M 1156.961 2.25 1156.961 0 M 1159.971 36 1159.971 27 M 1159.971 22.5 1159.971 13.5 M 1159.971 9 1159.971 0 M 1162.981 36 1162.981 33.75 M 1162.981 29.25 1162.981 20.25 M 1162.981 15.75 1162.981 6.75 M 1162.981 2.25 1162.981 0" id="SIDE_insideCutPath" stroke="#0000FF" stroke-width="0.1" style="stroke:#0000FF;stroke-width:0.1" vector-effect="non-scaling-stroke"/><path d="M 0 0 L 0 36 L 10.808 36 L 10.808 33 L 16.808 33 L 16.808 36 L 22.808 36 L 22.808 33 L 28.808 33 L 28.808 36 L 34.808 36 L 34.808 33 L 40.808 33 L 40.808 36 L 46.808 36 L 46.808 33 L 52.808 33 L 52.808 36 L 58.808 36 L 58.808 33 L 64.808 33 L 64.808 36 L 70.808 36 L 70.808 33 L 76.808 33 L 76.808 36 L 82.808 36 L 82.808 33 L 88.808 33 L 88.808 36 L 94.808 36 L 94.808 33 L 100.808 33 L 100.808 36 L 106.808 36 L 106.808 33 L 112.808 33 L 112.808 36 L 118.808 36 L 118.808 33 L 124.808 33 L 124.808 36 L 130.808 36 L 135.617 36 L 189.782 36 L 202.399 36 L 202.399 33 L 208.399 33 L 208.399 36 L 214.399 36 L 214.399 33 L 220.399 33 L 220.399 36 L 226.399 36 L 226.399 33 L 232.399 33 L 232.399 36 L 238.399 36 L 238.399 33 L 244.399 33 L 244.399 36 L 250.399 36 L 250.399 33 L 256.399 33 L 256.399 36 L 262.399 36 L 262.399 33 L 268.399 33 L 268.399 36 L 274.399 36 L 274.399 33 L 280.399 33 L 280.399 36 L 286.399 36 L 286.399 33 L 292.399 33 L 292.399 36 L 298.399 36 L 298.399 33 L 304.399 33 L 304.399 36 L 310.399 36 L 310.399 33 L 316.399 33 L 316.399 36 L 322.399 36 L 322.399 33 L 328.399 33 L 328.399 36 L 334.399 36 L 334.399 33 L 340.399 33 L 340.399 36 L 346.399 36 L 346.399 33 L 352.399 33 L 352.399 36 L 358.399 36 L 358.399 33 L 364.399 33 L 364.399 36 L 370.399 36 L 370.399 33 L 376.399 33 L 376.399 36 L 382.399 36 L 382.399 33 L 388.399 33 L 388.399 36 L 394.399 36 L 394.399 33 L 400.399 33 L 400.399 36 L 406.399 36 L 406.399 33 L 412.399 33 L 412.399 36 L 418.399 36 L 418.399 33 L 424.399 33 L 424.399 36 L 430.399 36 L 430.399 33 L 436.399 33 L 436.399 36 L 442.399 36 L 442.399 33 L 448.399 33 L 448.399 36 L 454.399 36 L 461.016 36 L 515.182 36 L 527.799 36 L 527.799 33 L 533.799 33 L 533.799 36 L 539.799 36 L 539.799 33 L 545.799 33 L 545.799 36 L 551.799 36 L 551.799 33 L 557.799 33 L 557.799 36 L 563.799 36 L 563.799 33 L 569.799 33 L 569.799 36 L 575.799 36 L 575.799 33 L 581.799 33 L 581.799 36 L 587.799 36 L 587.799 33 L 593.799 33 L 593.799 36 L 599.799 36 L 599.799 33 L 605.799 33 L 605.799 36 L 611.799 36 L 611.799 33 L 617.799 33 L 617.799 36 L 623.799 36 L 623.799 33 L 629.799 33 L 629.799 36 L 635.799 36 L 635.799 33 L 641.799 33 L 641.799 36 L 647.799 36 L 647.799 33 L 653.799 33 L 653.799 36 L 659.799 36 L 659.799 33 L 665.799 33 L 665.799 36 L 671.799 36 L 671.799 33 L 677.799 33 L 677.799 36 L 683.799 36 L 683.799 33 L 689.799 33 L 689.799 36 L 695.799 36 L 695.799 33 L 701.799 33 L 701.799 36 L 707.799 36 L 707.799 33 L 713.799 33 L 713.799 36 L 719.799 36 L 719.799 33 L 725.799 33 L 725.799 36 L 731.799 36 L 731.799 33 L 737.799 33 L 737.799 36 L 743.799 36 L 743.799 33 L 749.799 33 L 749.799 36 L 755.799 36 L 755.799 33 L 761.799 33 L 761.799 36 L 767.799 36 L 767.799 33 L 773.799 33 L 773.799 36 L 779.799 36 L 786.416 36 L 840.581 36 L 853.198 36 L 853.198 33 L 859.198 33 L 859.198 36 L 865.198 36 L 865.198 33 L 871.198 33 L 871.198 36 L 877.198 36 L 877.198 33 L 883.198 33 L 883.198 36 L 889.198 36 L 889.198 33 L 895.198 33 L 895.198 36 L 901.198 36 L 901.198 33 L 907.198 33 L 907.198 36 L 913.198 36 L 913.198 33 L 919.198 33 L 919.198 36 L 925.198 36 L 925.198 33 L 931.198 33 L 931.198 36 L 937.198 36 L 937.198 33 L 943.198 33 L 943.198 36 L 949.198 36 L 949.198 33 L 955.198 33 L 955.198 36 L 961.198 36 L 961.198 33 L 967.198 33 L 967.198 36 L 973.198 36 L 973.198 33 L 979.198 33 L 979.198 36 L 985.198 36 L 985.198 33 L 991.198 33 L 991.198 36 L 997.198 36 L 997.198 33 L 1003.198 33 L 1003.198 36 L 1009.198 36 L 1009.198 33 L 1015.198 33 L 1015.198 36 L 1021.198 36 L 1021.198 33 L 1027.198 33 L 1027.198 36 L 1033.198 36 L 1033.198 33 L 1039.198 33 L 1039.198 36 L 1045.198 36 L 1045.198 33 L 1051.198 33 L 1051.198 36 L 1057.198 36 L 1057.198 33 L 1063.198 33 L 1063.198 36 L 1069.198 36 L 1069.198 33 L 1075.198 33 L 1075.198 36 L 1081.198 36 L 1081.198 33 L 1087.198 33 L 1087.198 36 L 1093.198 36 L 1093.198 33 L 1099.198 33 L 1099.198 36 L 1105.198 36 L 1111.815 36 L 1165.981 36 L 1176.789 36 L 1176.789 33 L 1182.789 33 L 1182.789 36 L 1188.789 36 L 1188.789 33 L 1194.789 33 L 1194.789 36 L 1200.789 36 L 1200.789 33 L 1206.789 33 L 1206.789 36 L 1212.789 36 L 1212.789 33 L 1218.789 33 L 1218.789 36 L 1224.789 36 L 1224.789 33 L 1230.789 33 L 1230.789 36 L 1236.789 36 L 1236.789 33 L 1242.789 33 L 1242.789 36 L 1248.789 36 L 1248.789 33 L 1254.789 33 L 1254.789 36 L 1260.789 36 L 1260.789 33 L 1266.789 33 L 1266.789 36 L 1272.789 36 L 1272.789 33 L 1278.789 33 L 1278.789 36 L 1284.789 36 L 1284.789 33 L 1290.789 33 L 1290.789 36 L 1296.789 36 L 1301.598 36 L 1301.598 0 L 1290.789 0 L 1290.789 3 L 1284.789 3 L 1284.789 0 L 1278.789 0 L 1278.789 3 L 1272.789 3 L 1272.789 0 L 1266.789 0 L 1266.789 3 L 1260.789 3 L 1260.789 0 L 1254.789 0 L 1254.789 3 L 1248.789 3 L 1248.789 0 L 1242.789 0 L 1242.789 3 L 1236.789 3 L 1236.789 0 L 1230.789 0 L 1230.789 3 L 1224.789 3 L 1224.789 0 L 1218.789 0 L 1218.789 3 L 1212.789 3 L 1212.789 0 L 1206.789 0 L 1206.789 3 L 1200.789 3 L 1200.789 0 L 1194.789 0 L 1194.789 3 L 1188.789 3 L 1188.789 0 L 1182.789 0 L 1182.789 3 L 1176.789 3 L 1176.789 0 L 1170.789 0 L 1165.981 0 L 1111.815 0 L 1099.198 0 L 1099.198 3 L 1093.198 3 L 1093.198 0 L 1087.198 0 L 1087.198 3 L 1081.198 3 L 1081.198 0 L 1075.198 0 L 1075.198 3 L 1069.198 3 L 1069.198 0 L 1063.198 0 L 1063.198 3 L 1057.198 3 L 1057.198 0 L 1051.198 0 L 1051.198 3 L 1045.198 3 L 1045.198 0 L 1039.198 0 L 1039.198 3 L 1033.198 3 L 1033.198 0 L 1027.198 0 L 1027.198 3 L 1021.198 3 L 1021.198 0 L 1015.198 0 L 1015.198 3 L 1009.198 3 L 1009.198 0 L 1003.198 0 L 1003.198 3 L 997.198 3 L 997.198 0 L 991.198 0 L 991.198 3 L 985.198 3 L 985.198 0 L 979.198 0 L 979.198 3 L 973.198 3 L 973.198 0 L 967.198 0 L 967.198 3 L 961.198 3 L 961.198 0 L 955.198 0 L 955.198 3 L 949.198 3 L 949.198 0 L 943.198 0 L 943.198 3 L 937.198 3 L 937.198 0 L 931.198 0 L 931.198 3 L 925.198 3 L 925.198 0 L 919.198 0 L 919.198 3 L 913.198 3 L 913.198 0 L 907.198 0 L 907.198 3 L 901.198 3 L 901.198 0 L 895.198 0 L 895.198 3 L 889.198 3 L 889.198 0 L 883.198 0 L 883.198 3 L 877.198 3 L 877.198 0 L 871.198 0 L 871.198 3 L 865.198 3 L 865.198 0 L 859.198 0 L 859.198 3 L 853.198 3 L 853.198 0 L 847.198 0 L 840.581 0 L 786.416 0 L 773.799 0 L 773.799 3 L 767.799 3 L 767.799 0 L 761.799 0 L 761.799 3 L 755.799 3 L 755.799 0 L 749.799 0 L 749.799 3 L 743.799 3 L 743.799 0 L 737.799 0 L 737.799 3 L 731.799 3 L 731.799 0 L 725.799 0 L 725.799 3 L 719.799 3 L 719.799 0 L 713.799 0 L 713.799 3 L 707.799 3 L 707.799 0 L 701.799 0 L 701.799 3 L 695.799 3 L 695.799 0 L 689.799 0 L 689.799 3 L 683.799 3 L 683.799 0 L 677.799 0 L 677.799 3 L 671.799 3 L 671.799 0 L 665.799 0 L 665.799 3 L 659.799 3 L 659.799 0 L 653.799 0 L 653.799 3 L 647.799 3 L 647.799 0 L 641.799 0 L 641.799 3 L 635.799 3 L 635.799 0 L 629.799 0 L 629.799 3 L 623.799 3 L 623.799 0 L 617.799 0 L 617.799 3 L 611.799 3 L 611.799 0 L 605.799 0 L 605.799 3 L 599.799 3 L 599.799 0 L 593.799 0 L 593.799 3 L 587.799 3 L 587.799 0 L 581.799 0 L 581.799 3 L 575.799 3 L 575.799 0 L 569.799 0 L 569.799 3 L 563.799 3 L 563.799 0 L 557.799 0 L 557.799 3 L 551.799 3 L 551.799 0 L 545.799 0 L 545.799 3 L 539.799 3 L 539.799 0 L 533.799 0 L 533.799 3 L 527.799 3 L 527.799 0 L 521.799 0 L 515.182 0 L 461.016 0 L 448.399 0 L 448.399 3 L 442.399 3 L 442.399 0 L 436.399 0 L 436.399 3 L 430.399 3 L 430.399 0 L 424.399 0 L 424.399 3 L 418.399 3 L 418.399 0 L 412.399 0 L 412.399 3 L 406.399 3 L 406.399 0 L 400.399 0 L 400.399 3 L 394.399 3 L 394.399 0 L 388.399 0 L 388.399 3 L 382.399 3 L 382.399 0 L 376.399 0 L 376.399 3 L 370.399 3 L 370.399 0 L 364.399 0 L 364.399 3 L 358.399 3 L 358.399 0 L 352.399 0 L 352.399 3 L 346.399 3 L 346.399 0 L 340.399 0 L 340.399 3 L 334.399 3 L 334.399 0 L 328.399 0 L 328.399 3 L 322.399 3 L 322.399 0 L 316.399 0 L 316.399 3 L 310.399 3 L 310.399 0 L 304.399 0 L 304.399 3 L 298.399 3 L 298.399 0 L 292.399 0 L 292.399 3 L 286.399 3 L 286.399 0 L 280.399 0 L 280.399 3 L 274.399 3 L 274.399 0 L 268.399 0 L 268.399 3 L 262.399 3 L 262.399 0 L 256.399 0 L 256.399 3 L 250.399 3 L 250.399 0 L 244.399 0 L 244.399 3 L 238.399 3 L 238.399 0 L 232.399 0 L 232.399 3 L 226.399 3 L 226.399 0 L 220.399 0 L 220.399 3 L 214.399 3 L 214.399 0 L 208.399 0 L 208.399 3 L 202.399 3 L 202.399 0 L 196.399 0 L 189.782 0 L 135.617 0 L 124.808 0 L 124.808 3 L 118.808 3 L 118.808 0 L 112.808 0 L 112.808 3 L 106.808 3 L 106.808 0 L 100.808 0 L 100.808 3 L 94.808 3 L 94.808 0 L 88.808 0 L 88.808 3 L 82.808 3 L 82.808 0 L 76.808 0 L 76.808 3 L 70.808 3 L 70.808 0 L 64.808 0 L 64.808 3 L 58.808 3 L 58.808 0 L 52.808 0 L 52.808 3 L 46.808 3 L 46.808 0 L 40.808 0 L 40.808 3 L 34.808 3 L 34.808 0 L 28.808 0 L 28.808 3 L 22.808 3 L 22.808 0 L 16.808 0 L 16.808 3 L 10.808 3 L 10.808 0 L 4.808 0 L 0 0 Z" id="SIDE_outsideCutPath" stroke="#FF0000" stroke-width="0.1" style="stroke:#FF0000;stroke-width:0.1" vector-effect="non-scaling-stroke"/><path d="M 658.002 20.037 L 658.002 20.572 L 655.137 20.572 L 655.137 15.432 L 658.002 15.432 L 658.002 15.963 L 655.735 15.963 L 655.735 17.619 L 657.865 17.619 L 657.865 18.146 L 655.735 18.146 L 655.735 20.037 L 658.002 20.037 Z M 643.595 20.406 L 643.595 19.83 A 3.553 3.553 0 0 0 644.09 19.996 A 4.164 4.164 0 0 0 644.284 20.041 Q 644.657 20.118 645.023 20.118 A 2.52 2.52 0 0 0 645.351 20.098 Q 645.517 20.076 645.651 20.031 A 0.968 0.968 0 0 0 645.923 19.891 Q 646.225 19.665 646.225 19.26 Q 646.225 19.043 646.154 18.89 A 0.595 0.595 0 0 0 646.118 18.823 A 0.725 0.725 0 0 0 646.002 18.683 Q 645.941 18.626 645.861 18.572 A 1.565 1.565 0 0 0 645.759 18.508 A 2.48 2.48 0 0 0 645.587 18.419 Q 645.41 18.335 645.157 18.24 A 10.229 10.229 0 0 0 644.995 18.181 Q 644.29 17.929 643.981 17.585 A 1.191 1.191 0 0 1 643.97 17.573 A 1.214 1.214 0 0 1 643.696 17.008 A 1.741 1.741 0 0 1 643.662 16.655 A 1.271 1.271 0 0 1 643.742 16.197 A 1.129 1.129 0 0 1 644.109 15.71 A 1.562 1.562 0 0 1 644.693 15.428 Q 644.963 15.358 645.29 15.358 A 3.652 3.652 0 0 1 646.243 15.479 A 3.244 3.244 0 0 1 646.7 15.639 L 646.513 16.16 A 3.524 3.524 0 0 0 645.828 15.947 A 2.862 2.862 0 0 0 645.276 15.892 Q 644.941 15.892 644.709 15.994 A 0.85 0.85 0 0 0 644.534 16.096 A 0.656 0.656 0 0 0 644.271 16.574 A 0.907 0.907 0 0 0 644.267 16.662 Q 644.267 16.93 644.365 17.1 A 0.702 0.702 0 0 0 644.477 17.244 Q 644.566 17.333 644.697 17.413 A 2.056 2.056 0 0 0 644.858 17.5 Q 645.024 17.582 645.261 17.672 A 8.386 8.386 0 0 0 645.413 17.728 A 5.61 5.61 0 0 1 645.817 17.888 Q 646.305 18.106 646.526 18.346 A 1.133 1.133 0 0 1 646.808 18.936 A 1.586 1.586 0 0 1 646.83 19.204 A 1.5 1.5 0 0 1 646.76 19.671 A 1.206 1.206 0 0 1 646.337 20.262 A 1.699 1.699 0 0 1 645.757 20.547 Q 645.517 20.615 645.232 20.634 A 3.436 3.436 0 0 1 645.002 20.642 A 5.711 5.711 0 0 1 644.484 20.62 Q 643.975 20.574 643.643 20.428 A 1.565 1.565 0 0 1 643.595 20.406 Z M 651.312 20.572 L 649.888 20.572 L 649.888 15.432 L 651.463 15.432 Q 652.662 15.432 653.327 16.096 A 2.181 2.181 0 0 1 653.896 17.125 Q 653.991 17.501 653.991 17.953 Q 653.991 18.917 653.594 19.537 A 2.03 2.03 0 0 1 653.3 19.898 A 2.229 2.229 0 0 1 652.365 20.433 Q 652.017 20.537 651.599 20.563 A 4.618 4.618 0 0 1 651.312 20.572 Z M 651.354 15.949 L 650.486 15.949 L 650.486 20.055 L 651.214 20.055 A 3.468 3.468 0 0 0 651.816 20.006 Q 652.446 19.895 652.82 19.529 A 1.665 1.665 0 0 0 653.24 18.828 Q 653.321 18.573 653.347 18.265 A 3.544 3.544 0 0 0 653.358 17.974 A 3.192 3.192 0 0 0 653.31 17.397 Q 653.202 16.81 652.854 16.458 A 1.592 1.592 0 0 0 652.203 16.068 Q 651.951 15.986 651.644 15.96 A 3.474 3.474 0 0 0 651.354 15.949 Z M 648.479 20.572 L 647.881 20.572 L 647.881 15.432 L 648.479 15.432 L 648.479 20.572 Z" id="SIDE_labelLayer" stroke="#777777" fill="#777777" style="stroke:#777777;fill:#777777" vector-effect="non-scaling-stroke"/></g></svg>